<svg width="100" height="100" viewBox="0 0 100 100" fill="none" xmlns="http://www.w3.org/2000/svg">
<g clip-path="url(#clip0)">
<path d="M7.24025 60.4764C6.87716 60.1132 6.37326 59.9042 5.85958 59.9042C5.34591 59.9042 4.84201 60.1132 4.47873 60.4764C4.11545 60.8397 3.90646 61.3417 3.90646 61.8573C3.90646 62.371 4.11525 62.8749 4.47873 63.2382C4.84201 63.6012 5.34591 63.8104 5.85958 63.8104C6.37326 63.8104 6.87716 63.6014 7.24025 63.2382C7.60353 62.8729 7.81271 62.371 7.81271 61.8573C7.81271 61.3436 7.60372 60.8397 7.24025 60.4764Z" fill="white"/>
<path d="M11.1469 15.025L7.24062 11.1187C6.47773 10.3563 5.24141 10.3563 4.47832 11.1187L0.572081 15.025C-0.190612 15.7877 -0.190612 17.0244 0.572081 17.7873C1.33497 18.5498 2.5713 18.5498 3.33438 17.7873L3.90645 17.2154V53.9819C3.90645 55.0605 4.78106 55.9351 5.85957 55.9351C6.93808 55.9351 7.81269 55.0605 7.81269 53.9819V17.2154L8.38476 17.7875C8.76621 18.1685 9.26601 18.3594 9.76581 18.3594C10.2656 18.3594 10.7654 18.1685 11.1469 17.7873C11.9096 17.0246 11.9096 15.7879 11.1469 15.025Z" fill="white"/>
<path d="M99.4282 82.2125L95.5219 78.3063C94.759 77.5438 93.5227 77.5438 92.7596 78.3063C91.9969 79.069 91.9969 80.3057 92.7596 81.0686L93.3317 81.6406H86.3223V54.2317C86.3223 53.1532 85.4477 52.2786 84.3692 52.2786C83.2907 52.2786 82.4161 53.1532 82.4161 54.2317V81.6404H61.2511V69.1405C61.2511 68.062 60.3765 67.1873 59.298 67.1873C58.2195 67.1873 57.3449 68.062 57.3449 69.1405V81.6404H41.1086V50.2977C41.1086 49.2192 40.2339 48.3446 39.1554 48.3446C38.0769 48.3446 37.2023 49.2192 37.2023 50.2977V81.6404H21.5207V69.4334C21.5207 68.3549 20.6461 67.4803 19.5676 67.4803C18.4891 67.4803 17.6144 68.3549 17.6144 69.4334V81.6404H7.81271V70.3993C7.81271 69.3207 6.9381 68.4461 5.85959 68.4461C4.78107 68.4461 3.90646 69.3207 3.90646 70.3993V83.5936C3.90646 84.6721 4.78107 85.5467 5.85959 85.5467H93.3315L92.7594 86.1188C91.9967 86.8814 91.9967 88.1182 92.7594 88.8811C93.1409 89.2623 93.6407 89.4531 94.1405 89.4531C94.6403 89.4531 95.1401 89.2623 95.5216 88.8811L99.4278 84.9748C100.191 84.2119 100.191 82.9752 99.4282 82.2125Z" fill="white"/>
<path d="M84.3688 25.6788C80.4801 25.6788 77.3167 28.8423 77.3167 32.731C77.3167 33.8462 77.578 34.9015 78.0409 35.8399L62.7471 51.1337C61.7264 50.5587 60.5501 50.229 59.2975 50.229C58.0729 50.229 56.9206 50.5432 55.9159 51.0944L45.5718 40.7503C45.9786 39.8599 46.2071 38.8716 46.2071 37.8302C46.2071 33.9415 43.0437 30.7778 39.155 30.7778C35.2663 30.7778 32.1027 33.9415 32.1027 37.8302C32.1027 39.0302 32.4046 40.1606 32.9355 41.1507L22.9693 51.1169C21.9597 50.5585 20.8002 50.2395 19.5671 50.2395C15.6785 50.2395 12.515 53.403 12.515 57.2917C12.515 61.1803 15.6789 64.3438 19.5675 64.3438C23.4562 64.3438 26.6199 61.1803 26.6199 57.2917C26.6199 56.053 26.2978 54.8887 25.7347 53.876L35.6597 43.9511C36.6909 44.5423 37.8837 44.8823 39.1552 44.8823C40.582 44.8823 41.9103 44.4552 43.0212 43.7239L53.1423 53.845C52.572 54.8624 52.2454 56.034 52.2454 57.2811C52.2454 61.1698 55.4089 64.3334 59.2975 64.3334C63.1862 64.3334 66.3497 61.1698 66.3497 57.2811C66.3497 56.0622 66.0386 54.9145 65.4919 53.9132L80.6717 38.7333C81.7475 39.3983 83.0137 39.7833 84.3688 39.7833C88.2575 39.7833 91.4209 36.6196 91.4209 32.731C91.4209 28.8423 88.2575 25.6788 84.3688 25.6788ZM19.5677 60.4377C17.8332 60.4377 16.4218 59.0264 16.4218 57.2919C16.4218 55.5573 17.8328 54.1458 19.5675 54.1458C20.4173 54.1458 21.1882 54.4858 21.755 55.0354C21.7646 55.0454 21.773 55.0563 21.7828 55.0661C21.7943 55.0776 21.807 55.0874 21.8189 55.0987C22.3716 55.6659 22.7138 56.4391 22.7138 57.2919C22.7138 59.0266 21.3023 60.4377 19.5677 60.4377ZM39.1554 40.9759C37.4208 40.9759 36.0093 39.5645 36.0093 37.83C36.0093 36.0954 37.4206 34.6839 39.1554 34.6839C40.8902 34.6839 42.3013 36.0954 42.3013 37.83C42.3013 39.5645 40.89 40.9759 39.1554 40.9759ZM59.2979 60.427C57.5634 60.427 56.152 59.0155 56.152 57.2809C56.152 55.5463 57.5634 54.135 59.2979 54.135C61.0325 54.135 62.4438 55.5462 62.4438 57.2809C62.4438 59.0157 61.0325 60.427 59.2979 60.427ZM84.3692 35.8769C82.6346 35.8769 81.2233 34.4653 81.2233 32.7308C81.2233 30.9962 82.6344 29.5849 84.3692 29.5849C86.1039 29.5849 87.5151 30.9962 87.5151 32.7308C87.5151 34.4653 86.1038 35.8769 84.3692 35.8769Z" fill="white"/>
<path d="M85.7501 44.7128C85.3868 44.3495 84.8829 44.1406 84.3692 44.1406C83.8556 44.1406 83.3516 44.3494 82.9884 44.7128C82.6253 45.0761 82.4161 45.58 82.4161 46.0937C82.4161 46.6074 82.6251 47.1113 82.9884 47.4743C83.3516 47.8376 83.8556 48.0468 84.3692 48.0468C84.8829 48.0468 85.3868 47.8378 85.7501 47.4743C86.1132 47.1113 86.3223 46.6074 86.3223 46.0937C86.3223 45.58 86.1133 45.0761 85.7501 44.7128Z" fill="white"/>
</g>
<defs>
<clipPath id="clip0">
<rect width="100" height="100" fill="white"/>
</clipPath>
</defs>
</svg>
