<svg width="94" height="94" viewBox="0 0 94 94" fill="none" xmlns="http://www.w3.org/2000/svg">
<path d="M89.1875 37.625H84.4844C84.1529 37.6237 83.8305 37.517 83.5637 37.3204C83.2968 37.1238 83.0994 36.8474 83 36.5312C82.2447 33.894 81.191 31.3515 79.8594 28.9531C79.7055 28.6582 79.6498 28.3218 79.7004 27.993C79.751 27.6642 79.9052 27.3601 80.1406 27.125L83.4531 23.7969C84.3309 22.918 84.824 21.7266 84.824 20.4844C84.824 19.2422 84.3309 18.0508 83.4531 17.1719L76.8281 10.5469C75.9492 9.66906 74.7578 9.176 73.5156 9.176C72.2734 9.176 71.082 9.66906 70.2031 10.5469L66.875 13.8594C66.6399 14.0948 66.3358 14.249 66.007 14.2996C65.6782 14.3501 65.3418 14.2945 65.0469 14.1406C62.6458 12.8105 60.1041 11.7519 57.4688 10.9844C57.1523 10.8905 56.8747 10.6967 56.6775 10.432C56.4803 10.1672 56.3742 9.84573 56.375 9.51562V4.8125C56.3713 3.57044 55.8762 2.38031 54.998 1.50203C54.1197 0.623761 52.9296 0.12871 51.6875 0.125H42.3125C41.0704 0.12871 39.8803 0.623761 39.002 1.50203C38.1238 2.38031 37.6287 3.57044 37.625 4.8125V9.51562C37.6237 9.84707 37.517 10.1695 37.3204 10.4363C37.1238 10.7032 36.8474 10.9006 36.5312 11C33.894 11.7553 31.3515 12.809 28.9531 14.1406C28.6582 14.2945 28.3218 14.3501 27.993 14.2996C27.6642 14.249 27.3601 14.0948 27.125 13.8594L23.7969 10.5469C22.918 9.66906 21.7266 9.176 20.4844 9.176C19.2422 9.176 18.0508 9.66906 17.1719 10.5469L10.5469 17.1719C9.66906 18.0508 9.176 19.2422 9.176 20.4844C9.176 21.7266 9.66906 22.918 10.5469 23.7969L13.8594 27.125C14.0948 27.3601 14.249 27.6642 14.2996 27.993C14.3501 28.3218 14.2945 28.6582 14.1406 28.9531C12.8105 31.3542 11.7519 33.8959 10.9844 36.5312C10.8905 36.8477 10.6967 37.1253 10.432 37.3225C10.1672 37.5197 9.84573 37.6258 9.51562 37.625H4.8125C3.57044 37.6287 2.38031 38.1238 1.50203 39.002C0.623761 39.8803 0.12871 41.0704 0.125 42.3125V51.6875C0.12871 52.9296 0.623761 54.1197 1.50203 54.998C2.38031 55.8762 3.57044 56.3713 4.8125 56.375H9.51562C9.84707 56.3763 10.1695 56.483 10.4363 56.6796C10.7032 56.8762 10.9006 57.1526 11 57.4688C11.7553 60.106 12.809 62.6485 14.1406 65.0469C14.2945 65.3418 14.3501 65.6782 14.2996 66.007C14.249 66.3358 14.0948 66.6399 13.8594 66.875L10.5469 70.2031C10.1111 70.6377 9.76536 71.154 9.52945 71.7224C9.29354 72.2908 9.17211 72.9002 9.17211 73.5156C9.17211 74.1311 9.29354 74.7404 9.52945 75.3089C9.76536 75.8773 10.1111 76.3936 10.5469 76.8281L17.1719 83.4531C18.0508 84.3309 19.2422 84.824 20.4844 84.824C21.7266 84.824 22.918 84.3309 23.7969 83.4531L27.125 80.1406C27.3601 79.9052 27.6642 79.751 27.993 79.7004C28.3218 79.6498 28.6582 79.7055 28.9531 79.8594C31.3542 81.1895 33.8959 82.2481 36.5312 83.0156C36.8477 83.1095 37.1253 83.3033 37.3225 83.568C37.5197 83.8328 37.6258 84.1543 37.625 84.4844V89.1875C37.6287 90.4296 38.1238 91.6197 39.002 92.498C39.8803 93.3762 41.0704 93.8713 42.3125 93.875H51.6875C52.9296 93.8713 54.1197 93.3762 54.998 92.498C55.8762 91.6197 56.3713 90.4296 56.375 89.1875V84.4844C56.3763 84.1529 56.483 83.8305 56.6796 83.5637C56.8762 83.2968 57.1526 83.0994 57.4688 83C60.106 82.2447 62.6485 81.191 65.0469 79.8594C65.3418 79.7055 65.6782 79.6498 66.007 79.7004C66.3358 79.751 66.6399 79.9052 66.875 80.1406L70.2031 83.4531C71.082 84.3309 72.2734 84.824 73.5156 84.824C74.7578 84.824 75.9492 84.3309 76.8281 83.4531L83.4531 76.8281C83.8889 76.3936 84.2346 75.8773 84.4706 75.3089C84.7065 74.7404 84.8279 74.1311 84.8279 73.5156C84.8279 72.9002 84.7065 72.2908 84.4706 71.7224C84.2346 71.154 83.8889 70.6377 83.4531 70.2031L80.1406 66.875C79.9052 66.6399 79.751 66.3358 79.7004 66.007C79.6498 65.6782 79.7055 65.3418 79.8594 65.0469C81.1895 62.6458 82.2481 60.1041 83.0156 57.4688C83.1095 57.1523 83.3033 56.8747 83.568 56.6775C83.8328 56.4803 84.1543 56.3742 84.4844 56.375H89.1875C90.4296 56.3713 91.6197 55.8762 92.498 54.998C93.3762 54.1197 93.8713 52.9296 93.875 51.6875V42.3125C93.8713 41.0704 93.3762 39.8803 92.498 39.002C91.6197 38.1238 90.4296 37.6287 89.1875 37.625ZM90.75 51.6875C90.75 52.1019 90.5854 52.4993 90.2924 52.7924C89.9993 53.0854 89.6019 53.25 89.1875 53.25H84.4844C83.4768 53.2514 82.4965 53.5774 81.6888 54.1797C80.881 54.7819 80.2888 55.6285 80 56.5938C79.3074 59.0126 78.343 61.3452 77.125 63.5469C76.6474 64.4352 76.4671 65.4532 76.6105 66.4515C76.7539 67.4498 77.2135 68.3758 77.9219 69.0938L81.25 72.4062C81.5405 72.7024 81.7032 73.1008 81.7032 73.5156C81.7032 73.9305 81.5405 74.3288 81.25 74.625L74.625 81.25C74.3264 81.5358 73.929 81.6952 73.5156 81.6952C73.1023 81.6952 72.7049 81.5358 72.4062 81.25L69.0938 77.9219C68.3758 77.2135 67.4498 76.7539 66.4515 76.6105C65.4532 76.4671 64.4352 76.6474 63.5469 77.125C61.3452 78.343 59.0126 79.3074 56.5938 80C55.6285 80.2888 54.7819 80.881 54.1797 81.6888C53.5774 82.4965 53.2514 83.4768 53.25 84.4844V89.1875C53.25 89.6019 53.0854 89.9993 52.7924 90.2924C52.4993 90.5854 52.1019 90.75 51.6875 90.75H42.3125C41.8981 90.75 41.5007 90.5854 41.2076 90.2924C40.9146 89.9993 40.75 89.6019 40.75 89.1875V84.4844C40.7486 83.4768 40.4226 82.4965 39.8203 81.6888C39.2181 80.881 38.3715 80.2888 37.4062 80C34.9874 79.3074 32.6548 78.343 30.4531 77.125C29.7722 76.7549 29.0094 76.5615 28.2344 76.5625C26.9897 76.5618 25.7945 77.0499 24.9062 77.9219L21.5938 81.25C21.2951 81.5358 20.8977 81.6952 20.4844 81.6952C20.071 81.6952 19.6736 81.5358 19.375 81.25L12.75 74.625C12.4595 74.3288 12.2968 73.9305 12.2968 73.5156C12.2968 73.1008 12.4595 72.7024 12.75 72.4062L16.0781 69.0938C16.7865 68.3758 17.2461 67.4498 17.3895 66.4515C17.5329 65.4532 17.3526 64.4352 16.875 63.5469C15.657 61.3452 14.6925 59.0126 14 56.5938C13.7112 55.6285 13.119 54.7819 12.3112 54.1797C11.5035 53.5774 10.5232 53.2514 9.51562 53.25H4.8125C4.3981 53.25 4.00067 53.0854 3.70765 52.7924C3.41462 52.4993 3.25 52.1019 3.25 51.6875V42.3125C3.25 41.8981 3.41462 41.5007 3.70765 41.2076C4.00067 40.9146 4.3981 40.75 4.8125 40.75H9.51562C10.5232 40.7486 11.5035 40.4226 12.3112 39.8203C13.119 39.2181 13.7112 38.3715 14 37.4062C14.6925 34.9874 15.657 32.6548 16.875 30.4531C17.3526 29.5648 17.5329 28.5468 17.3895 27.5485C17.2461 26.5502 16.7865 25.6242 16.0781 24.9062L12.75 21.5938C12.4595 21.2976 12.2968 20.8992 12.2968 20.4844C12.2968 20.0695 12.4595 19.6712 12.75 19.375L19.375 12.75C19.6736 12.4642 20.071 12.3048 20.4844 12.3048C20.8977 12.3048 21.2951 12.4642 21.5938 12.75L24.9062 16.0781C25.6242 16.7865 26.5502 17.2461 27.5485 17.3895C28.5468 17.5329 29.5648 17.3526 30.4531 16.875C32.6548 15.657 34.9874 14.6925 37.4062 14C38.3715 13.7112 39.2181 13.119 39.8203 12.3112C40.4226 11.5035 40.7486 10.5232 40.75 9.51562V4.8125C40.75 4.3981 40.9146 4.00067 41.2076 3.70765C41.5007 3.41462 41.8981 3.25 42.3125 3.25H51.6875C52.1019 3.25 52.4993 3.41462 52.7924 3.70765C53.0854 4.00067 53.25 4.3981 53.25 4.8125V9.51562C53.2514 10.5232 53.5774 11.5035 54.1797 12.3112C54.7819 13.119 55.6285 13.7112 56.5938 14C59.0126 14.6925 61.3452 15.657 63.5469 16.875C64.4352 17.3526 65.4532 17.5329 66.4515 17.3895C67.4498 17.2461 68.3758 16.7865 69.0938 16.0781L72.4062 12.75C72.7049 12.4642 73.1023 12.3048 73.5156 12.3048C73.929 12.3048 74.3264 12.4642 74.625 12.75L81.25 19.375C81.5405 19.6712 81.7032 20.0695 81.7032 20.4844C81.7032 20.8992 81.5405 21.2976 81.25 21.5938L77.9219 24.9062C77.2135 25.6242 76.7539 26.5502 76.6105 27.5485C76.4671 28.5468 76.6474 29.5648 77.125 30.4531C78.343 32.6548 79.3074 34.9874 80 37.4062C80.2888 38.3715 80.881 39.2181 81.6888 39.8203C82.4965 40.4226 83.4768 40.7486 84.4844 40.75H89.1875C89.6019 40.75 89.9993 40.9146 90.2924 41.2076C90.5854 41.5007 90.75 41.8981 90.75 42.3125V51.6875Z" fill="white"/>
<path d="M47 18.875C41.4374 18.875 35.9997 20.5245 31.3746 23.6149C26.7495 26.7053 23.1446 31.0979 21.0159 36.237C18.8872 41.3762 18.3302 47.0312 19.4154 52.4869C20.5006 57.9426 23.1793 62.954 27.1126 66.8874C31.046 70.8207 36.0574 73.4994 41.5131 74.5846C46.9688 75.6698 52.6238 75.1128 57.763 72.9841C62.9022 70.8554 67.2947 67.2505 70.3851 62.6254C73.4755 58.0003 75.125 52.5626 75.125 47C75.1138 39.5442 72.1471 32.397 66.8751 27.1249C61.603 21.8529 54.4558 18.8862 47 18.875ZM47 72C42.0555 72 37.222 70.5338 33.1108 67.7867C28.9995 65.0397 25.7952 61.1352 23.903 56.5671C22.0108 51.9989 21.5158 46.9723 22.4804 42.1227C23.445 37.2732 25.826 32.8186 29.3223 29.3223C32.8187 25.826 37.2732 23.445 42.1228 22.4804C46.9723 21.5157 51.9989 22.0108 56.5671 23.903C61.1353 25.7952 65.0397 28.9995 67.7867 33.1107C70.5338 37.222 72 42.0555 72 47C71.9913 53.6277 69.3546 59.9815 64.6681 64.6681C59.9816 69.3546 53.6278 71.9913 47 72Z" fill="white"/>
<path d="M64.1875 56.375V32.9375C64.1875 32.5231 64.0229 32.1257 63.7299 31.8326C63.4368 31.5396 63.0394 31.375 62.625 31.375H56.375C55.9606 31.375 55.5632 31.5396 55.2701 31.8326C54.9771 32.1257 54.8125 32.5231 54.8125 32.9375V56.375H51.6875V39.1875C51.6875 38.7731 51.5229 38.3757 51.2299 38.0826C50.9368 37.7896 50.5394 37.625 50.125 37.625H43.875C43.4606 37.625 43.0632 37.7896 42.7701 38.0826C42.4771 38.3757 42.3125 38.7731 42.3125 39.1875V56.375H39.1875V48.5625C39.1875 48.1481 39.0229 47.7507 38.7299 47.4576C38.4368 47.1646 38.0394 47 37.625 47H31.375C30.9606 47 30.5632 47.1646 30.2701 47.4576C29.9771 47.7507 29.8125 48.1481 29.8125 48.5625V56.375H26.6875V59.5H67.3125V56.375H64.1875ZM36.0625 56.375H32.9375V50.125H36.0625V56.375ZM48.5625 56.375H45.4375V40.75H48.5625V56.375ZM61.0625 56.375H57.9375V34.5H61.0625V56.375Z" fill="white"/>
</svg>
