<svg width="100" height="100" viewBox="0 0 100 100" fill="none" xmlns="http://www.w3.org/2000/svg">
<path d="M78.9584 61.6035C76.9959 57.5119 69.975 51.8326 63.1918 46.3451C59.4084 43.2867 55.8334 40.3951 53.5543 38.116C52.9834 37.541 52.1293 37.3576 51.3752 37.6285C49.9711 38.1369 49.1043 38.5285 48.4211 38.8326C47.3795 39.2992 47.0295 39.4576 45.6252 39.5992C45.0043 39.6617 44.4461 39.9951 44.1002 40.5117C41.1543 44.9158 38.1043 44.5408 36.0668 43.8576C35.4168 43.641 35.3002 43.3617 35.2377 43.0951C34.8002 41.266 36.9961 37.0076 39.8418 34.1617C46.6127 27.3867 50.1043 25.6908 57.4793 28.9867C65.8459 32.7283 74.2293 35.6576 74.3127 35.6867C75.4086 36.0658 76.5877 35.4908 76.9668 34.4033C77.3418 33.3158 76.7709 32.1283 75.6834 31.7492C75.6 31.7201 67.3834 28.8492 59.1834 25.1783C49.6293 20.9074 44.3875 23.7199 36.9 31.2117C34.05 34.0617 30.1791 39.8283 31.1791 44.0576C31.6082 45.8576 32.875 47.191 34.7582 47.8117C39.4791 49.3701 43.7873 47.8783 46.9957 43.6201C48.3207 43.416 49.0416 43.116 50.1248 42.6285C50.5164 42.4535 50.9748 42.2494 51.5832 42.0035C53.9666 44.241 57.1832 46.8451 60.5707 49.5826C66.6957 54.5367 73.6416 60.1535 75.2041 63.4035C75.975 65.0076 75.1457 66.0535 74.5832 66.5326C73.7582 67.241 72.6291 67.466 72.0166 67.0367C71.3416 66.5742 70.4625 66.5451 69.7666 66.9617C69.0666 67.3783 68.675 68.1658 68.7625 68.9742C68.9041 70.2992 67.6916 71.0576 67.1666 71.3201C65.8332 71.9951 64.4416 71.8785 63.9207 71.3951C63.3373 70.8535 62.4998 70.6951 61.7582 70.9701C61.0166 71.2492 60.4998 71.9326 60.4248 72.7242C60.2998 74.0908 59.2873 75.4033 57.9664 75.9158C57.3289 76.1574 56.4039 76.3033 55.5748 75.5449C55.0582 75.0783 54.3414 74.899 53.6707 75.0615C52.9916 75.2281 52.4457 75.7199 52.2082 76.374C52.1291 76.5824 51.9498 77.0824 49.9998 77.0824C48.6123 77.0824 46.1164 76.1449 44.8957 75.3365C43.4332 74.374 34.2623 67.5324 26.3416 60.899C25.2291 59.9615 23.3041 57.9531 21.6041 56.1781C20.0957 54.6031 18.7166 53.174 18.0082 52.574C17.1207 51.824 15.8082 51.9365 15.0707 52.8199C14.3291 53.699 14.4373 55.0158 15.3166 55.7574C15.9625 56.3033 17.2125 57.624 18.5916 59.0615C20.45 61.0031 22.3707 63.0115 23.6625 64.0949C31.4209 70.5908 40.7459 77.6033 42.6041 78.824C44.1375 79.8324 47.4416 81.249 50 81.249C52.0541 81.249 53.6334 80.7781 54.7291 79.8574C56.1957 80.4283 57.8625 80.4324 59.4666 79.8074C61.3625 79.074 62.9207 77.5949 63.8041 75.8033C65.4457 76.1533 67.325 75.9074 69.0332 75.0492C70.7041 74.2076 71.9123 72.9201 72.5123 71.4158C74.1707 71.5033 75.8789 70.9158 77.2914 69.7033C79.6834 67.6576 80.3416 64.4744 78.9584 61.6035Z" fill="white"/>
<path d="M41.6666 27.0826H22.9166C21.7666 27.0826 20.8332 28.016 20.8332 29.166C20.8332 30.316 21.7666 31.2494 22.9166 31.2494H41.6666C42.8166 31.2494 43.75 30.316 43.75 29.166C43.75 28.016 42.8166 27.0826 41.6666 27.0826Z" fill="white"/>
<path d="M85.0625 57.1702C84.4166 56.2161 83.125 55.9536 82.1709 56.6036L76.0793 60.6951C75.1252 61.3367 74.8709 62.6326 75.5127 63.5867C75.9168 64.1826 76.5752 64.5076 77.2461 64.5076C77.642 64.5076 78.0461 64.3951 78.4045 64.1535L84.4961 60.0619C85.45 59.4202 85.7041 58.1244 85.0625 57.1702Z" fill="white"/>
<path d="M72.1291 67.1119C70.6375 65.9369 63.9666 59.1078 59.8416 54.8078C59.0457 53.9744 57.725 53.9453 56.8957 54.7453C56.0623 55.5412 56.0373 56.8619 56.8332 57.6912C57.9041 58.8078 67.3498 68.6537 69.5457 70.3871C69.9248 70.6871 70.3832 70.833 70.8332 70.833C71.4457 70.833 72.0582 70.558 72.4748 70.0371C73.1875 69.1369 73.0334 67.8244 72.1291 67.1119Z" fill="white"/>
<path d="M63.8041 71.291C61.3082 69.2951 55.0375 62.6326 53.6207 61.091C52.8373 60.241 51.5248 60.191 50.6748 60.966C49.8289 61.7451 49.7707 63.066 50.5498 63.9119C50.6248 63.991 58.1082 72.0703 61.1998 74.5453C61.5832 74.8494 62.0457 74.9994 62.4998 74.9994C63.1082 74.9994 63.7164 74.7285 64.1289 74.2203C64.8459 73.3201 64.7 72.0076 63.8041 71.291Z" fill="white"/>
<path d="M55.5125 75.4869C52.5416 72.9828 46.4625 66.5119 45.275 65.241C44.4875 64.3994 43.1666 64.3535 42.3291 65.141C41.4875 65.9285 41.4457 67.2451 42.2291 68.0869C43.9375 69.916 49.7541 76.0828 52.825 78.6744C53.2166 79.0035 53.6916 79.166 54.1666 79.166C54.7582 79.166 55.35 78.9119 55.7625 78.4244C56.5041 77.541 56.3916 76.2285 55.5125 75.4869Z" fill="white"/>
<path d="M24.35 23.4869C20.7791 20.1035 6.5 19.0076 2.2084 18.7535C1.6168 18.7244 1.0709 18.9201 0.654297 19.316C0.2375 19.7076 0 20.2576 0 20.8326V58.3326C0 59.4826 0.933398 60.416 2.0834 60.416H14.5834C15.4834 60.416 16.2834 59.8369 16.5625 58.9785C16.8666 58.0451 24.0459 36.0119 24.9916 25.1785C25.0459 24.5451 24.8125 23.9201 24.35 23.4869ZM13.0625 56.2494H4.1666V23.066C10.8625 23.5951 18.0875 24.7451 20.7125 26.0201C19.6084 35.1451 14.6125 51.3576 13.0625 56.2494Z" fill="white"/>
<path d="M97.9166 22.916C81.5582 22.916 72.4832 27.1035 72.1041 27.2785C71.5625 27.5326 71.1582 28.0035 70.9916 28.5744C70.825 29.1453 70.9082 29.7578 71.2207 30.266C73.7957 34.4119 81.8582 57.4369 83.4082 63.0535C83.6582 63.9576 84.4791 64.5826 85.4166 64.5826H97.9166C99.0666 64.5826 100 63.6492 100 62.4992V24.9992C100 23.8451 99.0666 22.916 97.9166 22.916ZM95.8334 60.416H86.975C85 53.9826 79.1666 37.2076 75.9125 30.2744C79.0916 29.1953 85.9209 27.341 95.8334 27.1078V60.416Z" fill="white"/>
</svg>
