<svg width="445" height="362" viewBox="0 0 445 362" fill="none" xmlns="http://www.w3.org/2000/svg">
<path d="M79.3743 152.864C79.3743 152.672 79.4704 152.48 79.7585 152.48L86.1934 152.672C86.8657 152.672 87.3459 152.768 87.8261 152.96C88.3064 153.152 88.5945 153.343 88.8826 153.631C89.1708 153.919 89.3628 154.302 89.4589 154.686C89.5549 155.069 89.651 155.548 89.651 156.124L89.5549 157.849C89.5549 158.329 89.4589 158.808 89.3628 159.287C89.2668 159.671 88.9787 160.054 88.6905 160.342C88.4024 160.63 88.0182 160.821 87.538 161.013C87.0578 161.205 86.5776 161.205 85.9053 161.205L82.4477 161.109L81.7754 159.096H81.6794L81.5833 161.109L79.1823 161.013L79.3743 152.864ZM81.6794 158.904L85.8092 159C86.2894 159 86.5776 158.904 86.7697 158.712C86.9618 158.52 87.0578 158.137 87.0578 157.658V156.219C87.0578 155.644 86.9618 155.357 86.7697 155.165C86.5776 154.973 86.2894 154.877 85.8092 154.877L81.8715 154.781C81.7754 154.781 81.7754 154.781 81.7754 154.877L81.6794 154.973V158.904Z" fill="#F1F1F4"/>
<path d="M93.0125 156.507L92.8204 159.096C92.8204 159.191 92.9164 159.287 93.0125 159.287L100.216 159.479L100.12 161.684L90.7074 161.397C90.5154 161.397 90.3233 161.301 90.4193 161.013L90.6114 153.152C90.6114 152.96 90.7074 152.768 90.9956 152.768L100.216 153.056C100.408 153.056 100.6 153.152 100.6 153.439L100.504 155.644L98.1988 156.411H98.1027V155.261C98.1027 155.165 98.1027 155.165 98.0067 155.165L93.1085 154.973C93.0125 154.973 93.0125 154.973 93.0125 155.069V155.165V156.219L97.0463 156.315L96.9502 158.041L93.5887 157.945L93.0125 156.507Z" fill="#F1F1F4"/>
<path d="M109.148 156.411L109.052 155.453C109.052 155.357 109.052 155.357 108.956 155.261L104.442 155.165C104.25 155.165 104.153 155.165 104.057 155.261C103.961 155.357 103.961 155.453 103.961 155.549V155.74C103.961 155.932 103.961 156.028 104.057 156.028C104.153 156.124 104.25 156.124 104.346 156.124L109.628 156.987C110.012 157.082 110.204 157.082 110.492 157.274C110.684 157.37 110.877 157.562 111.069 157.658C111.261 157.849 111.357 158.041 111.357 158.233C111.453 158.425 111.453 158.712 111.453 159.096V159.767C111.453 160.15 111.357 160.438 111.261 160.726C111.165 161.013 110.973 161.205 110.78 161.397C110.588 161.588 110.3 161.684 110.012 161.78C109.724 161.876 109.244 161.876 108.86 161.876L101.176 161.684L101.272 159.479L108.091 159.671C108.283 159.671 108.475 159.671 108.475 159.575C108.571 159.479 108.571 159.383 108.571 159.192V159C108.571 158.808 108.571 158.712 108.475 158.712C108.379 158.616 108.283 158.616 108.187 158.616L103.097 157.849C102.713 157.754 102.425 157.754 102.233 157.658C101.944 157.562 101.752 157.466 101.656 157.274C101.464 157.082 101.368 156.891 101.368 156.699C101.272 156.507 101.272 156.22 101.272 155.836V155.261C101.272 154.686 101.464 154.206 101.848 153.823C102.233 153.535 102.713 153.344 103.481 153.344L111.069 153.535C111.357 153.535 111.453 153.631 111.453 153.919L111.357 155.644L109.148 156.411Z" fill="#F1F1F4"/>
<path d="M112.413 162.068L112.701 153.535L115.102 153.631L114.814 162.164L112.413 162.068Z" fill="#F1F1F4"/>
<path d="M123.842 158.712C123.842 158.616 123.842 158.425 123.842 158.329C123.842 158.233 123.842 158.041 123.842 157.945V157.849L126.243 157.945L126.147 162.163C126.147 162.355 126.051 162.451 125.859 162.451L119.424 162.259C118.752 162.259 118.272 162.163 117.792 161.972C117.311 161.78 117.023 161.588 116.735 161.301C116.447 161.013 116.255 160.63 116.159 160.246C116.063 159.863 115.967 159.383 115.967 158.808L116.063 157.082C116.063 156.603 116.159 156.124 116.255 155.644C116.351 155.261 116.639 154.877 116.927 154.59C117.215 154.302 117.599 154.11 118.08 153.919C118.56 153.727 119.04 153.727 119.712 153.727L126.147 153.919C126.339 153.919 126.532 154.014 126.435 154.302L126.339 156.124L124.034 156.891H123.938V156.028C123.938 155.932 123.938 155.932 123.842 155.932L119.712 155.836C119.52 155.836 119.232 155.836 119.136 155.836C118.944 155.836 118.848 155.932 118.752 156.028C118.656 156.124 118.56 156.315 118.56 156.411C118.464 156.603 118.464 156.795 118.464 157.082V158.616C118.464 159.096 118.56 159.479 118.752 159.671C118.944 159.863 119.232 159.958 119.712 160.054L123.746 160.15C123.842 160.15 123.842 160.15 123.842 160.054V158.712Z" fill="#F1F1F4"/>
<path d="M131.334 154.11C131.526 154.11 131.622 154.11 131.718 154.206C131.814 154.302 131.814 154.398 131.91 154.494L134.983 160.725C135.079 160.821 135.079 160.917 135.175 160.917H135.271C135.368 160.917 135.464 160.821 135.464 160.725L135.656 154.302L137.865 154.398L137.576 162.643C137.576 162.835 137.48 163.026 137.192 162.93L133.735 162.835C133.543 162.835 133.447 162.835 133.351 162.739C133.255 162.643 133.159 162.643 133.159 162.451L129.989 156.219C129.989 156.124 129.893 156.028 129.797 156.028H129.701C129.605 156.028 129.509 156.124 129.509 156.219L129.317 162.643L127.108 162.547L127.396 154.302C127.396 154.11 127.492 153.918 127.78 153.918L131.334 154.11Z" fill="#F1F1F4"/>
<path d="M300.649 257.408C358.784 199.376 358.784 105.288 300.649 47.256C242.513 -10.7757 148.257 -10.7757 90.1213 47.256C31.9858 105.288 31.9858 199.376 90.1213 257.408C148.257 315.439 242.513 315.439 300.649 257.408Z" fill="#E0F3FF"/>
<path d="M86.0013 142.798C82.3517 136.47 75.8207 133.882 75.8207 133.882L73.5157 134.936L78.606 144.14C77.9337 147.687 75.5326 149.605 75.5326 149.605C75.5326 149.605 72.4592 150.18 69.2898 148.454L65.4481 138.675L63.143 139.73C63.143 139.73 60.934 146.345 63.4312 153.152C63.4312 153.152 64.3916 155.357 64.5837 155.549C65.4481 156.603 67.8491 157.754 72.3632 157.562L87.9222 187.186C86.6736 189.391 86.3855 192.172 87.538 194.664C89.4589 198.691 94.261 200.512 98.3909 198.595C102.425 196.678 104.25 191.884 102.329 187.761C101.176 185.269 98.8711 183.639 96.374 183.16L83.6002 152.289C86.6736 149.125 87.2499 146.537 87.0578 145.099C87.0578 144.907 86.0013 142.798 86.0013 142.798ZM98.775 193.897L94.6452 195.815L90.8995 193.226L91.2837 188.72L95.4135 186.803L99.1592 189.391L98.775 193.897Z" fill="url(#paint0_linear)"/>
<path d="M87.1539 145.194C83.5042 138.867 76.9733 136.278 76.9733 136.278L74.6682 137.333L79.7585 146.537C79.0862 150.084 76.6851 152.001 76.6851 152.001C76.6851 152.001 73.6118 152.576 70.4423 150.851L66.6006 141.072L64.2956 142.126C64.2956 142.126 62.0866 148.742 64.5837 155.549C64.5837 155.549 68.1373 160.246 73.4197 159.959L88.9787 189.583C87.7301 191.788 87.442 194.568 88.5945 197.061C90.5154 201.088 95.3175 202.909 99.4474 200.992C103.481 199.074 105.306 194.281 103.385 190.158C102.233 187.666 99.9276 186.036 97.4305 185.556L84.6567 154.686C88.4985 150.947 87.1539 145.194 87.1539 145.194ZM99.9276 196.294L95.7977 198.211L92.0521 195.623L92.4362 191.117L96.5661 189.199L100.312 191.788L99.9276 196.294Z" fill="url(#paint1_linear)"/>
<path d="M65.5538 138.756L63.2915 139.811L64.4298 142.243L66.6922 141.188L65.5538 138.756Z" fill="#E5E2FF"/>
<path d="M75.9189 133.94L73.6564 134.996L74.7948 137.428L77.0572 136.373L75.9189 133.94Z" fill="#E5E2FF"/>
<path d="M98.7749 193.937L94.6852 195.844L95.8235 198.277L99.9132 196.369L98.7749 193.937Z" fill="#E5E2FF"/>
<path d="M76.9733 162.26L89.5549 186.419C92.8204 186.611 94.6452 184.023 94.6452 184.023L84.3686 158.808C79.7585 158.617 76.9733 162.26 76.9733 162.26ZM93.5887 184.118C93.2046 184.406 92.6283 184.885 91.956 185.173C91.3798 185.461 90.8035 185.652 90.2272 185.652L77.6456 162.068C78.2218 161.493 79.2783 160.726 80.7189 160.055C81.7754 159.575 82.7359 159.288 83.7923 159.096L93.5887 184.118Z" fill="url(#paint2_linear)"/>
<path d="M93.5887 184.118L94.5492 183.927C94.5492 183.927 93.1085 186.515 89.4589 186.323L90.2272 185.748C90.2272 185.748 92.052 185.556 93.5887 184.118Z" fill="#E5E2FF"/>
<path opacity="0.62" d="M76.9733 162.26L77.7416 162.164C77.7416 162.164 79.8545 159.959 83.8883 159.288L84.4646 158.808C84.4646 158.808 82.8319 158.521 80.3348 159.671C77.7416 160.822 76.9733 162.26 76.9733 162.26Z" fill="url(#paint3_linear)"/>
<path opacity="0.62" d="M73.6118 160.055C73.6118 160.055 79.6625 159 84.8488 154.878L86.4816 158.808C86.4816 158.808 84.6567 156.987 80.5269 158.617C75.7247 160.534 76.0128 164.369 76.0128 164.369L73.6118 160.055Z" fill="url(#paint4_linear)"/>
<path opacity="0.5" d="M86.4815 158.808C85.329 157.945 83.9844 157.945 83.9844 157.945L96.1819 187.282L97.6225 185.748L86.4815 158.808Z" fill="url(#paint5_linear)"/>
<path d="M86.4816 158.808C86.4816 158.808 85.233 162.739 88.8826 164.56L86.4816 158.808Z" fill="white"/>
<path d="M269.54 348.346H224.4C219.693 322.173 208.648 288.043 208.648 288.043C205.959 286.509 200.773 288.427 200.773 288.427L184.35 348.346H143.147C140.938 311.34 161.203 269.444 161.203 269.444C161.107 269.348 160.531 268.006 160.627 267.143C160.723 266.76 161.395 266.088 162.164 265.322C163.316 264.267 164.565 263.308 164.565 263.308L241.495 262.829C241.495 262.829 242.264 263.212 243.224 263.788C244.953 264.842 247.162 266.376 247.162 267.527C247.162 269.061 246.489 270.115 246.393 270.403V270.499C262.913 301.465 269.54 348.346 269.54 348.346Z" fill="url(#paint6_linear)"/>
<path opacity="0.5" d="M181.276 321.406C175.802 345.278 163.796 362.919 154.48 360.81C145.164 358.7 142.187 337.609 147.661 313.641C153.135 289.769 165.141 272.128 174.457 274.237C183.773 276.443 186.847 297.534 181.276 321.406Z" fill="url(#paint7_radial)"/>
<path opacity="0.5" d="M260.992 312.49C267.619 336.075 265.602 357.358 256.382 359.851C247.258 362.44 234.388 345.374 227.761 321.694C221.134 298.11 223.151 276.826 232.371 274.334C241.591 271.841 254.365 288.906 260.992 312.49Z" fill="url(#paint8_radial)"/>
<path d="M178.971 348.346L178.491 348.25C183.773 317.38 197.027 291.494 197.219 291.207L197.315 291.111L200.677 288.139L200.965 288.522L197.603 291.494C197.027 292.741 184.157 318.146 178.971 348.346Z" fill="url(#paint9_linear)"/>
<path d="M230.546 348.346C225.36 318.051 212.106 292.453 211.53 291.303L208.552 288.618L208.841 288.235L211.914 291.015C212.01 291.303 225.744 317.38 230.93 348.251L230.546 348.346Z" fill="url(#paint10_linear)"/>
<path opacity="0.76" d="M247.258 267.527C247.258 269.061 246.586 270.115 246.489 270.403V270.499C230.45 274.142 218.253 289.002 218.253 289.002C226.993 305.683 241.495 348.346 241.495 348.346H224.4C219.693 322.173 208.648 288.043 208.648 288.043C205.959 286.509 200.773 288.427 200.773 288.427L184.35 348.346H173.689C177.53 323.228 188.768 292.645 188.768 292.645C177.626 279.798 161.203 269.444 161.203 269.444L159.282 268.198L160.723 267.143C167.83 273.95 190.88 282.866 191.553 283.154L162.26 265.322C163.412 264.267 164.661 263.308 164.661 263.308L241.591 262.829C241.591 262.829 242.36 263.212 243.32 263.788L222.287 275.292L247.258 267.527Z" fill="url(#paint11_linear)"/>
<path opacity="0.76" d="M208.745 288.043L217.677 282.291L215.564 288.043L214.027 305.588L208.745 288.043Z" fill="url(#paint12_linear)"/>
<path opacity="0.76" d="M200.869 288.427L191.457 283.154L171.48 274.142L196.931 291.015L198.468 296.959L200.869 288.427Z" fill="url(#paint13_linear)"/>
<path d="M226.609 108.284C226.705 108.667 226.705 108.955 226.705 108.955C226.224 110.872 225.648 112.694 225.072 114.419C223.151 119.788 220.846 123.623 219.117 126.02C217.58 128.129 216.524 129.088 216.524 129.088C202.502 124.678 195.587 110.968 192.993 104.257V104.161C192.513 102.915 192.129 101.86 191.937 101.189C191.745 100.614 191.649 100.326 191.649 100.326C191.745 100.23 191.745 100.039 191.841 99.9428V99.847C192.033 99.3676 192.321 98.8883 192.513 98.4089C194.338 94.3823 195.587 90.6433 196.355 87.6713C197.027 85.1786 197.411 83.2612 197.603 82.2066C197.7 81.6314 197.7 81.3438 197.7 81.3438L204.23 84.7951L226.705 96.6832C226.32 98.6965 226.224 100.71 226.224 102.34C226.224 103.586 226.224 104.641 226.32 105.503C226.416 106.654 226.512 107.517 226.609 108.092C226.512 108.284 226.609 108.284 226.609 108.284Z" fill="#FE9083"/>
<path d="M220.366 130.526C219.021 131.772 217.58 132.923 215.756 133.882C215.756 133.882 215.66 133.882 215.66 133.977C215.66 133.977 215.66 133.977 215.564 133.882C215.083 133.594 213.355 132.539 211.146 130.91C205.287 126.499 195.491 117.583 192.609 105.504C192.609 105.504 192.609 105.504 192.609 105.408C192.321 103.97 192.033 102.532 191.937 100.998C191.937 100.614 191.841 100.231 191.841 99.8472C191.841 99.8472 193.762 104.449 197.219 109.338C201.157 115.187 207.112 121.514 214.315 121.514C220.462 121.514 223.631 117.296 225.264 113.461C225.936 111.831 226.32 110.201 226.608 109.051C226.705 108.667 226.705 108.38 226.801 108.188C226.801 108.092 226.801 107.9 226.801 107.805C226.897 107.421 226.897 107.133 226.897 107.133C226.897 107.133 229.01 121.898 220.366 130.526Z" fill="url(#paint14_linear)"/>
<path opacity="0.5" d="M220.366 130.526C219.021 131.772 217.58 132.923 215.756 133.882H215.564H215.468C214.987 133.594 213.259 132.539 211.05 130.91C205.191 126.499 195.395 117.583 192.513 105.504C192.513 105.504 192.513 105.504 192.513 105.408C192.225 103.97 191.937 102.532 191.841 100.998C191.841 100.614 191.745 100.231 191.745 99.8472C191.745 99.8472 193.666 104.449 197.123 109.338C197.123 109.338 200.965 119.98 209.417 125.253C213.643 127.938 216.812 127.554 219.117 125.924C221.422 124.39 222.959 121.706 223.919 119.693C224.784 117.679 225.072 115.762 225.168 114.324C225.168 114.036 225.168 113.749 225.168 113.461C225.84 111.831 226.224 110.201 226.512 109.051C226.609 108.667 226.609 108.38 226.705 108.188C226.705 108.092 226.705 107.9 226.705 107.805C226.801 107.421 226.801 107.133 226.801 107.133C226.801 107.133 229.01 121.898 220.366 130.526Z" fill="url(#paint15_linear)"/>
<path d="M274.246 217.481C274.15 217.481 274.054 217.577 274.054 217.577C273.286 217.673 270.788 217.098 267.619 214.413C264.93 212.113 261.664 208.182 258.495 201.758C252.06 188.912 250.235 180.379 249.947 178.845V178.653L246.201 184.597C243.704 192.267 238.806 223.809 238.902 225.247C238.998 226.589 243.128 233.204 243.128 234.067C243.032 234.93 241.111 236.752 240.631 238.669C240.247 240.011 242.84 244.134 244.569 247.202C245.529 248.831 246.201 250.174 246.201 250.653C246.201 252.091 241.687 259.186 241.687 259.186V263.02L241.591 263.116L241.399 263.308L241.207 263.404C239.478 264.746 232.179 269.252 209.225 270.498C182.141 271.936 163.988 263.212 163.988 263.212L165.333 259.473C165.333 259.473 164.084 258.419 163.988 257.843C163.892 257.268 164.949 256.022 164.949 256.022C164.949 256.022 162.26 254.584 162.26 252.762C162.26 250.941 167.734 245.284 167.542 240.491C167.35 235.697 163.22 231.383 162.644 228.698C162.067 226.014 169.751 219.207 169.751 219.207C163.22 198.499 161.971 170.696 161.971 170.696L160.723 169.258C160.723 169.258 152.943 187.09 145.836 195.814C144.972 196.869 144.107 197.924 143.147 198.882C141.13 200.991 139.017 203.005 137 204.73C132.102 209.045 127.588 211.825 126.532 211.633C124.707 211.25 117.407 196.869 117.792 182.201C117.984 175.202 122.21 167.341 126.532 161.109C127.012 160.438 127.492 159.767 127.972 159.096C131.046 154.877 134.119 151.522 135.464 150.084C136.04 149.508 136.328 149.221 136.328 149.221C136.328 149.221 135.367 145.961 134.599 143.181C134.599 143.085 134.599 143.085 134.503 142.989V142.893C134.503 142.797 134.503 142.797 134.503 142.797C134.119 141.072 133.831 139.634 134.119 139.25C134.695 138.291 138.249 137.141 138.825 136.47C139.401 135.703 141.994 123.527 143.915 122.185C145.74 120.939 149.102 119.98 159.955 115.666C160.531 115.474 161.011 115.282 161.587 114.995C173.881 110.201 185.886 104.257 185.886 104.257L190.496 98.6006H192.513L191.841 100.039V100.135C192.129 101.573 192.513 103.011 192.993 104.353V104.449C199.332 124.39 215.66 130.813 215.66 130.813C226.993 122.473 226.801 109.242 226.801 109.242V107.421L228.914 108.092L230.354 111.543C230.354 111.543 232.851 115.378 242.552 119.596C244.28 120.363 246.009 121.226 247.93 122.377C256.862 127.458 266.755 135.224 267.523 136.853C267.619 137.045 267.715 137.333 267.811 137.716C268.868 141.839 270.98 157.178 272.997 162.643C274.246 166.094 276.263 167.916 277.704 168.97C278.76 169.737 279.528 169.929 279.528 169.929C279.72 170.792 279.816 171.655 279.913 172.422C284.042 198.403 276.071 216.235 274.246 217.481Z" fill="url(#paint16_linear)"/>
<path opacity="0.5" d="M169.751 167.916L161.875 170.6L160.627 169.162C160.627 169.162 152.847 186.994 145.74 195.719C144.876 196.773 144.011 197.828 143.051 198.787C141.034 200.896 138.921 202.909 136.904 204.635L130.853 178.654L127.78 158.904C130.853 154.686 133.927 151.33 135.271 149.892C135.848 149.317 136.136 149.029 136.136 149.029C136.136 149.029 135.175 145.77 134.407 142.989C134.407 142.893 134.407 142.893 134.311 142.798V142.702C134.311 142.606 134.311 142.606 134.311 142.606C133.927 140.88 133.639 139.442 133.927 139.059C134.503 138.1 138.057 136.949 138.633 136.278C139.209 135.511 141.802 123.336 143.723 121.993C143.723 121.993 142.475 133.786 149.198 148.646L152.463 153.248L162.067 160.917C162.164 160.821 165.813 165.711 169.751 167.916Z" fill="url(#paint17_linear)"/>
<path d="M146.797 189.104C145.068 201.663 126.339 211.346 126.339 211.346C122.114 211.346 117.503 204.06 113.278 195.144C109.052 186.132 108.764 160.438 108.571 158.808C108.379 157.178 105.978 154.015 105.882 152.672C105.786 151.33 109.724 148.454 109.724 148.454V148.358V148.262C109.34 147.399 106.939 142.414 107.131 141.455C107.323 140.497 111.741 138.292 111.741 138.292L112.029 143.181C112.029 143.181 122.402 141.264 125.859 133.21L126.435 130.718L128.164 131.868V142.414C128.164 142.414 128.548 144.044 129.029 144.044C129.605 144.044 133.639 142.031 134.407 142.318C135.271 142.606 136.136 148.262 137.192 148.933C138.345 149.7 141.322 151.714 141.802 152.768C141.994 153.248 141.994 154.877 142.091 156.699C142.091 159 142.091 161.78 142.475 163.314C143.051 166.478 148.525 176.544 146.797 189.104Z" fill="url(#paint18_linear)"/>
<path d="M318.714 178.366C317.85 179.708 313.624 182.488 312.567 183.543C311.511 184.598 312.567 188.241 312.567 188.241C294.703 207.127 276.167 216.619 274.246 217.482C274.15 217.482 274.054 217.577 274.054 217.577C262.817 210.099 263.777 197.732 267.523 187.282C271.077 177.311 277.127 169.066 277.415 168.683C277.607 168.587 280.777 167.245 283.082 167.149C283.85 167.053 284.523 167.437 285.195 167.82C286.539 168.683 287.692 170.025 288.844 169.45C290.477 168.587 294.127 159.959 296.624 159.767C298.353 159.575 300.754 161.397 302.387 162.355C303.059 162.835 303.635 163.122 303.923 163.026C304.884 162.739 307.957 159.096 308.149 159C308.437 158.904 309.782 159.959 309.782 159.959L308.821 161.205C310.358 169.929 315.352 175.777 315.352 175.777L318.714 170.888C318.714 170.792 319.578 177.024 318.714 178.366Z" fill="url(#paint19_linear)"/>
<path d="M226.609 107.996C226.609 108.092 226.609 108.284 226.512 108.38C226.512 108.667 226.416 108.859 226.32 109.147C225.168 113.365 220.558 117.679 214.699 115.666C208.36 113.365 196.163 87.7672 196.163 87.7672L197.411 82.3025L226.224 105.695L226.512 107.9L226.609 107.996Z" fill="#CB4D7A"/>
<path d="M130.853 103.298C130.853 103.298 129.125 93.6154 129.893 86.425C130.661 79.2347 129.701 71.1815 129.701 71.1815C129.701 71.1815 127.972 70.4145 126.724 71.1815C125.475 71.9484 122.498 79.3305 123.842 85.2746C125.187 91.2186 124.13 105.408 124.13 105.408H122.114L117.792 99.3677L115.679 98.7925C115.679 98.7925 103.481 110.297 103.673 117.104L105.306 123.144L120.385 122.664L130.181 111.448L130.853 103.298Z" fill="#EE8183"/>
<path d="M115.583 98.7926C115.583 98.7926 115.871 106.462 117.6 112.982C117.6 112.982 117.311 115.666 114.142 115.858L113.374 114.995C113.374 114.995 112.797 118.063 110.012 118.255L107.419 115.666L108.091 117.871C108.091 117.871 107.131 120.172 104.634 120.076C104.634 120.076 100.408 116.816 100.216 112.502L104.346 109.051V106.366L109.244 102.915L109.34 100.998C109.34 100.902 112.221 98.6967 115.583 98.7926Z" fill="url(#paint20_linear)"/>
<path opacity="0.6" d="M130.085 84.4119C130.085 84.4119 129.317 86.2334 128.26 87.0004C127.204 87.7674 124.227 88.2467 124.227 88.2467L124.13 105.408H122.114L117.792 99.3679C117.792 99.3679 120.001 102.819 120.097 105.408L118.368 106.271L116.831 101.094L116.159 104.833L116.831 109.434C116.831 109.434 119.424 107.229 124.13 107.133L124.803 108.38C124.803 108.38 116.351 115.378 114.334 119.501C114.334 119.501 118.56 114.228 128.068 108.284L128.933 105.504L130.181 98.7926C130.181 98.7926 129.029 89.1096 130.085 84.4119Z" fill="url(#paint21_linear)"/>
<path d="M137.192 114.228C136.424 116.625 128.164 126.404 127.204 128.513C126.243 130.622 125.763 133.402 125.763 133.402C121.729 142.127 111.933 143.373 111.933 143.373L111.453 135.511C111.453 135.511 106.17 132.444 105.306 130.814L105.21 130.526C104.922 128.992 105.21 123.24 105.21 123.24L114.43 119.501C118.464 114.324 128.164 108.38 128.164 108.38L128.644 105.695C121.633 102.244 122.786 91.8899 124.034 90.6436C125.187 89.3972 127.396 89.3972 127.396 89.3972C127.396 89.3972 129.989 97.7381 131.622 101.669C133.062 105.408 137.961 111.831 137.192 114.228Z" fill="url(#paint22_linear)"/>
<path d="M109.34 100.902C109.34 100.902 110.396 110.393 113.374 114.995C113.374 114.995 109.532 110.201 109.244 102.915L109.34 100.902Z" fill="#E28183"/>
<path d="M104.346 106.271C104.346 106.271 105.306 113.94 110.108 118.254C110.108 118.254 105.882 116.145 104.346 108.955V106.271Z" fill="#E28183"/>
<path opacity="0.91" d="M128.452 126.499C128.452 126.499 118.08 136.566 111.357 135.511L111.837 143.373C111.837 143.373 122.786 142.414 126.339 130.909C126.339 131.005 127.588 127.65 128.452 126.499Z" fill="url(#paint23_linear)"/>
<path d="M348.487 140.209C348.487 140.209 338.979 157.658 327.742 163.026H323.9L315.064 176.353C315.064 176.353 309.398 172.805 308.918 161.013C308.918 161.013 310.934 158.904 311.415 156.603C311.415 156.603 308.245 154.11 307.381 152.289C306.516 150.467 306.228 145.003 305.652 142.798C305.076 140.593 299.889 135.895 298.737 135.32C297.584 134.744 292.398 134.457 292.398 134.457C292.398 134.457 291.63 132.539 292.398 131.676C293.166 130.814 301.234 127.65 305.652 130.622C305.652 130.622 305.94 132.923 306.42 134.169C306.901 135.415 310.838 139.634 311.415 139.634C311.991 139.634 314.68 137.429 315.833 135.799C316.889 134.169 322.844 121.514 324.188 117.296V117.2C324.188 117.104 324.188 117.104 324.284 117.008C324.284 116.912 324.284 116.912 324.284 116.912C324.284 116.912 324.284 116.912 324.284 116.816C325.341 113.077 331.776 106.079 335.137 104.065C335.137 104.065 336.578 103.682 337.346 105.503C337.346 105.503 334.657 113.269 331.776 117.871C331.296 118.638 330.815 119.597 330.239 120.555C327.838 125.061 325.053 130.814 324.669 131.676V131.772L326.205 132.539L330.335 128.609L334.561 124.678L344.261 134.84L343.301 136.087L340.324 139.921L341.86 140.209L345.414 136.278L348.487 140.209Z" fill="url(#paint24_linear)"/>
<path opacity="0.6" d="M346.182 143.948L343.109 148.454C343.109 148.454 326.301 135.511 322.748 134.457C319.098 133.402 317.753 134.073 317.753 134.073L314.008 138.867C314.008 138.867 320.923 145.003 321.499 153.248C321.499 153.248 319.194 142.798 311.319 139.634C311.895 139.634 314.584 137.429 315.737 135.799C316.793 134.169 322.748 121.514 324.092 117.296C323.9 118.063 323.612 119.405 324.284 120.555C325.149 122.089 329.951 120.651 330.239 120.555L324.669 131.676V131.772L326.205 132.539L330.335 128.609L328.318 133.402L343.301 136.087L340.324 139.921L341.86 140.209L346.182 143.948Z" fill="url(#paint25_linear)"/>
<path d="M334.561 124.678C334.561 124.678 337.442 124.294 339.363 128.033L338.979 129.28C338.979 129.28 341.86 129.855 344.549 134.457C344.549 134.457 342.148 138.867 336.098 140.88C336.098 140.88 333.312 140.113 332.832 137.716L333.409 136.182L331.2 137.812C331.2 137.812 328.606 138.579 327.454 134.744L334.561 124.678Z" fill="url(#paint26_linear)"/>
<path d="M349.352 138.963C349.352 138.963 349.928 136.183 346.951 134.361L341.188 140.689C341.188 140.689 341.38 142.702 343.877 143.181C343.877 143.277 347.815 141.935 349.352 138.963Z" fill="url(#paint27_linear)"/>
<path opacity="0.91" d="M307.381 152.289C307.381 152.289 314.104 159.767 323.804 162.93L319.578 169.354L310.742 158.233L311.319 156.603C311.415 156.603 307.861 153.918 307.381 152.289Z" fill="url(#paint28_linear)"/>
<path d="M338.883 129.184C338.883 129.184 336.098 133.785 333.312 136.086L332.736 137.62C332.736 137.62 338.115 133.977 340.132 129.759C340.132 129.759 339.555 129.279 338.883 129.184Z" fill="#E28183"/>
<path opacity="0.5" d="M318.714 178.366C317.85 179.708 313.624 182.489 312.567 183.543C311.511 184.598 312.567 188.241 312.567 188.241C294.703 207.128 276.167 216.619 274.246 217.482C274.15 217.482 274.054 217.578 274.054 217.578C272.613 217.769 265.506 215.756 258.399 201.567C251.964 188.72 250.139 180.188 249.851 178.654V178.462L251.388 176.353L253.693 150.18L255.325 155.453C261.472 147.975 267.331 136.566 267.331 136.566L267.619 137.429C268.675 141.551 270.788 156.891 272.805 162.356C274.054 165.807 276.071 167.629 277.511 168.683C271.845 173.86 268.964 181.338 267.619 187.282C266.37 192.747 266.274 196.869 266.274 196.869C266.274 196.869 267.811 189.487 272.805 180.571C274.63 177.312 277.223 174.435 279.816 172.039C281.737 170.217 283.754 168.779 285.291 167.629C286.635 168.491 287.788 169.834 288.941 169.258C281.449 180.475 281.641 202.718 288.652 198.499C295.664 194.281 297.296 185.269 297.296 185.269C295.664 174.34 296.144 161.972 297.488 159.575C299.121 159.671 303.731 162.931 304.019 162.835C303.539 175.778 309.686 184.406 309.686 184.406L313.72 178.27C307.861 168.491 308.341 158.904 308.341 158.904C308.629 158.808 309.974 159.863 309.974 159.863L309.014 161.109C310.55 169.834 315.545 175.682 315.545 175.682L318.906 170.792C318.714 170.792 319.578 177.024 318.714 178.366Z" fill="url(#paint29_linear)"/>
<path opacity="0.5" d="M241.495 258.994V262.829L241.399 262.925L241.207 263.117L241.015 263.213C239.286 264.555 231.987 269.061 209.033 270.307C181.948 271.745 163.796 263.021 163.796 263.021L165.141 259.282C165.141 259.282 163.892 258.227 163.796 257.652C163.7 257.077 164.757 255.83 164.757 255.83C164.757 255.83 162.068 254.392 162.068 252.571C162.068 250.941 166.486 246.147 167.254 241.737C167.35 241.258 167.35 240.779 167.35 240.299C167.158 235.506 163.028 231.287 162.452 228.507C161.875 225.823 169.559 219.016 169.559 219.016C163.028 198.307 161.779 170.505 161.779 170.505L160.531 169.067C160.531 169.067 152.751 186.899 145.644 195.623C138.537 204.347 128.164 211.825 126.339 211.442C122.114 211.442 117.503 204.156 113.278 195.24C109.052 186.228 108.764 160.534 108.571 158.904C108.379 157.274 105.978 154.111 105.882 152.768C110.396 160.534 117.696 158.329 117.696 158.329C112.413 158.425 109.724 148.646 109.724 148.646V148.55V148.454L107.131 141.647C107.419 141.935 113.47 148.646 119.232 144.523C125.187 140.305 128.26 132.06 128.26 132.06V142.606C128.26 142.606 128.644 144.236 129.125 144.236C128.741 149.125 127.78 154.973 126.532 160.822C123.842 173.381 120.097 185.556 120.097 185.556C120.097 185.556 130.085 180.092 133.639 166.286C135.368 159.671 135.56 153.919 135.464 149.796C135.368 146.249 134.887 143.756 134.695 142.894C134.695 142.798 134.695 142.798 134.599 142.702V142.606C134.599 142.606 134.599 142.606 134.599 142.51L135.56 144.523L137.384 149.125C139.497 166.861 135.079 193.514 135.079 193.514C141.514 185.556 142.859 167.82 142.571 163.506C142.475 161.493 142.283 158.904 142.187 156.891C141.994 154.59 141.898 152.96 141.898 152.96L155.056 160.822L152.655 153.152L162.26 160.822C162.26 160.822 170.904 171.176 179.739 172.422C188.575 173.668 221.134 172.901 221.134 172.901C221.134 172.901 192.897 174.723 184.638 177.12C176.378 179.517 174.841 182.297 174.841 182.297C180.796 212.592 213.835 222.755 214.795 223.138C184.83 218.632 170.904 193.226 170.904 193.226C170.904 193.226 170.423 207.511 172.728 212.976C175.033 218.44 188.672 231.767 206.055 234.547C207.496 234.739 208.937 234.93 210.377 235.026C225.072 235.697 237.269 228.219 238.518 227.357C238.614 227.261 238.614 227.261 238.614 227.261C238.134 228.028 232.083 236.464 207.688 237.423C206.247 237.519 204.807 237.519 203.366 237.423C180.796 236.464 169.271 221.412 169.271 221.412C169.271 221.412 160.915 225.918 166.197 232.534C166.293 232.629 166.293 232.725 166.389 232.725C167.926 234.547 171.48 236.752 175.514 239.053C175.61 239.149 175.706 239.149 175.802 239.245C180.796 242.025 186.559 244.805 191.073 247.106C191.073 247.106 191.073 247.106 191.169 247.106C193.954 248.544 196.163 249.79 197.411 250.653C198.66 251.612 198.948 252.187 197.7 252.283C191.361 253.05 167.446 247.777 166.486 249.215C165.525 250.653 167.638 254.392 167.638 254.392C189.536 265.226 236.501 259.857 238.038 259.761C198.756 270.019 166.582 257.268 166.582 257.268L167.638 261.007C167.638 261.007 185.118 267.047 205.767 267.527C226.416 268.006 239.286 262.733 239.286 262.733L241.495 258.994Z" fill="url(#paint30_linear)"/>
<path opacity="0.5" d="M225.456 172.805C225.456 172.805 241.111 173.668 251.388 176.353L246.105 184.406C246.105 184.406 238.038 177.407 225.456 172.805Z" fill="url(#paint31_linear)"/>
<path opacity="0.5" d="M240.055 215.756C240.055 215.756 230.354 223.905 220.75 227.644C211.146 231.383 201.925 231.766 201.925 231.766C201.925 231.766 207.4 233.396 221.038 231.191C234.58 228.986 239.19 221.7 239.19 221.7L240.055 215.756Z" fill="url(#paint32_linear)"/>
<path opacity="0.5" d="M244.473 247.01C226.416 251.708 203.558 244.997 203.75 244.134C203.942 243.271 209.993 244.517 224.111 241.641C237.75 238.861 242.744 234.067 243.032 233.78C242.936 234.643 241.015 236.464 240.535 238.382C240.055 239.82 242.648 243.942 244.473 247.01Z" fill="url(#paint33_linear)"/>
<path opacity="0.5" d="M195.394 175.202C180.028 176.736 175.802 181.05 175.802 181.05C171.48 181.626 161.779 170.504 161.779 170.504L160.531 169.066C160.531 169.066 152.751 186.899 145.644 195.623C144.78 196.677 143.915 197.732 142.955 198.691L144.011 196.39C144.011 196.39 145.644 195.623 146.124 186.899C146.605 178.27 142.475 165.327 142.475 163.602C142.475 161.876 141.802 152.96 141.802 152.96L154.96 160.821L152.559 153.152L162.164 160.821C162.164 160.821 165.909 166.478 175.418 171.176C184.35 175.586 194.338 175.298 195.394 175.202Z" fill="url(#paint34_linear)"/>
<path opacity="0.5" d="M160.531 169.066L169.751 167.916C169.751 167.916 173.401 170.313 180.796 173.381L174.649 182.393C174.649 182.393 177.05 195.239 184.061 202.526C184.061 202.526 165.525 192.267 162.932 183.543L160.531 169.066Z" fill="url(#paint35_linear)"/>
<path opacity="0.5" d="M106.939 141.647L109.532 148.55C109.532 148.55 112.221 157.85 117.503 158.233C122.786 158.617 127.972 142.606 127.972 142.606V132.06C127.972 132.06 122.306 144.14 116.255 145.482C110.204 146.92 106.939 141.647 106.939 141.647Z" fill="url(#paint36_linear)"/>
<path opacity="0.5" d="M138.729 136.183C138.729 136.183 143.435 145.578 149.294 148.55C149.294 148.55 142.379 131.772 143.819 121.898C143.819 121.898 141.226 123.528 138.729 136.183Z" fill="url(#paint37_linear)"/>
<path opacity="0.76" d="M253.693 150.18L255.325 155.453L256.958 198.691C256.958 198.691 252.732 190.446 249.851 178.749L251.388 176.448C251.388 176.353 253.981 160.054 253.693 150.18Z" fill="url(#paint38_linear)"/>
<path opacity="0.5" d="M304.019 162.931C304.019 162.931 303.059 184.118 312.087 185.94L312.567 188.241C312.567 188.241 300.85 187.761 304.019 162.931Z" fill="url(#paint39_linear)"/>
<path opacity="0.3" d="M288.941 169.354C288.941 169.354 288.556 170.121 285.291 167.724C285.291 167.724 273.958 175.778 269.54 187.09C269.54 187.09 276.551 176.64 280.297 175.586C284.042 174.435 284.907 178.654 284.907 178.654C284.907 178.654 286.443 172.71 288.941 169.354Z" fill="url(#paint40_linear)"/>
<path opacity="0.5" d="M105.786 152.768C105.786 152.768 110.204 160.821 118.368 158.329C118.368 158.329 113.47 161.588 108.571 158.904C108.475 158.904 105.498 153.631 105.786 152.768Z" fill="url(#paint41_linear)"/>
<path opacity="0.5" d="M134.407 142.606C134.407 142.606 140.458 165.04 124.707 181.913C124.707 181.913 134.887 176.736 137.192 164.656C139.497 152.481 134.407 142.606 134.407 142.606Z" fill="url(#paint42_linear)"/>
<path opacity="0.5" d="M242.072 124.582C242.072 124.582 241.399 134.745 236.501 141.935C231.603 149.221 221.998 154.111 221.998 154.111C221.998 154.111 234.1 149.701 239.67 143.373C245.241 137.237 242.072 124.582 242.072 124.582Z" fill="url(#paint43_linear)"/>
<path opacity="0.5" d="M180.22 109.435C180.22 109.435 180.22 117.871 182.909 126.5C185.598 135.128 209.321 150.18 209.321 150.18C209.321 150.18 184.926 140.018 180.124 130.91C175.514 121.898 180.22 109.435 180.22 109.435Z" fill="url(#paint44_linear)"/>
<path d="M179.932 149.7V163.506C179.932 163.506 211.722 163.218 247.354 165.615L248.122 153.248C248.218 153.152 217.196 149.509 179.932 149.7Z" fill="url(#paint45_linear)"/>
<path d="M185.79 152.864C185.79 152.672 185.886 152.48 186.174 152.48L192.609 152.672C193.282 152.672 193.762 152.768 194.242 152.96C194.722 153.152 195.01 153.343 195.298 153.631C195.587 153.919 195.779 154.302 195.875 154.686C195.971 155.069 196.067 155.548 196.067 156.124L195.971 157.849C195.971 158.329 195.875 158.808 195.779 159.287C195.683 159.671 195.394 160.054 195.106 160.342C194.818 160.63 194.434 160.821 193.954 161.013C193.474 161.205 192.993 161.205 192.321 161.205L188.864 161.109L188.191 159.096H188.095L187.999 161.109L185.598 161.013L185.79 152.864ZM188.095 158.904L192.225 159C192.705 159 192.993 158.904 193.185 158.712C193.378 158.52 193.474 158.137 193.474 157.658V156.219C193.474 155.644 193.378 155.357 193.185 155.165C192.993 154.973 192.705 154.877 192.225 154.877L188.287 154.781C188.191 154.781 188.191 154.781 188.191 154.877L188.095 154.973V158.904Z" fill="#EBEFFF"/>
<path d="M199.524 156.507L199.332 159.096C199.332 159.191 199.428 159.287 199.524 159.287L206.728 159.479L206.631 161.684L197.123 161.397C196.931 161.397 196.739 161.301 196.835 161.013L197.027 153.152C197.027 152.96 197.123 152.768 197.411 152.768L206.631 153.056C206.824 153.056 207.016 153.152 207.016 153.439L206.92 155.644L204.615 156.411H204.519V155.261C204.519 155.165 204.519 155.165 204.422 155.165L199.524 154.973C199.428 154.973 199.428 154.973 199.428 155.069V155.165V156.219L203.462 156.315L203.366 158.041L200.005 157.945L199.524 156.507Z" fill="#EBEFFF"/>
<path d="M215.564 156.411L215.468 155.453C215.468 155.357 215.468 155.357 215.371 155.261L210.857 155.165C210.665 155.165 210.569 155.165 210.473 155.261C210.377 155.357 210.377 155.453 210.377 155.549V155.74C210.377 155.932 210.377 156.028 210.473 156.028C210.569 156.124 210.665 156.124 210.761 156.124L216.044 156.987C216.428 157.082 216.62 157.082 216.908 157.274C217.1 157.37 217.292 157.562 217.484 157.658C217.677 157.849 217.773 158.041 217.773 158.233C217.869 158.425 217.869 158.712 217.869 159.096V159.767C217.869 160.15 217.773 160.438 217.677 160.726C217.58 161.013 217.388 161.205 217.196 161.397C217.004 161.588 216.716 161.684 216.428 161.78C216.14 161.876 215.66 161.876 215.275 161.876L207.592 161.684L207.688 159.479L214.507 159.671C214.699 159.671 214.891 159.671 214.891 159.575C214.987 159.479 214.987 159.383 214.987 159.192V159C214.987 158.808 214.987 158.712 214.891 158.712C214.795 158.616 214.699 158.616 214.603 158.616L209.513 157.849C209.129 157.754 208.841 157.754 208.648 157.658C208.36 157.562 208.168 157.466 208.072 157.274C207.88 157.082 207.784 156.891 207.784 156.699C207.688 156.507 207.688 156.22 207.688 155.836V155.261C207.688 154.686 207.88 154.206 208.264 153.823C208.648 153.535 209.129 153.344 209.897 153.344L217.484 153.535C217.773 153.535 217.869 153.631 217.869 153.919L217.773 155.644L215.564 156.411Z" fill="#EBEFFF"/>
<path d="M218.829 162.067L219.117 153.535L221.518 153.631L221.23 162.163L218.829 162.067Z" fill="#EBEFFF"/>
<path d="M230.258 158.712C230.258 158.616 230.258 158.425 230.258 158.329C230.258 158.233 230.258 158.041 230.258 157.945V157.849L232.659 157.945L232.563 162.164C232.563 162.355 232.467 162.451 232.275 162.451L225.84 162.259C225.168 162.259 224.688 162.164 224.207 161.972C223.727 161.78 223.439 161.588 223.151 161.301C222.863 161.013 222.671 160.63 222.575 160.246C222.479 159.863 222.383 159.383 222.383 158.808L222.479 157.082C222.479 156.603 222.575 156.124 222.671 155.644C222.767 155.261 223.055 154.877 223.343 154.59C223.631 154.302 224.015 154.11 224.496 153.919C224.976 153.727 225.456 153.727 226.128 153.727L232.563 153.919C232.755 153.919 232.947 154.014 232.851 154.302L232.755 156.124L230.45 156.891H230.354V156.028C230.354 155.932 230.354 155.932 230.258 155.932L226.128 155.836C225.936 155.836 225.648 155.836 225.552 155.836C225.36 155.836 225.264 155.932 225.168 156.028C225.072 156.124 224.976 156.315 224.976 156.411C224.88 156.603 224.88 156.795 224.88 157.082V158.616C224.88 159.096 224.976 159.479 225.168 159.671C225.36 159.863 225.648 159.958 226.128 160.054L230.162 160.15C230.258 160.15 230.258 160.15 230.258 160.054V158.712Z" fill="#EBEFFF"/>
<path d="M237.75 154.11C237.942 154.11 238.038 154.11 238.134 154.206C238.23 154.302 238.23 154.398 238.326 154.494L241.399 160.725C241.495 160.821 241.495 160.917 241.591 160.917H241.687C241.783 160.917 241.879 160.821 241.879 160.725L242.071 154.302L244.28 154.398L243.992 162.643C243.992 162.834 243.896 163.026 243.608 162.93L240.151 162.834C239.959 162.834 239.862 162.834 239.766 162.739C239.67 162.643 239.574 162.643 239.574 162.451L236.405 156.219C236.405 156.124 236.309 156.028 236.213 156.028H236.117C236.021 156.028 235.925 156.124 235.925 156.219L235.733 162.643L233.524 162.547L233.812 154.302C233.812 154.11 233.908 153.918 234.196 153.918L237.75 154.11Z" fill="#EBEFFF"/>
<path opacity="0.5" d="M230.258 111.256C229.49 120.172 226.801 126.403 223.919 130.622C219.886 136.374 215.564 138.291 215.564 138.291C211.242 136.374 207.496 134.073 204.23 131.485C190.496 120.555 186.078 105.407 185.79 104.161C191.553 118.063 200.101 126.595 206.536 131.293C211.722 135.128 215.564 136.566 215.564 136.566V132.156C214.507 131.772 213.547 131.293 212.586 130.813C201.253 125.061 195.298 113.173 192.513 105.503C192.513 105.503 192.513 105.503 192.513 105.408C190.977 101.285 190.4 98.313 190.4 98.313H192.417L191.745 99.7511V99.8469C192.033 101.285 192.417 102.723 192.897 104.065V104.161C199.236 124.102 215.564 130.526 215.564 130.526C226.897 122.185 226.705 108.955 226.705 108.955V107.133L228.818 107.804L230.258 111.256Z" fill="url(#paint46_linear)"/>
<path opacity="0.3" d="M297.488 159.671C297.488 159.671 294.415 169.737 297.296 185.365C297.296 185.365 298.737 165.519 299.889 163.793C300.946 162.068 304.019 162.931 304.019 162.931C304.019 162.931 299.217 160.246 297.488 159.671Z" fill="url(#paint47_linear)"/>
<path opacity="0.5" d="M267.619 214.318C264.93 212.017 261.664 208.086 258.495 201.663C252.06 188.816 250.235 180.283 249.947 178.75L251.484 176.449L253.501 156.699L255.421 155.549C255.421 155.549 262.241 148.071 267.427 136.662C267.523 136.854 267.619 137.141 267.715 137.525C268.771 141.647 270.884 156.987 272.901 162.451C274.15 165.903 276.167 167.724 277.607 168.779C277.607 168.779 265.794 186.323 265.218 198.787C264.546 210.004 267.139 213.743 267.619 214.318Z" fill="url(#paint48_linear)"/>
<path opacity="0.5" d="M197.411 250.845C197.411 250.845 176.09 247.394 167.446 241.737C167.542 241.258 167.542 240.778 167.542 240.299C167.35 235.505 163.22 231.287 162.644 228.507C162.74 228.794 163.412 230.233 166.389 232.821C168.31 234.451 171.192 236.56 175.514 239.149C175.61 239.244 175.706 239.244 175.802 239.34C181.948 242.983 187.231 245.38 191.073 247.202C191.073 247.202 191.073 247.202 191.169 247.202C194.53 248.832 196.835 249.886 197.411 250.845Z" fill="url(#paint49_linear)"/>
<path opacity="0.5" d="M242.936 233.876C242.84 234.739 240.919 236.56 240.439 238.478C240.439 238.478 232.659 246.723 203.654 244.23C203.846 243.367 209.897 244.613 224.015 241.737C237.75 239.053 242.648 234.163 242.936 233.876Z" fill="url(#paint50_linear)"/>
<path opacity="0.5" d="M247.834 122.089L229.298 128.033L223.919 130.526H220.366H215.564L212.586 130.814L211.05 130.91L206.535 131.293L204.23 131.485L182.044 123.432L178.107 121.993L159.859 115.378C160.435 115.187 160.915 114.995 161.491 114.707C173.785 109.914 185.79 103.97 185.79 103.97L190.4 98.3132H192.417C194.242 94.2866 195.491 90.5476 196.259 87.5756L197.507 82.1109C197.603 81.5357 197.603 81.248 197.603 81.248L204.134 84.6994L226.128 102.244C226.128 103.49 226.128 104.545 226.224 105.408L226.512 107.613C226.608 107.229 226.609 106.942 226.609 106.942L228.721 107.613L230.162 111.064C230.162 111.064 232.659 114.899 242.36 119.117C244.088 120.076 245.913 121.035 247.834 122.089Z" fill="#7A4AC0"/>
<path d="M233.716 105.216C233.716 105.216 225.072 107.133 215.564 102.531C206.055 97.9296 198.084 84.4117 197.507 80.9603C197.027 77.6048 201.157 68.6887 201.157 61.786C201.157 54.8832 197.796 42.9951 203.462 36.5717C209.129 30.1483 235.348 29.1896 243.896 37.4346C243.896 37.4346 246.489 44.0497 246.489 47.7887C246.489 48.6515 246.297 49.9937 246.105 51.5277C246.009 52.1029 245.913 52.6782 245.817 53.3493C245.049 57.8552 243.992 63.4158 244.473 65.8126C244.665 66.6754 244.953 67.4424 245.241 68.2094C246.297 70.6061 247.834 72.5236 248.122 74.6328C248.506 77.3172 244.857 96.7791 233.716 105.216Z" fill="url(#paint51_linear)"/>
<path d="M201.157 59.8686C201.157 59.8686 198.756 54.0204 192.897 53.9246C192.897 53.9246 189.44 55.2668 188.864 57.9512C188.864 57.9512 190.112 67.4425 191.553 71.9484C192.993 76.3585 198.372 75.7833 198.372 75.7833C198.372 75.7833 202.982 68.5929 201.157 59.8686Z" fill="url(#paint52_linear)"/>
<path d="M223.823 79.3306C223.823 79.3306 225.84 79.1389 226.609 79.81C227.473 80.4811 230.546 83.4531 234.484 84.2201C238.422 85.0829 241.015 81.7274 241.879 81.5357C242.744 81.3439 243.608 82.4944 243.608 82.4944C243.608 82.4944 243.224 81.1522 241.207 80.4811C241.207 80.4811 240.343 83.6448 234.676 82.4944C229.01 81.4398 226.609 78.9471 226.609 78.9471L226.32 78.4678C226.416 78.5636 224.784 78.8513 223.823 79.3306Z" fill="url(#paint53_linear)"/>
<path opacity="0.6" d="M215.467 49.9939L215.564 49.4187C215.564 49.4187 221.23 39.5439 232.371 39.2563C243.608 38.9686 246.105 45.9673 246.105 45.9673L248.218 42.8035L243.512 33.2163L210.665 32.6411L202.694 39.0645L201.637 54.8833L205.191 75.6875L213.835 80.2893L216.236 78.0843C215.371 71.0856 210.089 64.7581 210.089 64.7581L213.835 62.1696C213.835 62.1696 223.535 66.8673 229.202 65.4292C229.202 65.4292 233.428 53.0618 233.235 43.954C233.332 44.0498 218.829 46.159 215.467 49.9939Z" fill="url(#paint54_linear)"/>
<path d="M214.987 50.7608C214.987 50.7608 215.564 47.2136 221.614 45.7755C228.337 44.1457 233.812 42.8035 233.812 42.8035C233.812 42.8035 232.659 46.7342 230.354 48.1723C230.354 48.1723 223.247 47.8847 219.597 48.7475C216.044 49.5145 214.987 50.7608 214.987 50.7608Z" fill="#38368E"/>
<path d="M246.105 45.9673C246.105 45.9673 242.648 48.5558 240.343 54.8833C240.343 54.8833 242.552 52.0072 244.665 52.0072C246.105 52.0072 245.817 53.4453 245.817 53.4453C245.817 53.4453 247.258 49.6104 246.105 45.9673Z" fill="#38368E"/>
<path d="M217.196 60.8272C217.196 60.8272 217.58 53.2534 224.976 51.3359C224.976 51.3359 227.569 54.7873 227.857 58.6222C227.857 58.6222 224.015 57.9511 217.196 60.8272Z" fill="url(#paint55_linear)"/>
<path d="M238.326 63.7994C238.326 63.7994 238.902 57.7595 242.36 55.5544C242.36 55.5544 244.761 57.2801 244.473 62.3613C244.473 62.3613 242.456 61.5944 238.326 63.7994Z" fill="url(#paint56_linear)"/>
<path d="M217.196 60.8273C217.196 60.8273 219.597 63.7994 226.32 64.3746C226.32 64.3746 227.569 62.4572 227.473 58.6223C227.473 58.6223 221.326 58.047 217.196 60.8273Z" fill="#FFEBED"/>
<path d="M238.326 63.7993V64.6622C238.326 64.6622 239.382 66.7713 243.032 67.1548C243.032 67.1548 244.184 65.3333 244.28 62.2654C244.376 62.3612 241.975 61.786 238.326 63.7993Z" fill="#FFEBED"/>
<path d="M224.4 58.4305C224.4 58.4305 222.671 60.5397 222.863 63.7035C222.863 63.7035 225.072 64.1828 226.32 64.2787C226.32 64.2787 227.761 62.2654 227.473 58.5264C227.473 58.6223 225.552 58.1429 224.4 58.4305Z" fill="#7F9EC9"/>
<path d="M241.879 62.4574C241.879 62.4574 240.919 63.512 240.727 66.6757C240.727 66.6757 242.071 67.251 243.128 67.251C243.128 67.251 244.472 65.3335 244.376 62.3615C244.376 62.3615 243.416 61.978 241.879 62.4574Z" fill="#7F9EC9"/>
<path d="M223.823 63.9909C223.823 63.9909 223.247 59.9643 225.552 58.3345L227.473 58.6221C227.473 58.6221 228.145 61.8817 226.32 64.3744C226.32 64.3744 224.4 64.0868 223.823 63.9909Z" fill="#38368E"/>
<path d="M242.744 62.2655C242.744 62.2655 241.879 64.0871 241.495 66.8673C241.495 66.8673 242.168 67.1549 243.128 67.1549C243.128 67.1549 244.472 65.5251 244.376 62.2655C244.376 62.3614 243.416 62.0738 242.744 62.2655Z" fill="#38368E"/>
<path d="M217.196 60.8274C217.196 60.8274 221.614 58.2389 229.298 59.677L227.857 58.6224C227.857 58.6224 222.479 56.9926 217.196 60.8274Z" fill="#131163"/>
<path d="M238.326 63.7994C238.326 63.7994 241.879 61.882 246.105 62.9366L244.376 61.6903C244.376 61.6903 241.591 61.2109 238.326 63.7994Z" fill="#131163"/>
<path d="M222.094 60.8274C222.094 60.8274 223.343 60.5398 224.4 61.6902C224.4 61.6902 222.863 62.0737 222.094 60.8274Z" fill="white"/>
<path d="M239.958 64.3745C239.958 64.3745 241.879 63.991 242.552 64.8538C242.552 64.8538 241.495 65.5249 239.958 64.3745Z" fill="white"/>
<path d="M217.677 61.3069C217.677 61.3069 221.134 64.7583 226.705 65.5252L226.801 63.5119L226.32 64.3748C226.32 64.3748 221.038 63.9913 217.677 61.3069Z" fill="#C6659C"/>
<path d="M238.326 64.6624C238.326 64.6624 238.902 66.8674 243.416 67.8261L243.224 66.7715L242.936 67.155C243.128 67.2509 239.862 66.7715 238.326 64.6624Z" fill="#C6659C"/>
<path d="M229.298 73.5782C229.298 73.5782 231.026 73.1947 234.1 73.5782C237.173 73.9616 240.631 74.8245 242.552 73.5782C242.552 73.5782 240.055 76.0708 237.846 76.4543C235.637 76.8378 232.371 74.9203 232.371 74.9203H230.93C230.834 74.9203 229.778 74.3451 229.298 73.5782Z" fill="#CB5F7D"/>
<path d="M231.026 74.9203C231.026 74.9203 231.795 74.441 232.467 74.5368C233.139 74.6327 233.716 75.5914 233.716 75.5914C233.716 75.5914 232.371 74.9203 231.026 74.9203Z" fill="#9F4A8B"/>
<path d="M242.552 73.5782C243.32 72.8112 239.19 65.3332 237.173 65.0456C235.156 64.758 233.332 73.3864 233.332 73.3864C233.332 73.3864 236.117 73.7699 238.806 74.1534C241.495 74.441 242.552 73.5782 242.552 73.5782Z" fill="#FFBCAF"/>
<path opacity="0.6" d="M245.529 50.0895C244.376 49.8977 240.343 54.7872 240.343 54.7872C240.343 54.7872 237.846 62.6487 238.326 64.9496C238.806 67.2505 245.049 68.4968 245.049 68.4968L245.337 68.1133C245.049 67.3464 244.761 66.5794 244.569 65.7165C244.088 63.3198 245.145 57.7592 245.913 53.2532C245.913 53.2532 246.201 52.2945 246.201 51.4317C246.201 50.8565 246.105 50.1854 245.529 50.0895Z" fill="url(#paint57_linear)"/>
<path d="M245.337 82.1112C244.088 79.4268 244.857 78.0845 233.716 76.6465C217.965 74.6332 216.62 79.3309 214.027 78.6598C213.931 78.6598 213.835 78.5639 213.739 78.5639C210.857 77.4135 204.038 70.7983 203.846 61.7864C203.654 52.391 209.993 45.7758 209.993 45.7758C207.688 43.8584 206.824 38.2978 209.225 35.9969C211.722 33.6001 215.852 34.1754 226.128 35.2299C236.405 36.2845 236.405 35.7093 236.405 35.7093C239.67 36.5721 241.591 39.64 242.071 40.5987C242.167 40.7905 242.264 40.8864 242.264 40.8864L243.512 39.7359C246.97 44.7212 246.297 50.1859 246.297 50.1859C246.297 50.1859 251.964 38.7772 251.292 37.1474C250.139 34.1754 246.874 29.7653 246.682 29.4776C246.682 29.4776 245.721 20.7533 243.032 20.7533C240.343 20.7533 228.625 23.3419 228.625 23.3419C229.874 20.3698 229.682 16.9185 229.682 16.9185C229.682 16.9185 229.682 16.9185 229.586 16.9185C225.744 20.274 222.094 20.6575 216.812 23.1501C214.123 24.3964 212.874 25.5469 211.914 26.6974L211.53 27.0809L211.146 27.5602C210.761 28.0396 210.377 28.5189 209.993 28.9983C209.993 28.9983 209.993 29.0942 209.897 29.0942C209.513 29.5735 208.937 30.0529 208.36 30.5322C204.903 33.3125 197.315 35.2299 196.355 38.202C195.491 41.174 197.507 45.2006 198.564 49.4189C199.62 53.6373 199.14 57.2804 199.14 57.2804C199.14 57.2804 202.79 61.9781 201.541 68.785C200.485 74.9208 198.18 75.8795 198.18 75.8795C196.547 79.235 197.315 82.3988 197.315 82.3988C200.677 95.7249 214.603 103.682 214.603 103.682C226.993 108.284 235.156 106.271 235.156 106.271C244.184 100.423 247.258 81.0566 247.354 80.0979C247.354 80.1937 245.721 82.7823 245.337 82.1112ZM239.766 94.3827C237.557 93.9992 237.077 88.5346 236.405 87.7676C235.637 87.0965 231.699 87.3841 231.699 87.3841C231.699 87.3841 228.049 91.5066 226.609 91.6024C225.168 91.6983 217.388 88.5346 219.021 83.8369C220.654 79.1391 226.609 78.468 226.609 78.468C226.609 78.468 229.682 81.0566 234.196 81.3442C238.71 81.6318 240.439 80.769 240.919 80.5772C241.495 80.2896 244.376 81.6318 244.28 85.7543C244.376 88.7263 241.975 94.7662 239.766 94.3827Z" fill="url(#paint58_linear)"/>
<path d="M239.286 66.6755C239.286 66.6755 243.224 71.565 242.84 73.3866C242.456 75.3999 237.846 76.4545 237.846 76.4545C237.846 76.4545 241.495 75.2081 242.264 73.3866C242.264 73.3866 241.303 69.6476 239.286 66.6755Z" fill="#D2726C"/>
<path opacity="0.6" d="M246.393 49.9939C246.393 49.9939 247.066 44.5292 243.608 39.5439C246.393 34.5586 246.778 29.2856 246.778 29.2856C247.738 31.5866 248.218 36.0925 248.218 36.0925L251.388 36.9554C251.964 38.5852 246.393 49.9939 246.393 49.9939Z" fill="url(#paint59_linear)"/>
<path opacity="0.6" d="M242.071 40.4067C241.495 39.448 239.67 36.3801 236.405 35.5173C236.405 35.5173 236.405 36.1884 226.128 35.0379C215.852 33.9833 211.626 33.4081 209.225 35.8049C206.728 38.2017 207.688 43.6663 209.993 45.5838C209.993 45.5838 203.75 52.1989 203.846 61.5944C204.038 70.6063 210.857 77.3173 213.739 78.3719L213.643 79.3306C213.643 79.3306 214.123 99.943 219.213 101.573C224.207 103.203 234.676 102.34 235.637 103.299C236.597 104.257 235.541 105.791 235.444 105.983C235.444 105.983 227.281 107.996 214.891 103.394C214.891 103.394 200.965 95.437 197.603 82.1109C197.603 82.1109 196.835 78.9471 198.468 75.5916C198.468 75.5916 200.773 74.6329 201.829 68.4971C203.078 61.6902 199.428 56.9925 199.428 56.9925C199.428 56.9925 199.908 53.3494 198.852 49.131C197.796 44.9127 195.683 40.8861 196.643 37.914C202.502 38.8728 206.247 35.8049 206.247 35.8049C206.247 35.8049 207.304 34.3668 211.818 33.6957C216.332 32.9287 234.388 34.7503 234.388 34.7503C234.388 34.7503 232.563 33.2163 228.721 32.2576C225.072 31.2989 212.778 32.4494 211.434 32.5452C212.874 32.2576 226.801 29.8608 228.433 30.3402C230.162 30.8195 236.213 33.5998 236.213 33.5998C235.637 30.8195 230.258 24.1085 230.258 24.1085C230.258 24.1085 222.575 24.2044 217.58 25.259C213.162 26.2177 210.665 28.231 210.185 28.6145L211.338 27.1764L211.722 26.6971L212.106 26.3136L213.835 26.026L222.575 22.4787C225.552 20.9448 229.298 17.014 229.778 16.5347H229.874C229.874 16.5347 230.066 19.986 228.817 22.9581C236.213 21.9994 238.71 22.4787 238.71 22.4787C241.975 27.5599 242.071 40.4067 242.071 40.4067Z" fill="url(#paint60_linear)"/>
<path opacity="0.5" d="M214.795 103.49C214.795 103.49 219.309 102.436 226.224 102.723C233.043 103.011 236.981 103.011 235.348 106.079C235.252 106.079 226.705 108.092 214.795 103.49Z" fill="url(#paint61_linear)"/>
<path d="M238.614 22.7663C238.614 22.7663 242.744 21.1364 244.473 21.4241C244.473 21.4241 243.8 20.5612 243.128 20.3695C242.456 20.1777 228.721 23.2456 228.721 23.2456C228.721 23.2456 237.269 22.191 238.614 22.7663Z" fill="url(#paint62_linear)"/>
<path d="M230.162 24.3001C230.162 24.3001 229.874 28.8061 228.337 30.4359L211.338 32.641L206.343 31.7781C206.343 31.7781 208.264 30.9153 210.377 28.5185C212.586 26.0258 223.631 23.629 230.162 24.3001Z" fill="url(#paint63_linear)"/>
<path d="M246.682 29.2856C246.682 29.2856 248.026 33.7916 248.122 36.0925L251.292 36.9554C251.388 36.9554 250.427 33.5999 246.682 29.2856Z" fill="url(#paint64_linear)"/>
<path opacity="0.8" d="M200.389 67.9218C200.389 67.9218 199.236 62.1695 196.259 59.3892C193.378 56.513 190.016 57.4718 190.016 57.4718C190.016 57.4718 190.88 68.1135 191.841 70.702C192.801 73.2906 194.242 73.9617 194.242 73.9617C194.242 73.9617 192.225 72.1401 191.937 68.6887C191.649 65.1415 191.553 60.252 192.321 59.6768C193.089 59.1016 196.259 61.4025 196.259 61.4025C196.259 61.4025 195.298 62.6488 194.722 65.7167C194.146 68.8805 196.355 71.0855 197.123 71.0855C197.988 71.0855 197.123 67.4424 197.219 66.4837C197.315 65.2374 199.14 65.525 200.389 67.9218Z" fill="url(#paint65_linear)"/>
<path opacity="0.8" d="M197.507 60.8274C197.507 60.8274 194.338 62.9366 194.626 67.2508C195.01 71.565 197.411 71.3733 197.411 70.4145C197.411 69.5517 196.931 67.1549 197.219 65.9086C197.507 64.5664 199.62 65.1416 199.62 65.1416C199.62 65.1416 198.18 61.6902 197.507 60.8274Z" fill="url(#paint66_linear)"/>
<path d="M247.546 80.0017C247.546 80.0017 243.608 98.1214 235.348 106.175C235.252 106.079 244.665 102.436 247.546 80.0017Z" fill="#34C7FF"/>
<path d="M243.128 20.3694C243.128 20.3694 245.241 21.9992 245.625 27.6556C246.009 33.312 243.608 39.5437 243.608 39.5437C243.608 39.5437 246.778 34.846 247.066 29.6689C247.258 24.5877 244.761 21.0405 243.128 20.3694Z" fill="#34C7FF"/>
<path d="M217.677 32.1617C217.677 32.1617 222.479 33.7915 227.857 34.2709C233.235 34.7502 234.292 34.8461 234.292 34.8461C234.292 34.8461 232.179 32.7369 227.569 32.1617C223.055 31.5864 217.677 32.1617 217.677 32.1617Z" fill="url(#paint67_linear)"/>
<path d="M241.111 80.3853C241.111 80.3853 243.416 80.3853 244.376 83.2615C245.145 85.5624 245.337 87.5757 245.337 87.5757L246.201 84.412C246.201 84.412 245.145 80.3853 243.992 79.4266C243.224 78.7555 241.783 78.0844 241.111 78.2762V80.3853Z" fill="url(#paint68_linear)"/>
<path d="M234.868 77.4132L235.252 80.8646C235.252 80.8646 238.038 81.0564 239.959 80.2894L240.247 78.1802C240.343 78.2761 236.693 77.3174 234.868 77.4132Z" fill="url(#paint69_linear)"/>
<path d="M247.834 122.089C247.834 122.089 264.353 134.169 266.562 138.292C268.675 142.414 269.54 155.453 272.517 161.109C272.517 161.109 270.5 151.905 269.156 144.715C267.715 137.525 268.099 137.429 267.331 135.607C266.466 133.786 254.077 125.157 247.834 122.089Z" fill="#34C7FF"/>
<path d="M244.857 189.199C244.857 189.199 236.885 223.234 237.269 225.535C237.653 227.836 242.84 232.533 243.032 233.78C243.032 233.78 239.094 239.053 239.286 240.203C239.478 241.354 246.201 248.736 246.009 251.037C245.913 251.708 241.591 258.898 241.591 258.898C241.591 258.898 246.489 251.804 246.778 250.749C247.066 249.599 240.727 240.203 240.535 239.245C240.055 236.752 243.704 234.93 243.8 233.3C243.896 231.671 238.902 227.644 238.902 224.96C238.806 222.371 244.857 189.199 244.857 189.199Z" fill="#34C7FF"/>
<path d="M246.489 270.403C246.489 270.403 263.681 309.326 269.636 348.346C269.54 348.346 268.579 310.285 246.489 270.403Z" fill="#34C7FF"/>
<path d="M137.192 114.228C137.192 114.228 132.774 113.269 130.853 109.434C129.029 105.503 130.181 99.9429 130.181 99.9429C130.181 99.9429 133.639 106.654 135.368 108.955C137.192 111.16 137.673 113.748 137.192 114.228Z" fill="#FFBCAF"/>
<path opacity="0.6" d="M274.823 93.904L277.896 181.914C277.992 185.366 280.873 188.146 284.427 188.146H436.271C439.825 188.146 442.706 185.366 442.802 181.818L444.915 92.7536C445.011 89.1104 442.034 86.0425 438.384 86.1384L281.258 87.193C277.608 87.193 274.631 90.2609 274.823 93.904Z" fill="#36D1F7"/>
<path d="M436.271 188.432H284.33C280.681 188.432 277.703 185.556 277.607 181.913L274.534 93.9031C274.438 92.0815 275.11 90.3558 276.359 89.0136C277.607 87.6714 279.336 87.0003 281.161 86.9044L438.288 85.8499C440.113 85.8499 441.841 86.521 443.09 87.8632C444.338 89.2054 445.107 90.931 445.011 92.7526L442.898 181.817C442.898 185.556 439.92 188.432 436.271 188.432ZM438.384 86.4251L281.257 87.4797C279.528 87.4797 277.992 88.1508 276.743 89.3971C275.591 90.6434 274.918 92.2733 275.014 93.9031L278.088 181.913C278.184 185.269 280.969 187.953 284.33 187.953H436.175C439.536 187.953 442.322 185.173 442.418 181.817L444.531 92.7526C444.531 91.0269 443.954 89.3971 442.706 88.2466C441.649 87.0962 440.016 86.4251 438.384 86.4251Z" fill="#744CA2"/>
<path opacity="0.6" d="M275.014 98.4089H444.722L445.01 93.8071C445.299 89.6846 441.937 86.2332 437.807 86.3291L280.777 87.5754C277.511 87.5754 274.918 90.2598 274.918 93.5195L275.014 98.4089Z" fill="url(#paint70_linear)"/>
<path opacity="0.3" d="M283.562 105.504V156.412H335.521V105.216L283.562 105.504Z" fill="url(#paint71_linear)"/>
<path opacity="0.3" d="M408.226 108.955H385.656V131.485H408.226V108.955Z" fill="url(#paint72_linear)"/>
<path opacity="0.3" d="M434.926 108.955H412.356V131.485H434.926V108.955Z" fill="url(#paint73_linear)"/>
<path opacity="0.3" d="M381.142 108.955H358.572V131.485H381.142V108.955Z" fill="url(#paint74_linear)"/>
<path d="M434.926 144.619H377.108V149.988H434.926V144.619Z" fill="#D1D4FB"/>
<path d="M434.926 152.864H362.702V154.494H434.926V152.864Z" fill="#D1D4FB"/>
<path d="M377.204 134.361H363.374V135.991H377.204V134.361Z" fill="#D1D4FB"/>
<path d="M403.904 134.361H390.074V135.991H403.904V134.361Z" fill="#D1D4FB"/>
<path d="M430.508 134.361H416.678V135.991H430.508V134.361Z" fill="#D1D4FB"/>
<path d="M381.814 155.549H358.572V157.178H381.814V155.549Z" fill="#D1D4FB"/>
<path d="M434.926 158.233H362.702V159.863H434.926V158.233Z" fill="#D1D4FB"/>
<path d="M434.926 160.917H358.572V162.547H434.926V160.917Z" fill="#D1D4FB"/>
<path d="M434.926 163.602H358.572V165.231H434.926V163.602Z" fill="#D1D4FB"/>
<path d="M434.926 174.436H362.702V176.065H434.926V174.436Z" fill="#D1D4FB"/>
<path d="M434.926 177.12H358.572V178.749H434.926V177.12Z" fill="#D1D4FB"/>
<path d="M434.926 179.804H358.572V181.434H434.926V179.804Z" fill="#D1D4FB"/>
<path d="M431.853 166.286H358.572V167.916H431.853V166.286Z" fill="#D1D4FB"/>
<path d="M434.926 168.97H362.702V170.6H434.926V168.97Z" fill="#D1D4FB"/>
<path d="M420.424 171.655H358.572V173.285H420.424V171.655Z" fill="#D1D4FB"/>
<path d="M298.065 146.249C289.901 146.249 283.274 139.634 283.274 131.485C283.274 123.336 289.901 116.72 298.065 116.72C306.228 116.72 312.855 123.336 312.855 131.485C312.855 139.634 306.228 146.249 298.065 146.249ZM298.065 117.679C290.477 117.679 284.234 123.911 284.234 131.485C284.234 139.059 290.477 145.29 298.065 145.29C305.652 145.29 311.895 139.059 311.895 131.485C311.895 123.911 305.748 117.679 298.065 117.679Z" fill="#E0FFFF"/>
<path d="M298.065 139.538C302.52 139.538 306.132 135.933 306.132 131.485C306.132 127.037 302.52 123.432 298.065 123.432C293.609 123.432 289.997 127.037 289.997 131.485C289.997 135.933 293.609 139.538 298.065 139.538Z" fill="white"/>
<path d="M335.521 119.98C327.358 119.98 320.731 113.365 320.731 105.216C320.731 97.0668 327.358 90.4517 335.521 90.4517C343.685 90.4517 350.312 97.0668 350.312 105.216C350.216 113.365 343.589 119.98 335.521 119.98ZM335.521 91.4104C327.934 91.4104 321.691 97.642 321.691 105.216C321.691 112.79 327.934 119.021 335.521 119.021C343.109 119.021 349.352 112.79 349.352 105.216C349.256 97.642 343.109 91.4104 335.521 91.4104Z" fill="#E0FFFF"/>
<path d="M342.937 106.373C343.589 102.242 340.761 98.3651 336.622 97.715C332.482 97.065 328.599 99.8876 327.948 104.02C327.297 108.151 330.124 112.028 334.264 112.678C338.403 113.328 342.286 110.505 342.937 106.373Z" fill="white"/>
<path d="M280.969 91.5063L282.025 89.8765L287.884 94.9577L287.02 96.204L280.969 91.5063Z" fill="white"/>
<path d="M287.98 91.5063L286.923 89.8765L281.065 94.9577L282.025 96.204L287.98 91.5063Z" fill="white"/>
<path d="M440.497 90.9312H388.249V93.5197H440.497V90.9312Z" fill="white"/>
<path d="M113.085 53.1577V75.7834L140.266 76.071L140.65 52.4866L113.085 53.1577Z" fill="url(#paint75_linear)"/>
<path d="M140.65 52.4866L142.379 55.4586L141.514 76.071H140.266L140.65 52.4866Z" fill="url(#paint76_linear)"/>
<path d="M117.984 60.8274L120.481 57.1843L134.023 68.593L132.006 71.2775L117.984 60.8274Z" fill="white"/>
<path d="M134.407 60.8274L131.91 57.1843L118.368 68.593L120.385 71.2775L134.407 60.8274Z" fill="white"/>
<path opacity="0.81" d="M176.474 319.777H83.6C79.4702 319.777 76.1087 316.517 76.0126 312.395L74.2838 236.368C74.1878 232.15 77.6453 228.603 81.8712 228.603H178.587C182.909 228.603 186.27 232.15 186.174 236.368L184.061 312.395C183.965 316.517 180.604 319.777 176.474 319.777Z" fill="url(#paint77_linear)"/>
<path d="M176.474 319.968H83.6003C79.3744 319.968 75.8208 316.517 75.7247 312.299L73.996 236.272C73.8999 234.163 74.7643 232.15 76.2049 230.616C77.6456 229.082 79.6625 228.219 81.7754 228.219H178.491C180.604 228.219 182.621 229.082 184.157 230.616C185.694 232.15 186.463 234.163 186.366 236.272L184.254 312.299C184.157 316.613 180.7 319.968 176.474 319.968ZM81.8715 228.794C79.8546 228.794 78.0298 229.561 76.5891 231C75.1485 232.438 74.4762 234.355 74.4762 236.272L76.2049 312.299C76.301 316.229 79.5665 319.489 83.6003 319.489H176.474C180.508 319.489 183.773 316.325 183.869 312.299L185.982 236.272C186.078 234.259 185.31 232.342 183.869 230.904C182.429 229.466 180.604 228.699 178.587 228.699H81.8715V228.794Z" fill="#473DA2"/>
<path d="M148.045 244.134H99.2553V246.243H148.045V244.134Z" fill="white"/>
<path d="M123.65 249.215H99.2553V251.324H123.65V249.215Z" fill="white"/>
<path d="M123.65 253.434H99.2553V255.543H123.65V253.434Z" fill="white"/>
<path d="M145.836 253.434H126.436V255.543H145.836V253.434Z" fill="white"/>
<path d="M138.633 257.651H99.2553V259.761H138.633V257.651Z" fill="white"/>
<path d="M113.278 261.87H99.2553V263.979H113.278V261.87Z" fill="white"/>
<path d="M140.362 274.621H116.159V276.73H140.362V274.621Z" fill="white"/>
<path d="M143.147 266.088H99.2553V268.198H143.147V266.088Z" fill="white"/>
<path d="M133.063 270.403H99.2553V272.512H133.063V270.403Z" fill="white"/>
<path d="M115.102 274.621H99.2553V276.73H115.102V274.621Z" fill="white"/>
<path d="M123.65 278.839H99.2553V280.949H123.65V278.839Z" fill="white"/>
<path d="M106.266 283.057H99.2553V285.167H106.266V283.057Z" fill="white"/>
<path d="M134.599 283.057H109.148V285.167H134.599V283.057Z" fill="white"/>
<path d="M140.362 287.18H116.159V289.289H140.362V287.18Z" fill="white"/>
<path d="M115.102 287.18H99.2553V289.289H115.102V287.18Z" fill="white"/>
<path d="M123.65 291.398H99.2553V293.508H123.65V291.398Z" fill="white"/>
<path d="M106.266 295.713H99.2553V297.822H106.266V295.713Z" fill="white"/>
<path d="M134.599 295.713H109.148V297.822H134.599V295.713Z" fill="white"/>
<path d="M425.61 69.1682C425.61 71.565 423.689 73.4824 421.288 73.4824C418.887 73.4824 416.966 71.565 416.966 69.1682C416.966 66.7714 418.887 64.854 421.288 64.854C423.689 64.9499 425.61 66.8673 425.61 69.1682Z" fill="url(#paint78_linear)"/>
<path d="M23.2851 168.587C23.2851 171.559 20.884 173.956 17.9067 173.956C14.9294 173.956 12.5283 171.559 12.5283 168.587C12.5283 165.615 14.9294 163.218 17.9067 163.218C20.884 163.218 23.2851 165.615 23.2851 168.587Z" fill="url(#paint79_linear)"/>
<path d="M433.966 73.4824C436.353 73.4824 438.288 71.5509 438.288 69.1682C438.288 66.7855 436.353 64.854 433.966 64.854C431.579 64.854 429.644 66.7855 429.644 69.1682C429.644 71.5509 431.579 73.4824 433.966 73.4824Z" fill="url(#paint80_linear)"/>
<path d="M157.169 101.764C158.867 101.764 160.243 100.391 160.243 98.6966C160.243 97.0022 158.867 95.6287 157.169 95.6287C155.472 95.6287 154.096 97.0022 154.096 98.6966C154.096 100.391 155.472 101.764 157.169 101.764Z" fill="url(#paint81_linear)"/>
<path d="M360.493 235.41C362.19 235.41 363.566 234.036 363.566 232.342C363.566 230.647 362.19 229.274 360.493 229.274C358.795 229.274 357.419 230.647 357.419 232.342C357.419 234.036 358.795 235.41 360.493 235.41Z" fill="url(#paint82_linear)"/>
<path d="M44.8948 265.225C46.3801 265.225 47.584 264.024 47.584 262.541C47.584 261.059 46.3801 259.857 44.8948 259.857C43.4096 259.857 42.2056 261.059 42.2056 262.541C42.2056 264.024 43.4096 265.225 44.8948 265.225Z" fill="url(#paint83_linear)"/>
<path opacity="0.73" d="M91.1875 235.985H44.3184C40.5727 235.985 37.4994 233.013 37.3073 229.274L36.2508 198.499C36.1548 194.568 39.3242 191.309 43.2619 191.309H92.1479C96.0857 191.309 99.2551 194.568 99.1591 198.499L98.1987 229.274C98.1026 232.917 94.9332 235.985 91.1875 235.985Z" fill="url(#paint84_linear)"/>
<path d="M91.1876 236.177H44.3186C40.3808 236.177 37.2114 233.109 37.1153 229.178L36.0589 198.403C35.9628 196.39 36.7312 194.568 38.0758 193.13C39.4204 191.692 41.3412 190.925 43.2621 190.925H92.1481C94.165 190.925 95.9898 191.692 97.3344 193.13C98.679 194.568 99.4473 196.39 99.3513 198.403L98.3909 229.178C98.2948 233.109 95.1254 236.177 91.1876 236.177ZM43.2621 191.501C41.4373 191.501 39.7085 192.267 38.3639 193.514C37.0193 194.76 36.443 196.582 36.443 198.403L37.4995 229.178C37.5956 232.821 40.5729 235.697 44.2225 235.697H91.0916C94.7412 235.697 97.7186 232.821 97.8146 229.178L98.775 198.403C98.8711 196.582 98.1988 194.856 96.8542 193.514C95.6056 192.172 93.8768 191.501 92.052 191.501H43.2621Z" fill="#953DA2"/>
<path d="M56.8042 202.238L45.279 215.66L56.9963 225.631V220.454L50.1772 214.606L56.5161 207.415L56.8042 202.238Z" fill="white"/>
<path d="M77.1653 202.909L88.6905 216.235L76.8772 226.206V221.029L83.6963 215.181L76.1089 207.223L77.1653 202.909Z" fill="white"/>
<path d="M59.3013 225.631L69.3858 203.484H74.0919L62.7589 225.631H59.3013Z" fill="white"/>
<path opacity="0.73" d="M406.5 299.263H347.913C343.207 299.263 339.366 295.524 339.174 290.826L337.829 252.286C337.637 247.396 341.671 243.274 346.569 243.274H407.652C412.551 243.274 416.584 247.396 416.392 252.286L415.24 290.826C415.144 295.524 411.206 299.263 406.5 299.263Z" fill="url(#paint85_linear)"/>
<path d="M406.497 299.548H347.911C343.013 299.548 339.075 295.713 338.883 290.919L337.538 252.379C337.442 249.886 338.307 247.585 340.035 245.86C341.764 244.134 344.069 243.079 346.47 243.079H407.65C410.147 243.079 412.356 244.038 414.085 245.764C415.814 247.489 416.678 249.886 416.582 252.283L415.429 290.823C415.333 295.713 411.396 299.548 406.497 299.548ZM346.566 243.559C344.261 243.559 342.052 244.517 340.42 246.147C338.787 247.777 337.923 249.982 338.019 252.379L339.363 290.919C339.555 295.521 343.301 299.164 347.911 299.164H406.497C411.107 299.164 414.853 295.521 415.045 290.919L416.198 252.379C416.294 250.078 415.429 247.873 413.797 246.243C412.164 244.613 410.051 243.655 407.65 243.655H346.566V243.559Z" fill="#953DA2"/>
<path d="M403.232 249.503H349.544V281.332H403.232V249.503Z" fill="#D1D4FB"/>
<path d="M371.73 257.46V273.47L385.368 264.65L371.73 257.46Z" fill="white"/>
<path d="M403.232 287.18H349.544V290.056H403.232V287.18Z" fill="#D1D4FB"/>
<path d="M363.47 287.18H349.544V290.056H363.47V287.18Z" fill="white"/>
<path fill-rule="evenodd" clip-rule="evenodd" d="M310.262 239.437L307.477 247.394C309.014 242.984 311.223 240.204 310.262 239.437ZM307.477 247.49L304.692 255.447C305.364 255.255 305.94 251.9 307.477 247.49ZM310.262 239.437L307.477 247.394C309.014 242.984 311.223 240.204 310.262 239.437ZM307.477 247.49L304.692 255.447C305.364 255.255 305.94 251.9 307.477 247.49ZM315.545 254.393L318.234 255.926L321.211 247.873L318.042 247.394C318.138 247.106 318.138 246.819 318.234 246.531C318.426 245.189 318.522 243.847 318.522 242.504L321.787 240.395L320.251 233.301L317.081 236.273C316.601 235.41 316.121 234.547 315.448 233.972C315.256 233.78 315.064 233.588 314.872 233.397L316.793 228.987L311.703 227.357L310.454 231.863C309.302 231.863 308.149 232.15 306.997 232.63L306.42 228.411L300.754 232.726L302.098 236.464C301.042 237.615 300.178 238.957 299.313 240.491L296.624 238.957L293.647 247.01L296.816 247.49C296.528 249.215 296.336 250.845 296.432 252.379L293.166 254.488L294.703 261.583L297.873 258.611C298.449 259.761 299.121 260.72 300.082 261.487L298.161 265.897L303.251 267.91L304.019 265.034L304.596 263.117C305.748 263.117 306.901 262.829 308.053 262.35L308.629 266.568L314.296 262.254L312.951 258.515C313.72 257.556 314.488 256.598 315.16 255.447C315.16 255.064 315.352 254.68 315.545 254.393ZM307.477 247.49C305.94 251.9 307.477 256.502 304.692 255.447C301.906 254.488 300.85 250.078 302.387 245.668C303.923 241.258 307.477 238.478 310.262 239.437C313.047 240.395 309.014 242.984 307.477 247.49ZM310.262 239.437L307.477 247.394C309.014 242.984 311.223 240.204 310.262 239.437ZM307.477 247.49L304.692 255.447C305.364 255.255 305.94 251.9 307.477 247.49Z" fill="url(#paint86_linear)"/>
<path fill-rule="evenodd" clip-rule="evenodd" d="M318.234 255.926L321.211 247.873L318.234 246.435L317.754 246.243L318.042 241.833L321.403 240.203L320.347 233.396L313.143 230.999L314.488 234.163L316.985 228.986L311.895 227.356L309.782 226.685L304.692 224.672L303.731 228.123L299.313 226.014L293.647 230.328L295.375 234.93L290.093 249.599L287.5 259.09L292.494 259.665L290.861 263.404L295.952 265.417L303.155 267.814L302.002 265.513L301.234 264.075L303.923 264.938L308.533 266.472L314.2 262.158L310.742 258.035L315.16 255.351L318.234 255.926ZM302.387 245.668C303.923 241.258 307.477 238.477 310.262 239.436L307.477 247.393L304.692 255.351C301.81 254.488 300.754 250.078 302.387 245.668Z" fill="url(#paint87_linear)"/>
<path fill-rule="evenodd" clip-rule="evenodd" d="M311.031 253.529L314.008 245.476L310.838 244.997C311.127 243.271 311.319 241.641 311.223 240.107L314.488 237.998L312.951 230.904L309.782 233.876C309.206 232.725 308.533 231.767 307.669 231L309.59 226.589L304.5 224.576L303.155 229.37C302.002 229.37 300.85 229.657 299.697 230.137L299.121 225.918L293.455 230.233L294.799 233.972C293.743 235.122 292.878 236.464 292.014 237.998L289.325 236.464L286.347 244.517L289.517 244.997C289.229 246.723 289.037 248.352 289.133 249.886L285.867 251.995L287.404 259.09L290.573 256.118C291.15 257.268 291.822 258.227 292.686 258.994L290.765 263.404L295.856 265.417L297.2 260.624C298.353 260.624 299.505 260.336 300.658 259.857L301.234 264.075L306.901 259.761L305.556 256.022C306.613 254.872 307.477 253.529 308.341 251.995L311.031 253.529ZM297.392 253.05C294.607 252.091 293.551 247.681 295.087 243.271C296.624 238.861 300.178 236.081 302.963 237.039C305.748 237.998 306.805 242.408 305.268 246.818C303.731 251.324 300.178 254.105 297.392 253.05Z" fill="url(#paint88_linear)"/>
<path opacity="0.5" fill-rule="evenodd" clip-rule="evenodd" d="M321.787 240.491L314.488 238.094L311.223 240.203L318.426 242.504L321.787 240.491Z" fill="#601734"/>
<path fill-rule="evenodd" clip-rule="evenodd" d="M314.104 262.158L306.805 259.761L305.556 256.022L312.759 258.419L314.104 262.158Z" fill="#B3D9FF"/>
<path opacity="0.5" fill-rule="evenodd" clip-rule="evenodd" d="M307.669 231.191L311.703 232.342L313.047 231L315.64 231.862L316.889 229.082L309.59 226.685L307.669 231.191Z" fill="#601734"/>
<path opacity="0.5" fill-rule="evenodd" clip-rule="evenodd" d="M297.104 260.624L300.946 262.158L300.658 259.761C300.658 259.857 298.545 260.912 297.104 260.624Z" fill="#601734"/>
<path opacity="0.5" fill-rule="evenodd" clip-rule="evenodd" d="M297.68 238.957L304.115 242.312C304.115 242.312 305.076 241.066 305.748 240.587C305.748 240.587 304.115 233.588 297.68 238.957Z" fill="#601734"/>
<path d="M151.023 0.33252L157.169 12.6041L153.039 14.5215L147.277 3.20867L151.023 0.33252Z" fill="#FF1D9C"/>
<path d="M12.2402 287.276L18.0028 293.508L20.2118 290.919L14.8333 285.071L12.2402 287.276Z" fill="#6877FF"/>
<path d="M302.098 75.4959L296.336 78.9472L294.031 74.633L300.37 70.894L302.098 75.4959Z" fill="#4F31E0"/>
<path d="M330.431 295.713L322.171 301.561L319.866 297.151L327.838 292.549L330.431 295.713Z" fill="#4F31E0"/>
<path fill-rule="evenodd" clip-rule="evenodd" d="M319.482 45.6796L318.138 13.3708H360.493L358.668 45.5837L319.482 45.6796Z" fill="url(#paint89_linear)"/>
<path fill-rule="evenodd" clip-rule="evenodd" d="M318.138 13.3708L316.889 15.2883L318.138 45.6796H319.482L318.138 13.3708Z" fill="url(#paint90_linear)"/>
<path d="M332.16 19.89L325.533 19.123L326.493 41.2694L332.16 40.6942V38.3932L328.895 38.4891L328.51 21.424L332.16 21.5198V19.89Z" fill="white"/>
<path d="M345.798 19.89L352.425 19.123L351.561 41.2694L345.798 40.6942V38.3932L349.064 38.4891L349.448 21.424L345.798 21.5198V19.89Z" fill="white"/>
<path fill-rule="evenodd" clip-rule="evenodd" d="M27.7031 116.337L28.5675 94.2869H-0.245441L0.907073 116.241L27.7031 116.337Z" fill="url(#paint91_linear)"/>
<path fill-rule="evenodd" clip-rule="evenodd" d="M28.5675 94.2869L29.4319 95.6291L28.5675 116.337H27.7031L28.5675 94.2869Z" fill="url(#paint92_linear)"/>
<path d="M17.5226 98.7928C17.5226 98.7928 20.692 98.6969 21.2682 98.8886C21.8445 99.1763 21.0761 104.257 21.0761 104.257L22.3247 105.408L21.1722 106.558C21.1722 106.558 21.2682 111.735 20.4999 112.215C19.7315 112.694 17.2344 112.215 17.2344 112.215V110.873C17.2344 110.873 19.3474 110.969 19.6355 110.681C20.0197 110.393 19.9236 105.887 19.9236 105.887L20.4999 105.312L19.9236 104.641C19.9236 104.641 20.0197 101.381 19.9236 100.518C19.9236 99.9432 17.4265 99.8474 17.4265 99.8474V98.7928H17.5226Z" fill="white"/>
<path d="M10.2233 98.7928C10.2233 98.7928 7.05385 98.6969 6.47759 98.8886C5.90133 99.1763 6.66967 104.257 6.66967 104.257L5.42111 105.408L6.57363 106.558C6.57363 106.558 6.47759 111.735 7.24593 112.215C8.01427 112.694 10.5114 112.215 10.5114 112.215V110.873C10.5114 110.873 8.39845 110.969 8.11032 110.681C7.82219 110.393 7.82219 105.887 7.82219 105.887L7.24593 105.312L7.82219 104.641C7.82219 104.641 7.72614 101.381 7.82219 100.518C7.82219 99.9432 10.3193 99.8474 10.3193 99.8474V98.7928H10.2233Z" fill="white"/>
<path d="M271.173 48.5555L264.065 30.0522L282.41 33.8871L271.173 48.5555ZM264.834 30.7233L271.269 47.5968L281.545 34.2706L264.834 30.7233Z" fill="#744CA2"/>
<path d="M327.61 301.786L321.415 310.21L321.802 310.493L327.998 302.069L327.61 301.786Z" fill="#744CA2"/>
<path d="M263.489 232.533L256.862 224.192L257.246 223.905L263.873 232.15L263.489 232.533Z" fill="#744CA2"/>
<path d="M57.6686 290.728L44.3186 281.044L44.6067 280.661L57.9567 290.344L57.6686 290.728Z" fill="#744CA2"/>
<path d="M55.9114 279.081L45.9495 292.115L46.3317 292.405L56.2936 279.371L55.9114 279.081Z" fill="#744CA2"/>
<path d="M27.744 144.323L27.5208 144.748L36.1062 149.254L36.3294 148.83L27.744 144.323Z" fill="#744CA2"/>
<path d="M367.408 33.3121L367.024 32.9286L376.916 21.6157L377.3 21.9033L367.408 33.3121Z" fill="#744CA2"/>
<path d="M173.856 60.7699L173.426 60.9834L177.876 69.9096L178.306 69.6961L173.856 60.7699Z" fill="#744CA2"/>
<path d="M114.355 211.088L102.93 220.614L103.238 220.982L114.663 211.456L114.355 211.088Z" fill="#744CA2"/>
<defs>
<linearGradient id="paint0_linear" x1="98.5189" y1="198.673" x2="69.6618" y2="136.799" gradientUnits="userSpaceOnUse">
<stop stop-color="#DBCCFF"/>
<stop offset="1" stop-color="#D1BBFF"/>
</linearGradient>
<linearGradient id="paint1_linear" x1="99.6443" y1="201.087" x2="70.7873" y2="139.213" gradientUnits="userSpaceOnUse">
<stop stop-color="#B5A6E7"/>
<stop offset="1" stop-color="#7760BF"/>
</linearGradient>
<linearGradient id="paint2_linear" x1="92.4489" y1="185.714" x2="80.2852" y2="159.633" gradientUnits="userSpaceOnUse">
<stop stop-color="#B5A6E7"/>
<stop offset="1" stop-color="#7760BF"/>
</linearGradient>
<linearGradient id="paint3_linear" x1="76.7881" y1="161.9" x2="84.1943" y2="158.433" gradientUnits="userSpaceOnUse">
<stop stop-color="#8B8BE0"/>
<stop offset="1" stop-color="#A177B7"/>
</linearGradient>
<linearGradient id="paint4_linear" x1="81.2974" y1="161.889" x2="79.2075" y2="157.408" gradientUnits="userSpaceOnUse">
<stop stop-color="white"/>
<stop offset="1" stop-color="#A177B7"/>
</linearGradient>
<linearGradient id="paint5_linear" x1="97.6136" y1="186.546" x2="84.2042" y2="157.795" gradientUnits="userSpaceOnUse">
<stop/>
<stop offset="1" stop-color="white"/>
</linearGradient>
<linearGradient id="paint6_linear" x1="206.247" y1="348.346" x2="206.247" y2="262.819" gradientUnits="userSpaceOnUse">
<stop stop-color="#6456C0"/>
<stop offset="1" stop-color="#5F2C95"/>
</linearGradient>
<radialGradient id="paint7_radial" cx="0" cy="0" r="1" gradientUnits="userSpaceOnUse" gradientTransform="translate(164.526 317.587) rotate(12.9702) scale(17.2134 44.403)">
<stop stop-color="#4B474B"/>
<stop offset="1"/>
</radialGradient>
<radialGradient id="paint8_radial" cx="0" cy="0" r="1" gradientUnits="userSpaceOnUse" gradientTransform="translate(244.434 317.157) rotate(-15.6316) scale(17.2133 44.4035)">
<stop stop-color="#4B474B"/>
<stop offset="1"/>
</radialGradient>
<linearGradient id="paint9_linear" x1="178.517" y1="318.321" x2="200.989" y2="318.321" gradientUnits="userSpaceOnUse">
<stop stop-color="#9E8CEF"/>
<stop offset="1" stop-color="#CAAFEE"/>
</linearGradient>
<linearGradient id="paint10_linear" x1="231.029" y1="318.322" x2="208.555" y2="318.322" gradientUnits="userSpaceOnUse">
<stop stop-color="#9E8CEF"/>
<stop offset="1" stop-color="#CAAFEE"/>
</linearGradient>
<linearGradient id="paint11_linear" x1="203.232" y1="348.346" x2="203.232" y2="262.819" gradientUnits="userSpaceOnUse">
<stop stop-color="#CCCCFF"/>
<stop offset="1" stop-color="#755CBB"/>
</linearGradient>
<linearGradient id="paint12_linear" x1="213.206" y1="305.583" x2="213.206" y2="282.255" gradientUnits="userSpaceOnUse">
<stop stop-color="#CCCCFF"/>
<stop offset="1" stop-color="#755CBB"/>
</linearGradient>
<linearGradient id="paint13_linear" x1="186.139" y1="297.005" x2="186.139" y2="274.151" gradientUnits="userSpaceOnUse">
<stop stop-color="#CCCCFF"/>
<stop offset="1" stop-color="#755CBB"/>
</linearGradient>
<linearGradient id="paint14_linear" x1="209.361" y1="134.025" x2="209.361" y2="99.8855" gradientUnits="userSpaceOnUse">
<stop stop-color="#D5CDF8"/>
<stop offset="1" stop-color="#F3EDFB"/>
</linearGradient>
<linearGradient id="paint15_linear" x1="191.754" y1="116.922" x2="226.968" y2="116.922" gradientUnits="userSpaceOnUse">
<stop stop-color="#CCCCFF"/>
<stop offset="1" stop-color="#755CBB"/>
</linearGradient>
<linearGradient id="paint16_linear" x1="199.292" y1="270.43" x2="199.292" y2="98.3993" gradientUnits="userSpaceOnUse">
<stop stop-color="#9E8CEF"/>
<stop offset="1" stop-color="#CAAFEE"/>
</linearGradient>
<linearGradient id="paint17_linear" x1="127.771" y1="163.233" x2="169.741" y2="163.233" gradientUnits="userSpaceOnUse">
<stop stop-color="#CCCCFF"/>
<stop offset="1" stop-color="#755CBB"/>
</linearGradient>
<linearGradient id="paint18_linear" x1="126.472" y1="211.413" x2="126.472" y2="130.967" gradientUnits="userSpaceOnUse">
<stop stop-color="#9E8CEF"/>
<stop offset="1" stop-color="#DAC7F3"/>
</linearGradient>
<linearGradient id="paint19_linear" x1="265.055" y1="188.227" x2="319.132" y2="188.227" gradientUnits="userSpaceOnUse">
<stop stop-color="#A999F1"/>
<stop offset="1" stop-color="#DAC7F3"/>
</linearGradient>
<linearGradient id="paint20_linear" x1="108.882" y1="119.998" x2="108.882" y2="98.7868" gradientUnits="userSpaceOnUse">
<stop offset="0.0159875" stop-color="#FFC2A9"/>
<stop offset="1" stop-color="#FF9595"/>
</linearGradient>
<linearGradient id="paint21_linear" x1="122.262" y1="119.496" x2="122.262" y2="84.3845" gradientUnits="userSpaceOnUse">
<stop stop-color="#FFEADB"/>
<stop offset="0.9944" stop-color="#C27CB6"/>
</linearGradient>
<linearGradient id="paint22_linear" x1="121.121" y1="143.383" x2="121.121" y2="89.2534" gradientUnits="userSpaceOnUse">
<stop offset="0.0159875" stop-color="#FFC2A9"/>
<stop offset="1" stop-color="#FF9595"/>
</linearGradient>
<linearGradient id="paint23_linear" x1="111.424" y1="134.935" x2="128.473" y2="134.935" gradientUnits="userSpaceOnUse">
<stop offset="0.0159875" stop-color="#D1A1D6"/>
<stop offset="0.9944" stop-color="#BD89C4"/>
</linearGradient>
<linearGradient id="paint24_linear" x1="320.247" y1="176.353" x2="320.247" y2="103.968" gradientUnits="userSpaceOnUse">
<stop offset="0.0159875" stop-color="#FFC2A9"/>
<stop offset="1" stop-color="#FF9595"/>
</linearGradient>
<linearGradient id="paint25_linear" x1="328.814" y1="153.161" x2="328.814" y2="117.2" gradientUnits="userSpaceOnUse">
<stop stop-color="#FFEADB"/>
<stop offset="0.9944" stop-color="#C27CB6"/>
</linearGradient>
<linearGradient id="paint26_linear" x1="335.921" y1="140.749" x2="335.921" y2="124.628" gradientUnits="userSpaceOnUse">
<stop stop-color="#FFB0B0"/>
<stop offset="0.984" stop-color="#FFC2A9"/>
</linearGradient>
<linearGradient id="paint27_linear" x1="345.288" y1="143.232" x2="345.288" y2="134.391" gradientUnits="userSpaceOnUse">
<stop stop-color="#FFB0B0"/>
<stop offset="0.984" stop-color="#FFC2A9"/>
</linearGradient>
<linearGradient id="paint28_linear" x1="307.41" y1="160.851" x2="323.881" y2="160.851" gradientUnits="userSpaceOnUse">
<stop offset="0.0159875" stop-color="#D1A1D6"/>
<stop offset="0.9944" stop-color="#BD89C4"/>
</linearGradient>
<linearGradient id="paint29_linear" x1="284.487" y1="217.598" x2="284.487" y2="136.576" gradientUnits="userSpaceOnUse">
<stop stop-color="#CCCCFF"/>
<stop offset="1" stop-color="#755CBB"/>
</linearGradient>
<linearGradient id="paint30_linear" x1="105.777" y1="201.274" x2="241.534" y2="201.274" gradientUnits="userSpaceOnUse">
<stop stop-color="#CCCCFF"/>
<stop offset="1" stop-color="#755CBB"/>
</linearGradient>
<linearGradient id="paint31_linear" x1="225.461" y1="178.598" x2="251.41" y2="178.598" gradientUnits="userSpaceOnUse">
<stop stop-color="#CCEDFF"/>
<stop offset="1" stop-color="#755CBB"/>
</linearGradient>
<linearGradient id="paint32_linear" x1="201.925" y1="224.056" x2="240.06" y2="224.056" gradientUnits="userSpaceOnUse">
<stop stop-color="#CCEDFF"/>
<stop offset="1" stop-color="#755CBB"/>
</linearGradient>
<linearGradient id="paint33_linear" x1="203.691" y1="241.269" x2="244.434" y2="241.269" gradientUnits="userSpaceOnUse">
<stop stop-color="#CCEDFF"/>
<stop offset="1" stop-color="#755CBB"/>
</linearGradient>
<linearGradient id="paint34_linear" x1="168.627" y1="198.652" x2="168.627" y2="153.008" gradientUnits="userSpaceOnUse">
<stop stop-color="#CCEDFF"/>
<stop offset="1" stop-color="#755CBB"/>
</linearGradient>
<linearGradient id="paint35_linear" x1="172.308" y1="202.489" x2="172.308" y2="167.889" gradientUnits="userSpaceOnUse">
<stop stop-color="#CCEDFF"/>
<stop offset="1" stop-color="#755CBB"/>
</linearGradient>
<linearGradient id="paint36_linear" x1="117.527" y1="158.259" x2="117.527" y2="132.118" gradientUnits="userSpaceOnUse">
<stop stop-color="#CCEDFF"/>
<stop offset="1" stop-color="#755CBB"/>
</linearGradient>
<linearGradient id="paint37_linear" x1="138.719" y1="135.239" x2="149.273" y2="135.239" gradientUnits="userSpaceOnUse">
<stop stop-color="#CCEDFF"/>
<stop offset="1" stop-color="#755CBB"/>
</linearGradient>
<linearGradient id="paint38_linear" x1="253.45" y1="198.652" x2="253.45" y2="150.199" gradientUnits="userSpaceOnUse">
<stop stop-color="#CCCCFF"/>
<stop offset="1" stop-color="#755CBB"/>
</linearGradient>
<linearGradient id="paint39_linear" x1="308.022" y1="188.231" x2="308.022" y2="162.911" gradientUnits="userSpaceOnUse">
<stop stop-color="#CCCCFF"/>
<stop offset="1" stop-color="#755CBB"/>
</linearGradient>
<linearGradient id="paint40_linear" x1="279.255" y1="187.1" x2="279.255" y2="167.744" gradientUnits="userSpaceOnUse">
<stop stop-color="#CCCCFF"/>
<stop offset="1" stop-color="#755CBB"/>
</linearGradient>
<linearGradient id="paint41_linear" x1="112.046" y1="159.928" x2="112.046" y2="152.739" gradientUnits="userSpaceOnUse">
<stop stop-color="#CCEDFF"/>
<stop offset="1" stop-color="#755CBB"/>
</linearGradient>
<linearGradient id="paint42_linear" x1="131.282" y1="181.843" x2="131.282" y2="142.558" gradientUnits="userSpaceOnUse">
<stop stop-color="#CCCCFF"/>
<stop offset="1" stop-color="#755CBB"/>
</linearGradient>
<linearGradient id="paint43_linear" x1="232.534" y1="154.191" x2="232.534" y2="124.628" gradientUnits="userSpaceOnUse">
<stop stop-color="#CCEDFF"/>
<stop offset="1" stop-color="#755CBB"/>
</linearGradient>
<linearGradient id="paint44_linear" x1="193.735" y1="150.195" x2="193.735" y2="109.393" gradientUnits="userSpaceOnUse">
<stop stop-color="#CCEDFF"/>
<stop offset="1" stop-color="#755CBB"/>
</linearGradient>
<linearGradient id="paint45_linear" x1="179.933" y1="157.658" x2="248.204" y2="157.658" gradientUnits="userSpaceOnUse">
<stop stop-color="#8642A0"/>
<stop offset="1" stop-color="#6456C0"/>
</linearGradient>
<linearGradient id="paint46_linear" x1="185.819" y1="118.331" x2="230.249" y2="118.331" gradientUnits="userSpaceOnUse">
<stop stop-color="#CCCCFF"/>
<stop offset="1" stop-color="#755CBB"/>
</linearGradient>
<linearGradient id="paint47_linear" x1="300.035" y1="185.344" x2="300.035" y2="159.678" gradientUnits="userSpaceOnUse">
<stop stop-color="#CCCCFF"/>
<stop offset="1" stop-color="#755CBB"/>
</linearGradient>
<linearGradient id="paint48_linear" x1="263.691" y1="214.299" x2="263.691" y2="136.576" gradientUnits="userSpaceOnUse">
<stop stop-color="#CCCCFF"/>
<stop offset="1" stop-color="#755CBB"/>
</linearGradient>
<linearGradient id="paint49_linear" x1="179.98" y1="250.807" x2="179.98" y2="228.526" gradientUnits="userSpaceOnUse">
<stop stop-color="#CCCCFF"/>
<stop offset="1" stop-color="#755CBB"/>
</linearGradient>
<linearGradient id="paint50_linear" x1="223.338" y1="244.686" x2="223.338" y2="233.866" gradientUnits="userSpaceOnUse">
<stop stop-color="#CCCCFF"/>
<stop offset="1" stop-color="#755CBB"/>
</linearGradient>
<linearGradient id="paint51_linear" x1="222.86" y1="105.611" x2="222.86" y2="31.5911" gradientUnits="userSpaceOnUse">
<stop offset="0.0159875" stop-color="#FFC2A9"/>
<stop offset="1" stop-color="#FF9595"/>
</linearGradient>
<linearGradient id="paint52_linear" x1="195.217" y1="75.7423" x2="195.217" y2="53.9195" gradientUnits="userSpaceOnUse">
<stop offset="0.0159875" stop-color="#FFC2A9"/>
<stop offset="1" stop-color="#FF9595"/>
</linearGradient>
<linearGradient id="paint53_linear" x1="233.167" y1="83.995" x2="234.08" y2="79.2303" gradientUnits="userSpaceOnUse">
<stop stop-color="#E1616A"/>
<stop offset="1" stop-color="#FF8883"/>
</linearGradient>
<linearGradient id="paint54_linear" x1="224.893" y1="80.3498" x2="224.893" y2="32.6663" gradientUnits="userSpaceOnUse">
<stop stop-color="#FFEADB"/>
<stop offset="0.9944" stop-color="#C27CB6"/>
</linearGradient>
<linearGradient id="paint55_linear" x1="222.565" y1="60.8222" x2="222.565" y2="51.3763" gradientUnits="userSpaceOnUse">
<stop stop-color="#CF6074"/>
<stop offset="1" stop-color="#F37270"/>
</linearGradient>
<linearGradient id="paint56_linear" x1="241.439" y1="63.8196" x2="241.439" y2="55.5999" gradientUnits="userSpaceOnUse">
<stop stop-color="#CF6074"/>
<stop offset="1" stop-color="#FF817F"/>
</linearGradient>
<linearGradient id="paint57_linear" x1="242.214" y1="68.6023" x2="242.214" y2="50.1055" gradientUnits="userSpaceOnUse">
<stop stop-color="#FFEADB"/>
<stop offset="0.9944" stop-color="#C27CB6"/>
</linearGradient>
<linearGradient id="paint58_linear" x1="223.856" y1="106.542" x2="223.856" y2="16.7747" gradientUnits="userSpaceOnUse">
<stop stop-color="#2E33A0"/>
<stop offset="1" stop-color="#0665A5"/>
</linearGradient>
<linearGradient id="paint59_linear" x1="247.476" y1="50.0131" x2="247.476" y2="29.3048" gradientUnits="userSpaceOnUse">
<stop stop-color="#FFEADB"/>
<stop offset="0.9944" stop-color="#8860C7"/>
</linearGradient>
<linearGradient id="paint60_linear" x1="219.205" y1="106.542" x2="219.205" y2="16.7744" gradientUnits="userSpaceOnUse">
<stop stop-color="#CCC2DB"/>
<stop offset="0.9944" stop-color="#8860C7"/>
</linearGradient>
<linearGradient id="paint61_linear" x1="225.235" y1="106.52" x2="225.235" y2="102.664" gradientUnits="userSpaceOnUse">
<stop stop-color="#776D7E"/>
<stop offset="1" stop-color="#9D68C2"/>
</linearGradient>
<linearGradient id="paint62_linear" x1="236.571" y1="23.2168" x2="236.571" y2="20.3515" gradientUnits="userSpaceOnUse">
<stop stop-color="#1F77D1"/>
<stop offset="1" stop-color="#0686C9"/>
</linearGradient>
<linearGradient id="paint63_linear" x1="218.285" y1="32.6505" x2="218.285" y2="24.1788" gradientUnits="userSpaceOnUse">
<stop stop-color="#1F77D1"/>
<stop offset="1" stop-color="#0686C9"/>
</linearGradient>
<linearGradient id="paint64_linear" x1="249.039" y1="36.9458" x2="249.039" y2="29.3048" gradientUnits="userSpaceOnUse">
<stop stop-color="#1F77D1"/>
<stop offset="1" stop-color="#0686C9"/>
</linearGradient>
<linearGradient id="paint65_linear" x1="198.401" y1="70.57" x2="188.63" y2="58.5774" gradientUnits="userSpaceOnUse">
<stop stop-color="#FFEADB"/>
<stop offset="0.9944" stop-color="#B060F4"/>
</linearGradient>
<linearGradient id="paint66_linear" x1="199.426" y1="69.0276" x2="194.618" y2="63.1269" gradientUnits="userSpaceOnUse">
<stop stop-color="#FFEADB"/>
<stop offset="0.9944" stop-color="#B060F4"/>
</linearGradient>
<linearGradient id="paint67_linear" x1="217.718" y1="33.4084" x2="234.302" y2="33.4084" gradientUnits="userSpaceOnUse">
<stop stop-color="#1F77D1"/>
<stop offset="1" stop-color="#0686C9"/>
</linearGradient>
<linearGradient id="paint68_linear" x1="241.109" y1="82.9151" x2="246.138" y2="82.9151" gradientUnits="userSpaceOnUse">
<stop stop-color="#1F77D1"/>
<stop offset="1" stop-color="#0686C9"/>
</linearGradient>
<linearGradient id="paint69_linear" x1="234.899" y1="79.1816" x2="240.324" y2="79.1816" gradientUnits="userSpaceOnUse">
<stop stop-color="#1F77D1"/>
<stop offset="1" stop-color="#0686C9"/>
</linearGradient>
<linearGradient id="paint70_linear" x1="274.914" y1="92.3174" x2="444.967" y2="92.3174" gradientUnits="userSpaceOnUse">
<stop stop-color="#9D68C2"/>
<stop offset="1" stop-color="#AEC2FF"/>
</linearGradient>
<linearGradient id="paint71_linear" x1="309.507" y1="156.43" x2="309.507" y2="105.233" gradientUnits="userSpaceOnUse">
<stop stop-color="#CCEDFF"/>
<stop offset="1" stop-color="#9D68C2"/>
</linearGradient>
<linearGradient id="paint72_linear" x1="396.963" y1="131.469" x2="396.963" y2="108.917" gradientUnits="userSpaceOnUse">
<stop stop-color="#CCEDFF"/>
<stop offset="1" stop-color="#9D68C2"/>
</linearGradient>
<linearGradient id="paint73_linear" x1="423.618" y1="131.469" x2="423.618" y2="108.917" gradientUnits="userSpaceOnUse">
<stop stop-color="#CCEDFF"/>
<stop offset="1" stop-color="#9D68C2"/>
</linearGradient>
<linearGradient id="paint74_linear" x1="369.862" y1="131.469" x2="369.862" y2="108.917" gradientUnits="userSpaceOnUse">
<stop stop-color="#CCEDFF"/>
<stop offset="1" stop-color="#9D68C2"/>
</linearGradient>
<linearGradient id="paint75_linear" x1="126.885" y1="76.0589" x2="126.885" y2="52.4534" gradientUnits="userSpaceOnUse">
<stop stop-color="#D93DE3"/>
<stop offset="1" stop-color="#FF6DBA"/>
</linearGradient>
<linearGradient id="paint76_linear" x1="141.339" y1="76.0589" x2="141.339" y2="52.4534" gradientUnits="userSpaceOnUse">
<stop stop-color="#A242EA"/>
<stop offset="1" stop-color="#FE117E"/>
</linearGradient>
<linearGradient id="paint77_linear" x1="122.781" y1="324.733" x2="135.525" y2="223.09" gradientUnits="userSpaceOnUse">
<stop stop-color="#067EFF"/>
<stop offset="1" stop-color="#3E37A0"/>
</linearGradient>
<linearGradient id="paint78_linear" x1="421.335" y1="73.4904" x2="421.335" y2="64.9222" gradientUnits="userSpaceOnUse">
<stop stop-color="#459FFF"/>
<stop offset="1" stop-color="#A96DFF"/>
</linearGradient>
<linearGradient id="paint79_linear" x1="17.9602" y1="173.897" x2="17.9602" y2="163.233" gradientUnits="userSpaceOnUse">
<stop stop-color="#459FFF"/>
<stop offset="1" stop-color="#A96DFF"/>
</linearGradient>
<linearGradient id="paint80_linear" x1="433.941" y1="73.4904" x2="433.941" y2="64.9222" gradientUnits="userSpaceOnUse">
<stop stop-color="#B31A8F"/>
<stop offset="1" stop-color="#FE117E"/>
</linearGradient>
<linearGradient id="paint81_linear" x1="157.172" y1="101.693" x2="157.172" y2="95.6344" gradientUnits="userSpaceOnUse">
<stop stop-color="#B31A8F"/>
<stop offset="1" stop-color="#FE117E"/>
</linearGradient>
<linearGradient id="paint82_linear" x1="360.454" y1="235.374" x2="360.454" y2="229.316" gradientUnits="userSpaceOnUse">
<stop stop-color="#8642A0"/>
<stop offset="1" stop-color="#6456C0"/>
</linearGradient>
<linearGradient id="paint83_linear" x1="44.9316" y1="265.257" x2="44.9316" y2="259.84" gradientUnits="userSpaceOnUse">
<stop stop-color="#8642A0"/>
<stop offset="1" stop-color="#6456C0"/>
</linearGradient>
<linearGradient id="paint84_linear" x1="67.6983" y1="235.958" x2="67.6983" y2="191.221" gradientUnits="userSpaceOnUse">
<stop stop-color="#D906E3"/>
<stop offset="1" stop-color="#FF6DF9"/>
</linearGradient>
<linearGradient id="paint85_linear" x1="377.143" y1="299.283" x2="377.143" y2="243.319" gradientUnits="userSpaceOnUse">
<stop stop-color="#D906E3"/>
<stop offset="1" stop-color="#FF6DF9"/>
</linearGradient>
<linearGradient id="paint86_linear" x1="304.396" y1="267.986" x2="310.423" y2="227.223" gradientUnits="userSpaceOnUse">
<stop stop-color="#1852A0"/>
<stop offset="1" stop-color="#067ED3"/>
</linearGradient>
<linearGradient id="paint87_linear" x1="299.884" y1="266.934" x2="310.771" y2="226.428" gradientUnits="userSpaceOnUse">
<stop stop-color="#1852A0"/>
<stop offset="1" stop-color="#067ED3"/>
</linearGradient>
<linearGradient id="paint88_linear" x1="294.754" y1="265.263" x2="301.18" y2="224.23" gradientUnits="userSpaceOnUse">
<stop stop-color="#188DC1"/>
<stop offset="1" stop-color="#06BFE7"/>
</linearGradient>
<linearGradient id="paint89_linear" x1="333.074" y1="49.3203" x2="343.92" y2="8.96463" gradientUnits="userSpaceOnUse">
<stop stop-color="#188DC1"/>
<stop offset="1" stop-color="#06BFE7"/>
</linearGradient>
<linearGradient id="paint90_linear" x1="314.366" y1="44.6659" x2="322.455" y2="14.5718" gradientUnits="userSpaceOnUse">
<stop stop-color="#1852A0"/>
<stop offset="1" stop-color="#067ED3"/>
</linearGradient>
<linearGradient id="paint91_linear" x1="18.4171" y1="118.802" x2="11.0224" y2="91.2907" gradientUnits="userSpaceOnUse">
<stop stop-color="#188DC1"/>
<stop offset="1" stop-color="#06BFE7"/>
</linearGradient>
<linearGradient id="paint92_linear" x1="31.1701" y1="115.629" x2="25.6556" y2="95.1133" gradientUnits="userSpaceOnUse">
<stop stop-color="#1852A0"/>
<stop offset="1" stop-color="#067ED3"/>
</linearGradient>
</defs>
</svg>
