<svg width="151" height="200" viewBox="0 0 151 200" fill="none" xmlns="http://www.w3.org/2000/svg">
<g opacity="0.7">
<path opacity="0.7" d="M122.526 260.55C125.4 262.29 97.3875 219.946 92.8568 156.841C90.7232 127.103 93.7981 90.3444 78.3611 74.7382C65.5221 61.754 17.7553 65.145 2.10495 66.6578C0.147086 66.8468 -0.70634 69.2294 0.686753 70.6286C7.55182 77.4989 22.1103 93.5715 24.9718 108.762C28.7369 128.767 46.1819 142.798 62.4472 147.575C78.7251 152.366 87.6609 156.425 93.4592 183.717C99.2575 210.996 114.356 255.621 122.526 260.55Z" fill="url(#paint0_linear)"/>
<path opacity="0.5" d="M23.0766 76.8306C32.9789 78.1542 42.5799 81.4948 51.2271 86.6002C55.557 89.134 59.5857 92.2477 63.15 95.8278C66.6892 99.4331 69.7892 103.53 72.1235 108.03L72.9895 109.72C73.2782 110.287 73.5041 110.879 73.7676 111.459C74.0186 112.039 74.2822 112.632 74.5081 113.211L75.1858 114.951C76.102 117.271 77.0056 119.59 77.8842 121.922C79.6538 126.574 81.3355 131.263 82.9545 135.978C86.1925 145.394 89.1419 154.912 91.5013 164.619C91.5641 164.858 91.4135 165.098 91.175 165.161C90.9491 165.224 90.7107 165.085 90.6354 164.858V164.845C89.1921 160.106 87.6609 155.378 86.0419 150.689C84.448 145.987 82.7914 141.31 81.0845 136.646L78.5117 129.662L75.851 122.704C74.9725 120.384 74.0563 118.077 73.1401 115.77L72.4498 114.043C72.2239 113.464 71.9729 112.921 71.7219 112.367C71.4709 111.812 71.2576 111.245 70.9815 110.703L70.1531 109.077C67.9443 104.74 64.9824 100.832 61.6314 97.3027C59.9246 95.5757 58.1424 93.8991 56.2222 92.399L55.5068 91.8191L54.7789 91.277C54.2894 90.9115 53.8125 90.5333 53.3105 90.1803C52.3065 89.487 51.3025 88.781 50.2608 88.1508C46.1317 85.5287 41.6763 83.3983 37.108 81.6209C32.5396 79.8434 27.7705 78.4442 22.9511 77.5617H22.926C22.7252 77.5239 22.5997 77.3348 22.6374 77.1457C22.7127 76.944 22.8884 76.8054 23.0766 76.8306Z" fill="white"/>
</g>
<g opacity="0.99">
<path opacity="0.99" d="M127.86 197.57C127.86 197.57 129.479 154.962 110.101 143.276C90.7231 131.591 53.6618 123.926 53.1347 62.699C52.8335 26.8603 52.1683 11.1785 51.6788 4.33343C51.4906 1.66097 53.8752 -0.456833 56.4856 0.0852238C74.9473 3.85441 134.875 19.1328 146.899 60.5434C161.143 109.631 127.86 197.57 127.86 197.57Z" fill="url(#paint1_linear)"/>
<path opacity="0.5" d="M70.4667 17.4057C71.8849 18.7167 73.2403 20.0656 74.5707 21.427C75.2484 22.1077 75.901 22.8011 76.5536 23.507C77.2063 24.2003 77.8714 24.8936 78.5115 25.6122C79.7916 27.0241 81.0843 28.4359 82.3268 29.8982L84.2094 32.0664L86.0417 34.2725L87.8615 36.4911L89.6311 38.7476L91.4007 41.0041C91.9906 41.7604 92.5554 42.5294 93.1327 43.2983L94.8521 45.6052L95.7055 46.7524L96.5338 47.9247L99.8471 52.6267C101.968 55.8161 104.127 58.9928 106.097 62.2703L107.616 64.7159L108.369 65.9386L109.084 67.1866L111.958 72.166L112.674 73.414L113.351 74.6872L114.694 77.2336L116.037 79.78L116.715 81.0532L117.342 82.3516C118.999 85.8182 120.756 89.2092 122.25 92.8019C122.651 93.6843 122.99 94.592 123.354 95.487C123.705 96.382 124.069 97.277 124.421 98.1847L125.4 100.908L125.889 102.269L126.328 103.643L127.22 106.404L128.023 109.19C128.588 111.043 129.002 112.921 129.491 114.787C131.261 122.3 132.541 129.926 133.219 137.603C133.947 145.268 134.122 152.983 133.859 160.672C133.708 164.517 133.432 168.349 133.043 172.182C132.654 176.014 132.139 179.796 131.374 183.628C131.248 184.258 130.646 184.662 130.018 184.535C129.416 184.409 129.014 183.842 129.102 183.237L129.115 183.187C130.194 175.762 130.696 168.148 130.771 160.597C130.859 153.033 130.52 145.47 129.73 137.956C128.939 130.443 127.659 122.993 125.889 115.669C124.044 108.37 121.81 101.16 118.848 94.2516C112.849 80.4103 105.47 67.0858 97.2869 54.3538L94.1367 49.6265L93.346 48.4416L92.5303 47.2818L90.8987 44.9497C90.3591 44.1808 89.8194 43.3866 89.2672 42.6302L87.598 40.2981L85.9162 38.0038L84.1843 35.7474C79.6034 29.7091 74.7464 23.8474 69.5756 18.3385L69.5631 18.3259C69.3121 18.0612 69.3246 17.6452 69.5882 17.4057C69.8392 17.1662 70.2283 17.1662 70.4667 17.4057Z" fill="white"/>
</g>
<defs>
<linearGradient id="paint0_linear" x1="-16.9471" y1="54.5405" x2="163.388" y2="226.901" gradientUnits="userSpaceOnUse">
<stop stop-color="#B37CFF"/>
<stop offset="1" stop-color="#F895E7"/>
</linearGradient>
<linearGradient id="paint1_linear" x1="51.6657" y1="98.7862" x2="150.439" y2="98.7862" gradientUnits="userSpaceOnUse">
<stop stop-color="#A737D5"/>
<stop offset="1" stop-color="#EF497A"/>
</linearGradient>
</defs>
</svg>
