<svg width="160" height="160" viewBox="0 0 160 160" fill="none" xmlns="http://www.w3.org/2000/svg">
<path opacity="0.3" d="M150.189 107.92C135.002 143.537 94.5473 163.485 59.4686 158.103C53.7598 157.228 38.1081 154.617 24.2522 142.314C-2.4212 118.623 -8.12996 71.7083 13.3912 38.6512C29.0544 14.5883 57.122 0.948331 83.8011 1.63405C89.5443 1.78262 111.565 2.68547 130.917 18.5769C133.757 20.914 140.028 26.4569 145.679 35.2569C158.944 55.9198 160.086 84.7141 150.189 107.92Z" fill="url(#paint0_linear)"/>
<path d="M113.842 153.634C121.634 155.183 131.577 146.726 134.784 137.486C138.083 127.977 132.036 123.994 132.082 110.8C132.133 95.8114 139.965 93.5543 145.14 73.3486C146.31 68.7886 153.069 42.4114 144.692 37.4686C136.947 32.8971 115.185 46.0171 111.369 62.8114C108.65 74.7829 117.055 79.8114 113.848 93.76C111.031 105.994 103.624 106.171 100.79 117.977C97.3299 132.349 103.618 151.594 113.842 153.634Z" fill="url(#paint1_linear)"/>
<path d="M114.41 157.263C112.31 141.114 116.407 116.2 120.211 98.143C124.33 78.5944 129.006 62.6458 129.052 62.4858L129.701 62.6744C129.655 62.8344 124.984 78.7601 120.871 98.2801C117.078 116.286 112.993 141.114 115.076 157.172L114.41 157.263Z" fill="url(#paint2_linear)"/>
<path d="M115.891 152.983C105.672 147.68 102.178 129.474 107.984 123.554C111.909 119.554 117.537 123.76 122.965 119.617C129.896 114.326 124.795 104.36 130.246 91.4342C134.882 80.4342 146.006 70.0285 152.507 72.16C159.312 74.3942 162.897 90.9828 157.085 100.966C153.304 107.457 147.521 107.777 146.265 113.811C144.807 120.817 151.841 124.011 151.882 130.806C151.956 143.011 129.408 160 115.891 152.983Z" fill="url(#paint3_linear)"/>
<path d="M121.404 157.645C121.341 157.645 121.284 157.634 121.221 157.605C121.014 157.508 120.928 157.257 121.026 157.051C134.572 129.251 138.542 97.0054 138.582 96.6797C138.611 96.4511 138.817 96.2911 139.047 96.3197C139.276 96.3483 139.437 96.554 139.408 96.7826C139.368 97.1083 135.381 129.497 121.777 157.417C121.708 157.56 121.559 157.645 121.404 157.645Z" fill="url(#paint4_linear)"/>
<path d="M149.196 105.034C149.156 105.034 149.11 105.023 149.076 104.994C148.99 104.926 148.973 104.8 149.041 104.714C153.316 99.2457 158.055 91.0343 156.351 82.9543C155.335 78.1428 152.478 75.6286 152.45 75.6057C152.369 75.5314 152.358 75.4114 152.427 75.3257C152.501 75.2457 152.622 75.2343 152.708 75.3028C152.828 75.4057 155.697 77.9257 156.741 82.8685C157.699 87.4114 157.194 94.9314 149.357 104.954C149.311 105.006 149.254 105.034 149.196 105.034Z" fill="#F0F0F0"/>
<path d="M114.973 150.56C114.909 150.56 114.846 150.531 114.806 150.474C108.237 140.925 105.993 133.543 108.145 128.543C110.056 124.097 114.887 123.268 114.938 123.257C115.047 123.24 115.15 123.314 115.168 123.423C115.185 123.531 115.11 123.634 115.001 123.651C114.955 123.657 110.331 124.457 108.506 128.703C106.418 133.571 108.644 140.823 115.133 150.251C115.196 150.343 115.173 150.463 115.082 150.525C115.047 150.548 115.007 150.56 114.973 150.56Z" fill="#F0F0F0"/>
<path d="M126.27 8.57147C126.247 34.0115 126.052 121.754 124.52 152.811C124.359 156.103 122.035 158.697 119.207 158.743C105.219 158.966 53.9491 159.189 31.1141 157.566C26.3578 157.229 22.6686 152.651 22.6973 147.097C22.8178 120.4 23.4374 45.3143 26.6906 10.9829C27.0807 6.86861 29.9265 3.65147 33.4665 3.31432C48.7281 1.87433 100.279 -1.32567 119.999 0.60004C123.562 0.948611 126.275 4.41147 126.27 8.57147Z" fill="url(#paint5_linear)"/>
<path d="M119.861 16.2345C120.159 36.7716 121.014 105.097 119.7 130.332C119.511 134.017 116.946 136.949 113.779 137.092C100.732 137.692 56.2499 138.669 37.1844 136.469C33.7534 136.075 31.1256 132.772 31.0281 128.749C30.5232 107.789 29.1577 44.1545 30.4371 19.2116C30.6437 15.2345 33.3632 12.0402 36.777 11.7545C50.9026 10.5888 98.202 8.12593 114.416 9.5145C117.451 9.77736 119.809 12.6802 119.861 16.2345Z" fill="url(#paint6_linear)"/>
<g opacity="0.3">
<path opacity="0.3" d="M114.743 22.2115C115.007 40.4 115.764 100.903 114.6 123.246C114.428 126.509 112.161 129.103 109.356 129.234C97.8062 129.766 58.4129 130.634 41.5276 128.68C38.4868 128.331 36.1631 125.406 36.077 121.846C35.6295 103.286 34.4189 46.9372 35.5549 24.8458C35.7328 21.32 38.1425 18.4915 41.1661 18.2458C53.6738 17.2172 95.5628 15.0343 109.918 16.2629C112.609 16.4915 114.703 19.0629 114.743 22.2115Z" fill="white"/>
</g>
<path opacity="0.5" d="M91.8048 4.423C91.7876 5.20586 91.254 5.83443 90.5827 5.863C87.278 5.99443 77.9661 6.35443 73.8007 6.543C72.9803 6.583 72.3549 5.70872 72.5327 4.77158L72.5614 4.61158C72.6819 3.97158 73.1466 3.503 73.7089 3.45158C76.526 3.21158 85.0231 2.57158 90.6343 2.92586C91.3056 2.97729 91.822 3.64015 91.8048 4.423Z" fill="white"/>
<path d="M71.8615 49.4685C71.8615 51.0056 70.473 52.2571 68.7575 52.2571H42.2505C40.535 52.2571 39.1465 51.0114 39.1465 49.4685V22.0742C39.1465 20.5371 40.535 19.2856 42.2505 19.2856H68.7575C70.473 19.2856 71.8615 20.5314 71.8615 22.0742V49.4685Z" fill="url(#paint7_linear)"/>
<path d="M111.163 49.4685C111.163 51.0056 109.774 52.2571 108.059 52.2571H81.552C79.8365 52.2571 78.448 51.0114 78.448 49.4685V22.0742C78.448 20.5371 79.8365 19.2856 81.552 19.2856H108.059C109.774 19.2856 111.163 20.5314 111.163 22.0742V49.4685Z" fill="url(#paint8_linear)"/>
<path d="M71.8615 88.343C71.8615 89.8802 70.473 91.1316 68.7575 91.1316H42.2505C40.535 91.1316 39.1465 89.8859 39.1465 88.343V60.9487C39.1465 59.4116 40.535 58.1602 42.2505 58.1602H68.7575C70.473 58.1602 71.8615 59.4059 71.8615 60.9487V88.343Z" fill="url(#paint9_linear)"/>
<path d="M111.163 88.343C111.163 89.8802 109.774 91.1316 108.059 91.1316H81.552C79.8365 91.1316 78.448 89.8859 78.448 88.343V60.9487C78.448 59.4116 79.8365 58.1602 81.552 58.1602H108.059C109.774 58.1602 111.163 59.4059 111.163 60.9487V88.343Z" fill="url(#paint10_linear)"/>
<path d="M71.8615 127.212C71.8615 128.749 70.473 130 68.7575 130H42.2505C40.535 130 39.1465 128.755 39.1465 127.212V99.8174C39.1465 98.2802 40.535 97.0288 42.2505 97.0288H68.7575C70.473 97.0288 71.8615 98.2745 71.8615 99.8174V127.212Z" fill="url(#paint11_linear)"/>
<path d="M111.163 127.212C111.163 128.749 109.774 130 108.059 130H81.552C79.8365 130 78.448 128.755 78.448 127.212V99.8174C78.448 98.2802 79.8365 97.0288 81.552 97.0288H108.059C109.774 97.0288 111.163 98.2745 111.163 99.8174V127.212Z" fill="url(#paint12_linear)"/>
<path d="M94.6276 45.3144C89.418 45.3144 85.1838 41.0972 85.1838 35.9086C85.1838 30.7201 89.418 26.5029 94.6276 26.5029C99.8372 26.5029 104.071 30.7201 104.071 35.9086C104.071 41.0915 99.8372 45.3144 94.6276 45.3144ZM94.6276 28.0801C90.2958 28.0801 86.7673 31.5944 86.7673 35.9086C86.7673 40.2229 90.2958 43.7372 94.6276 43.7372C98.9594 43.7372 102.488 40.2229 102.488 35.9086C102.488 31.5944 98.9651 28.0801 94.6276 28.0801Z" fill="white"/>
<path fill-rule="evenodd" clip-rule="evenodd" d="M91.6728 39.5312V32.7655C91.6728 32.0455 92.4646 31.5941 93.0842 31.9655L98.8044 35.3484C99.4184 35.7084 99.4184 36.5884 98.8044 36.9541L93.0842 40.3369C92.4588 40.6969 91.6728 40.2512 91.6728 39.5312Z" fill="white"/>
<path d="M86.4919 80.1429H99.9978C100.348 80.1429 100.658 79.9372 100.761 79.6058L104.645 66.5715L108.724 66.0458C109.161 65.9886 109.465 65.5944 109.407 65.1601C109.35 64.7258 108.954 64.4229 108.518 64.4801L103.928 65.0801C103.618 65.1201 103.36 65.3315 103.268 65.6343L99.4069 78.6001H87.1517L85.3674 69.2172C85.287 68.7886 84.8682 68.5086 84.4379 68.5886C84.0076 68.6686 83.7265 69.0858 83.8068 69.5144L85.7116 79.5258C85.7862 79.8972 86.1132 80.1429 86.4919 80.1429Z" fill="white"/>
<path d="M84.6669 70.12H102.774C103.21 70.12 103.566 69.7886 103.566 69.3486C103.566 68.9086 103.21 68.5771 102.774 68.5771H84.6669C84.2309 68.5771 83.8752 68.9086 83.8752 69.3486C83.8752 69.7886 84.2309 70.12 84.6669 70.12Z" fill="white"/>
<path d="M96.848 79.4056C97.284 79.4056 97.7201 79.0514 97.7201 78.6171V69.4399C97.7201 69.0056 97.2897 68.6514 96.848 68.6514C96.4119 68.6514 95.9759 69.0056 95.9759 69.4399V78.6171C95.9759 79.0514 96.4062 79.4056 96.848 79.4056Z" fill="white"/>
<path d="M90.1696 79.4056C90.6056 79.4056 90.9441 79.0514 90.9441 78.6171V69.4399C90.9441 69.0056 90.6114 68.6514 90.1696 68.6514C89.7335 68.6514 89.395 69.0056 89.395 69.4399V78.6171C89.395 79.0514 89.7335 79.4056 90.1696 79.4056Z" fill="white"/>
<path d="M85.6198 75.1317H101.186C101.622 75.1317 101.977 74.8003 101.977 74.3603C101.977 73.926 101.622 73.5889 101.186 73.5889H85.6198C85.1838 73.5889 84.828 73.9203 84.828 74.3603C84.828 74.8003 85.1838 75.1317 85.6198 75.1317Z" fill="white"/>
<path d="M97.8062 84.8231C98.687 84.8231 99.4012 84.1119 99.4012 83.2345C99.4012 82.3572 98.687 81.646 97.8062 81.646C96.9253 81.646 96.2112 82.3572 96.2112 83.2345C96.2112 84.1119 96.9253 84.8231 97.8062 84.8231Z" fill="white"/>
<path d="M88.0755 84.8231C88.9563 84.8231 89.6705 84.1119 89.6705 83.2345C89.6705 82.3572 88.9563 81.646 88.0755 81.646C87.1946 81.646 86.4805 82.3572 86.4805 83.2345C86.4805 84.1119 87.1946 84.8231 88.0755 84.8231Z" fill="white"/>
<path d="M66.3707 42.1826C66.3707 43.4569 65.3322 44.4855 64.0585 44.4855H47.0126C45.7331 44.4855 44.7004 43.4512 44.7004 42.1826V29.6398C44.7004 28.3655 45.7389 27.3369 47.0126 27.3369H64.0585C65.338 27.3369 66.3707 28.3712 66.3707 29.6398V42.1826ZM65.0167 29.8569C65.0167 29.4226 64.661 29.0683 64.2249 29.0683H47.0355C46.5995 29.0683 46.2438 29.4226 46.2438 29.8569V42.3541C46.2438 42.7884 46.5995 43.1426 47.0355 43.1426H64.2249C64.661 43.1426 65.0167 42.7884 65.0167 42.3541V29.8569Z" fill="white"/>
<path d="M55.4237 36.1996C55.2688 36.1996 55.1139 36.1539 54.9819 36.0567L45.4405 29.3196C45.0963 29.0796 45.016 28.6053 45.2569 28.2624C45.4979 27.9196 45.9741 27.8396 46.3184 28.0796L55.4237 34.5082L64.4028 28.1539C64.747 27.9082 65.2232 27.9939 65.4642 28.331C65.7109 28.6739 65.6249 29.1482 65.2863 29.3882L55.8655 36.0567C55.7335 36.1539 55.5786 36.1996 55.4237 36.1996Z" fill="white"/>
<path d="M45.997 43.9026L45.7733 42.3997L45.8766 43.154L45.2397 42.7426C45.4176 42.4626 48.86 36.4626 51.1263 32.5026C51.3329 32.1369 51.7976 32.0111 52.1648 32.2169C52.532 32.4226 52.6582 32.8911 52.4517 33.2511C52.4517 33.2511 50.9772 35.8169 49.5026 38.3883C48.7625 39.674 48.0281 40.9597 47.4716 41.9197C46.37 43.8397 46.37 43.8397 45.997 43.9026Z" fill="white"/>
<path d="M64.7872 43.9027C64.42 43.8456 64.42 43.8456 63.3126 41.9256C62.7561 40.9599 62.016 39.6799 61.2816 38.3941C59.8071 35.8227 58.3325 33.257 58.3325 33.257C58.126 32.8913 58.2522 32.4284 58.6194 32.2227C58.9866 32.017 59.4514 32.1427 59.6579 32.5084C61.9299 36.4684 65.3666 42.4627 65.5445 42.7484L64.9077 43.1599L64.7872 43.9027Z" fill="white"/>
<path d="M68.3042 79.6513C68.3042 81.4113 66.8698 82.8398 65.1027 82.8398H48.8658C47.0986 82.8398 45.6643 81.4113 45.6643 79.6513V68.8741C45.6643 67.1141 47.0986 65.6855 48.8658 65.6855H65.1085C66.8756 65.6855 68.3099 67.1141 68.3099 68.8741V79.6513H68.3042ZM66.9502 69.0055C66.9502 68.0284 66.1527 67.2341 65.1716 67.2341H48.992C48.0109 67.2341 47.2134 68.0284 47.2134 69.0055V79.5313C47.2134 80.5084 48.0109 81.3027 48.992 81.3027H65.1716C66.1527 81.3027 66.9502 80.5084 66.9502 79.5313V69.0055Z" fill="white"/>
<path d="M64.8216 65.3542C64.8216 65.9656 64.3282 66.457 63.7143 66.457H61.0923C60.4783 66.457 59.9849 65.9656 59.9849 65.3542V65.2513C59.9849 64.6399 60.4783 64.1484 61.0923 64.1484H63.7143C64.3282 64.1484 64.8216 64.6399 64.8216 65.2513V65.3542Z" fill="white"/>
<path d="M63.852 70.463C63.852 70.9144 63.4848 71.2801 63.0315 71.2801H60.2202C59.7669 71.2801 59.3997 70.9144 59.3997 70.463V70.3601C59.3997 69.9087 59.7669 69.543 60.2202 69.543H63.0315C63.4848 69.543 63.852 69.9087 63.852 70.3601V70.463Z" fill="white"/>
<path d="M59.5948 74.7658C59.5948 77.4172 57.4375 79.5658 54.7753 79.5658H54.3508C51.6886 79.5658 49.5313 77.4172 49.5313 74.7658V74.343C49.5313 71.6915 51.6886 69.543 54.3508 69.543H54.7753C57.4375 69.543 59.5948 71.6915 59.5948 74.343V74.7658ZM58.0514 74.0858C58.0514 72.2173 56.531 70.6973 54.6491 70.6973H54.0926C52.2164 70.6973 50.6903 72.2115 50.6903 74.0858V74.6401C50.6903 76.5087 52.2107 78.0287 54.0926 78.0287H54.6491C56.5253 78.0287 58.0514 76.5144 58.0514 74.6401V74.0858Z" fill="white"/>
<path d="M54.8958 123.126C54.7294 123.126 54.5631 123.12 54.3909 123.114C48.6478 122.863 44.1668 118.309 44.402 112.96C44.5168 110.36 45.7159 107.966 47.7699 106.223C49.8125 104.492 52.4689 103.6 55.2401 103.72C60.9833 103.972 65.4642 108.526 65.229 113.874C65.1142 116.474 63.9151 118.869 61.8611 120.612C59.9448 122.246 57.4892 123.126 54.8958 123.126ZM54.7467 105.08C52.4804 105.08 50.3403 105.846 48.665 107.263C46.8978 108.76 45.8708 110.806 45.779 113.017C45.5782 117.612 49.4682 121.526 54.4598 121.743C56.881 121.846 59.1989 121.074 60.9775 119.566C62.7447 118.069 63.7717 116.023 63.8692 113.812C64.07 109.217 60.18 105.303 55.1884 105.086C55.0393 105.086 54.8901 105.08 54.7467 105.08Z" fill="white"/>
<path d="M57.3113 113.463C57.3113 115.052 57.2023 116.646 56.9211 118.218C56.8523 118.612 56.7662 119 56.6687 119.383C56.5711 119.772 56.4564 120.155 56.3187 120.526C56.181 120.898 56.0146 121.269 55.7966 121.606C55.6876 121.772 55.5614 121.932 55.4007 122.063C55.3204 122.126 55.2401 122.189 55.1425 122.229C55.0507 122.269 54.9474 122.298 54.8442 122.298C54.7409 122.303 54.6376 122.28 54.5401 122.24C54.4426 122.2 54.3565 122.149 54.2762 122.086C54.1155 121.96 53.9893 121.8 53.8745 121.635C53.6508 121.303 53.4844 120.932 53.341 120.56C53.1975 120.189 53.0828 119.806 52.9852 119.418C52.8877 119.029 52.8016 118.64 52.7328 118.252C52.5894 117.469 52.4918 116.675 52.4287 115.886C52.3656 115.092 52.3312 114.298 52.3254 113.503C52.3254 113.103 52.3369 112.709 52.3484 112.309C52.3656 111.909 52.3828 111.515 52.4172 111.115C52.4746 110.32 52.5664 109.532 52.6926 108.743C52.7557 108.349 52.8361 107.96 52.9279 107.572C53.0197 107.183 53.1287 106.8 53.2606 106.423C53.3295 106.235 53.3983 106.052 53.4844 105.869C53.5705 105.686 53.6623 105.509 53.7713 105.343C53.8803 105.178 54.0065 105.018 54.1614 104.892C54.2417 104.829 54.3278 104.772 54.4196 104.738C54.5114 104.698 54.6147 104.68 54.718 104.686C54.8212 104.692 54.9188 104.715 55.0106 104.755C55.1024 104.795 55.1884 104.852 55.2687 104.915C55.4237 105.04 55.5556 105.195 55.6704 105.36C55.8999 105.692 56.072 106.052 56.2212 106.423C56.3703 106.795 56.4908 107.172 56.5998 107.555C56.7031 107.938 56.7949 108.326 56.8752 108.715C57.1793 110.275 57.3055 111.869 57.3113 113.463ZM57.1908 113.463C57.1908 112.669 57.1621 111.875 57.099 111.086C57.0359 110.298 56.9383 109.509 56.7892 108.732C56.7146 108.343 56.6285 107.955 56.531 107.572C56.4277 107.189 56.313 106.812 56.1695 106.44C56.0261 106.075 55.8597 105.709 55.6359 105.383C55.5269 105.223 55.4007 105.069 55.2458 104.943C55.1712 104.88 55.0909 104.829 54.9991 104.783C54.913 104.743 54.8155 104.715 54.718 104.715C54.6204 104.709 54.5229 104.732 54.4368 104.766C54.345 104.8 54.2647 104.858 54.1901 104.92C54.0409 105.046 53.9147 105.2 53.8114 105.366C53.7082 105.532 53.6164 105.709 53.536 105.892C53.4557 106.075 53.3869 106.258 53.318 106.446C53.1918 106.823 53.0885 107.206 53.0025 107.589C52.9164 107.978 52.8418 108.366 52.7844 108.755C52.6639 109.538 52.5836 110.326 52.532 111.12C52.4803 111.909 52.4631 112.703 52.4631 113.498C52.4631 114.292 52.4861 115.08 52.5492 115.875C52.6066 116.663 52.6984 117.452 52.8361 118.235C52.9049 118.623 52.9852 119.012 53.077 119.4C53.1746 119.783 53.2836 120.166 53.4213 120.538C53.559 120.909 53.7196 121.269 53.9377 121.6C54.0467 121.76 54.1729 121.915 54.3221 122.04C54.3967 122.103 54.477 122.155 54.5688 122.189C54.6548 122.223 54.7524 122.246 54.8442 122.24C54.9417 122.24 55.0335 122.212 55.1196 122.172C55.2056 122.132 55.286 122.075 55.3605 122.012C55.5097 121.886 55.6302 121.732 55.7392 121.566C55.9515 121.235 56.1121 120.869 56.2441 120.498C56.3761 120.126 56.4908 119.743 56.5826 119.36C56.6744 118.978 56.7547 118.589 56.8236 118.195C56.9613 117.412 57.0473 116.623 57.1105 115.835C57.1621 115.052 57.1908 114.258 57.1908 113.463Z" fill="white"/>
<path d="M54.8155 122.532C54.695 122.532 54.5688 122.509 54.4483 122.458C54.3393 122.412 54.236 122.349 54.127 122.269C53.9663 122.143 53.8229 121.983 53.6795 121.766C53.4729 121.463 53.3008 121.109 53.1229 120.646C52.991 120.292 52.8705 119.915 52.7615 119.481C52.664 119.109 52.5836 118.721 52.5033 118.298C52.3656 117.549 52.2681 116.766 52.1935 115.909C52.1304 115.132 52.0959 114.321 52.0902 113.503C52.0902 113.075 52.1017 112.658 52.1132 112.303C52.1304 111.898 52.1533 111.498 52.182 111.103C52.2451 110.241 52.3369 109.458 52.4631 108.709C52.532 108.281 52.6123 107.898 52.6984 107.521C52.8017 107.086 52.9107 106.703 53.0369 106.349C53.1115 106.138 53.1861 105.949 53.2664 105.772C53.3639 105.561 53.4615 105.378 53.5705 105.218C53.7139 105.001 53.8516 104.841 54.0122 104.709C54.1155 104.623 54.2245 104.561 54.3335 104.521C54.4598 104.469 54.5917 104.446 54.7237 104.452C54.8499 104.458 54.9761 104.486 55.1024 104.538C55.2056 104.583 55.3089 104.646 55.4122 104.732C55.5671 104.858 55.7105 105.018 55.8597 105.223C56.0662 105.526 56.2498 105.875 56.4334 106.332C56.5769 106.681 56.6974 107.063 56.8179 107.492C56.9211 107.863 57.0129 108.252 57.0932 108.669C57.3859 110.155 57.5293 111.721 57.535 113.463C57.535 115.218 57.4031 116.783 57.1391 118.258C57.0646 118.681 56.9785 119.069 56.8867 119.441C56.7777 119.875 56.6572 120.252 56.531 120.606C56.3589 121.069 56.181 121.429 55.9859 121.732C55.8425 121.949 55.7048 122.109 55.5499 122.241C55.4466 122.326 55.3433 122.395 55.2401 122.441C55.1081 122.498 54.9761 122.532 54.8499 122.532C54.8384 122.532 54.827 122.532 54.8155 122.532ZM54.695 104.949C54.6376 104.949 54.5745 104.961 54.5171 104.983C54.454 105.006 54.3909 105.046 54.3278 105.098C54.2131 105.195 54.1098 105.321 53.995 105.492C53.9032 105.635 53.8172 105.795 53.7368 105.983C53.668 106.143 53.5992 106.321 53.5303 106.515C53.4156 106.852 53.3123 107.218 53.2205 107.635C53.1402 107.995 53.0656 108.372 53.0025 108.789C52.8877 109.521 52.8074 110.286 52.7558 111.132C52.7099 111.852 52.6869 112.623 52.6869 113.492C52.6869 114.292 52.7099 115.086 52.7672 115.852C52.8303 116.692 52.9221 117.458 53.0484 118.189C53.1229 118.601 53.1975 118.972 53.2893 119.338C53.3926 119.755 53.5016 120.115 53.6278 120.446C53.7828 120.869 53.9434 121.195 54.1213 121.458C54.236 121.629 54.345 121.749 54.4598 121.846C54.5229 121.898 54.586 121.938 54.6491 121.961C54.7122 121.989 54.7753 121.995 54.8327 121.995C54.8958 121.995 54.9532 121.978 55.0163 121.949C55.0794 121.921 55.1425 121.881 55.2056 121.823C55.3204 121.726 55.4237 121.601 55.5384 121.423C55.7105 121.155 55.8654 120.829 56.0204 120.406C56.1408 120.075 56.2498 119.709 56.3531 119.292C56.4392 118.932 56.5195 118.555 56.5884 118.143C56.7146 117.418 56.8064 116.652 56.8695 115.806C56.9269 115.046 56.9556 114.252 56.9556 113.446C56.9556 112.646 56.9269 111.852 56.8637 111.092C56.7949 110.252 56.6916 109.486 56.5597 108.761C56.4851 108.355 56.399 107.978 56.3015 107.618C56.1925 107.206 56.0777 106.846 55.9458 106.509C55.7794 106.092 55.6187 105.766 55.4351 105.498C55.3204 105.326 55.2056 105.201 55.0909 105.103C55.0278 105.052 54.9589 105.006 54.8958 104.978C54.827 104.949 54.7639 104.932 54.7065 104.932C54.7065 104.949 54.7007 104.949 54.695 104.949Z" fill="white"/>
<path d="M61.3218 113.463C61.316 114.486 61.1841 115.515 60.9087 116.503C60.6275 117.492 60.2087 118.435 59.635 119.286C59.3481 119.709 59.0268 120.109 58.6653 120.475C58.3039 120.841 57.9022 121.166 57.4719 121.435C57.0359 121.709 56.5712 121.926 56.0777 122.075C55.5843 122.223 55.0737 122.298 54.5631 122.303C54.0524 122.303 53.5361 122.229 53.0484 122.081C52.555 121.932 52.0902 121.715 51.6542 121.446C51.2181 121.172 50.8222 120.846 50.4551 120.486C50.0936 120.121 49.7666 119.721 49.4797 119.298C48.9059 118.446 48.4871 117.498 48.206 116.509C48.0683 116.018 47.965 115.509 47.8962 115.001C47.8273 114.492 47.7929 113.978 47.7929 113.469C47.7929 112.955 47.8273 112.446 47.8962 111.938C47.965 111.429 48.0683 110.926 48.206 110.429C48.4871 109.441 48.9117 108.498 49.4797 107.646C49.7666 107.223 50.0879 106.823 50.4551 106.458C50.8165 106.098 51.2181 105.772 51.6542 105.498C52.0902 105.229 52.5607 105.012 53.0484 104.863C53.5361 104.715 54.0524 104.641 54.5631 104.641C55.0737 104.641 55.5843 104.721 56.0777 104.869C56.5654 105.018 57.0359 105.235 57.4719 105.503C57.908 105.778 58.3039 106.103 58.6653 106.463C59.0268 106.823 59.3481 107.223 59.635 107.652C60.2087 108.503 60.6275 109.452 60.9087 110.435C61.1841 111.412 61.316 112.441 61.3218 113.463ZM61.1898 113.463C61.1898 112.452 61.0636 111.435 60.7939 110.458C60.5243 109.481 60.1226 108.538 59.5661 107.692C59.285 107.269 58.9694 106.869 58.6194 106.509C58.2637 106.149 57.8736 105.818 57.4433 105.549C57.0129 105.281 56.554 105.058 56.0663 104.915C55.5786 104.766 55.0737 104.692 54.5688 104.686C54.0639 104.686 53.5533 104.766 53.0713 104.915C52.5836 105.063 52.1246 105.281 51.6943 105.555C51.264 105.829 50.8739 106.155 50.5239 106.521C50.1682 106.886 49.8526 107.281 49.5772 107.703C49.0207 108.549 48.6191 109.492 48.3494 110.469C48.2174 110.955 48.1199 111.458 48.0568 111.955C47.9937 112.458 47.9593 112.961 47.9593 113.469C47.9593 113.978 47.9937 114.481 48.0568 114.983C48.1199 115.486 48.2174 115.983 48.3551 116.469C48.6248 117.446 49.0264 118.383 49.583 119.235C49.8584 119.658 50.1739 120.058 50.5296 120.418C50.8854 120.778 51.2755 121.109 51.7001 121.378C52.1304 121.646 52.5894 121.863 53.0771 122.012C53.559 122.161 54.0639 122.241 54.5745 122.241C55.0794 122.241 55.5843 122.161 56.072 122.012C56.5539 121.863 57.0187 121.646 57.449 121.378C57.8793 121.103 58.2694 120.778 58.6252 120.418C58.9809 120.058 59.2964 119.658 59.5718 119.235C60.1284 118.389 60.5357 117.446 60.8054 116.469C61.0578 115.492 61.1841 114.475 61.1898 113.463Z" fill="white"/>
<path d="M54.5631 122.532C54.0295 122.532 53.4959 122.452 52.9795 122.298C52.4804 122.149 51.9927 121.926 51.5279 121.635C51.0919 121.36 50.6731 121.023 50.2887 120.64C49.9272 120.275 49.5887 119.863 49.2903 119.418C48.7223 118.572 48.2806 117.612 47.9879 116.566C47.8502 116.069 47.7412 115.549 47.6724 115.029C47.6035 114.52 47.5691 113.995 47.5691 113.463C47.5748 112.932 47.6093 112.406 47.6781 111.898C47.747 111.378 47.856 110.858 47.9937 110.36C48.292 109.315 48.7338 108.355 49.3018 107.509C49.6059 107.063 49.9387 106.652 50.3059 106.286C50.6903 105.903 51.1091 105.566 51.5452 105.292C52.0042 105.006 52.4918 104.783 52.9967 104.635C53.5131 104.48 54.0467 104.4 54.5745 104.4C55.1081 104.4 55.6417 104.48 56.1581 104.635C56.6572 104.783 57.1449 105.006 57.6096 105.298C58.0457 105.572 58.4645 105.903 58.8432 106.292C59.2046 106.658 59.5432 107.069 59.8415 107.515C60.4095 108.36 60.8456 109.32 61.1439 110.366C61.4193 111.349 61.557 112.395 61.5685 113.463C61.5627 114.538 61.4193 115.578 61.1496 116.56C60.8513 117.606 60.4153 118.566 59.8472 119.412C59.5489 119.858 59.2104 120.275 58.8489 120.635C58.4645 121.018 58.0514 121.355 57.6154 121.629C57.1506 121.92 56.663 122.143 56.1638 122.292C55.6302 122.452 55.0966 122.532 54.5631 122.532ZM54.5631 104.915C54.0811 104.915 53.5992 104.989 53.1344 105.132C52.6812 105.269 52.2394 105.475 51.8148 105.743C51.4247 105.995 51.0403 106.303 50.6845 106.675C50.3518 107.018 50.0419 107.406 49.7666 107.823C49.2444 108.618 48.8428 109.526 48.5674 110.52C48.4412 110.983 48.3437 111.469 48.2806 111.978C48.2174 112.463 48.183 112.96 48.183 113.463C48.183 113.96 48.2174 114.463 48.2806 114.949C48.3494 115.452 48.4469 115.943 48.5732 116.406C48.8486 117.4 49.2502 118.309 49.7723 119.103C50.0477 119.526 50.3575 119.909 50.6903 120.252C51.046 120.618 51.4304 120.932 51.8206 121.178C52.2394 121.44 52.6869 121.646 53.1402 121.789C53.6049 121.932 54.0868 122.006 54.5688 122.006C55.0507 122.006 55.5269 121.932 55.9974 121.789C56.4507 121.652 56.8982 121.446 57.317 121.183C57.7072 120.938 58.0916 120.623 58.4473 120.258C58.7801 119.915 59.0899 119.532 59.371 119.109C59.8931 118.315 60.3005 117.406 60.5759 116.412C60.8341 115.48 60.9603 114.492 60.966 113.469C60.966 112.452 60.8341 111.458 60.5816 110.526C60.3062 109.532 59.9046 108.623 59.3825 107.823C59.1071 107.4 58.7973 107.018 58.4588 106.675C58.1031 106.309 57.7187 105.995 57.3285 105.749C56.9039 105.48 56.4622 105.275 56.0089 105.138C55.5269 104.989 55.045 104.915 54.5631 104.915Z" fill="white"/>
<path d="M46.6798 109.966L48.7108 109.949L50.7419 109.937L54.804 109.932L58.8661 109.937L60.8972 109.949L62.9282 109.966C62.934 109.966 62.934 109.966 62.934 109.972C62.934 109.972 62.934 109.977 62.9282 109.977L60.8972 109.995L58.8661 110.006L54.804 110.012L50.7419 110.006L48.7108 109.995L46.6798 109.977C46.6741 109.977 46.6683 109.972 46.6683 109.972C46.6683 109.972 46.6741 109.966 46.6798 109.966Z" fill="white"/>
<path d="M54.7983 110.246L48.7051 110.235L46.5765 110.212L46.4388 110.075V109.972L46.4445 109.743L46.674 109.732L50.7362 109.709L54.7983 109.703L60.8857 109.72L63.1462 109.737L63.152 110.206L62.9167 110.212L58.8604 110.24L54.7983 110.246Z" fill="white"/>
<path d="M49.0322 106.567C49.5141 106.561 49.9903 106.555 50.4723 106.549L51.9124 106.538C52.3943 106.532 52.8705 106.532 53.3525 106.532H54.7925L57.6727 106.538L59.1128 106.549C59.5948 106.555 60.071 106.561 60.5529 106.567C60.5587 106.567 60.5587 106.567 60.5587 106.567C60.5587 106.572 60.5587 106.578 60.5529 106.578C60.071 106.584 59.5948 106.589 59.1128 106.595L57.6727 106.607L54.7925 106.612H53.3525C52.8705 106.612 52.3943 106.612 51.9124 106.607L50.4723 106.595C49.9903 106.589 49.5141 106.584 49.0322 106.578C49.0264 106.578 49.0207 106.572 49.0207 106.567C49.0207 106.572 49.0264 106.567 49.0322 106.567Z" fill="white"/>
<path d="M54.7983 106.852L52.9853 106.846C52.6295 106.846 52.2738 106.846 51.9181 106.84L49.996 106.823C49.6747 106.818 49.3534 106.818 49.0322 106.812L48.8027 106.806L48.7912 106.338L49.0264 106.326C49.3362 106.32 49.6461 106.32 49.9559 106.315L51.9066 106.298C52.2451 106.298 52.5836 106.292 52.9221 106.292L54.7925 106.286L59.6407 106.309C59.9448 106.315 60.2546 106.315 60.5587 106.32L60.7939 106.326L60.7824 106.795L60.5529 106.8C60.2374 106.806 59.9161 106.812 59.5948 106.812L57.6727 106.829L54.7983 106.852Z" fill="white"/>
<path d="M45.9741 113.366L48.183 113.349L50.3919 113.337L54.804 113.332L59.2161 113.337L61.425 113.349L63.6339 113.366C63.6397 113.366 63.6397 113.366 63.6397 113.372C63.6397 113.372 63.6397 113.377 63.6339 113.377L61.425 113.394L59.2161 113.406L54.804 113.412L50.3919 113.406L48.183 113.394L45.9741 113.377C45.9684 113.377 45.9626 113.372 45.9626 113.366C45.9626 113.372 45.9684 113.366 45.9741 113.366Z" fill="white"/>
<path d="M54.7983 113.646L48.1773 113.629L45.7389 113.611L45.7331 113.143L45.9684 113.131L50.3862 113.109L54.7983 113.097L61.4135 113.12L63.72 113.137L63.8634 113.28L63.852 113.606L63.6225 113.611L59.2104 113.64L54.7983 113.646Z" fill="white"/>
<path d="M46.6798 116.766L48.7108 116.749L50.7419 116.738L54.804 116.732L58.8661 116.738L60.8972 116.749L62.9282 116.766C62.934 116.766 62.934 116.766 62.934 116.766C62.934 116.772 62.934 116.778 62.9282 116.778L60.8972 116.795L58.8661 116.806L54.804 116.812L50.7419 116.806L48.7108 116.795L46.6798 116.778C46.6741 116.778 46.6683 116.772 46.6683 116.766C46.6683 116.766 46.6741 116.766 46.6798 116.766Z" fill="white"/>
<path d="M54.7983 117.046L48.7051 117.029L46.5765 117.012L46.4388 116.875V116.766L46.4445 116.543L46.674 116.532L50.7362 116.509L54.7983 116.498L60.8857 116.52L63.1462 116.538L63.152 117.006L62.9167 117.012L58.8604 117.04L54.7983 117.046Z" fill="white"/>
<path d="M60.8513 120.207H49.3248C49.3075 120.207 49.2961 120.195 49.2961 120.178C49.2961 120.161 49.3075 120.149 49.3248 120.149H60.8513C60.8685 120.149 60.88 120.161 60.88 120.178C60.88 120.189 60.8685 120.207 60.8513 120.207Z" fill="white"/>
<path d="M60.8513 120.435H49.3248C49.1813 120.435 49.0609 120.315 49.0609 120.172C49.0609 120.029 49.1813 119.909 49.3248 119.909H60.8513C60.9947 119.909 61.1152 120.029 61.1152 120.172C61.1152 120.315 60.9947 120.435 60.8513 120.435Z" fill="white"/>
<path d="M87.6853 122.349H84.5871C83.9043 122.349 83.3994 121.817 83.3994 121.131V115.212C83.3994 114.526 83.9043 113.869 84.5871 113.869H87.6853C88.3566 113.869 88.6263 114.514 88.6263 115.212V121.131C88.6205 121.829 88.3509 122.349 87.6853 122.349ZM87.4616 121.154V121.766V121.154ZM84.5871 115.217C84.5871 115.217 84.7535 115.194 84.7535 115.212V121.131C84.7535 121.149 84.6789 121.154 84.6789 121.154H87.5993C87.5993 121.149 87.4616 121.143 87.4616 121.131V115.212C87.4616 115.2 87.6509 115.217 87.6452 115.217H84.5871Z" fill="white"/>
<path d="M93.4399 122.349H90.5368C89.877 122.349 89.0106 121.817 89.0106 121.131V111.851C89.0106 111.166 89.877 110.789 90.5368 110.789H93.4399C94.0883 110.789 94.4268 111.126 94.4268 111.851V121.131C94.4268 121.851 94.0883 122.349 93.4399 122.349ZM90.5712 121.194H93.3309C93.3309 121.194 93.4629 121.137 93.4629 121.131V111.851C93.4629 111.846 93.3309 111.56 93.3309 111.56H90.5712C90.5712 111.56 90.5597 111.84 90.5597 111.851V121.131C90.5597 121.137 90.5655 121.194 90.5712 121.194Z" fill="white"/>
<path d="M100.617 121.297C100.617 121.983 100.055 122.543 99.3667 122.543H96.0619C95.3735 122.543 94.8112 121.983 94.8112 121.297V108.948C94.8112 108.263 95.3735 107.703 96.0619 107.703H99.3667C100.055 107.703 100.617 108.263 100.617 108.948V121.297ZM99.6536 108.685C99.6536 108.674 99.6421 108.663 99.6306 108.663H96.3832C96.3718 108.663 96.3603 108.674 96.3603 108.685V120.977C96.3603 120.988 96.3718 121 96.3832 121H99.6306C99.6421 121 99.6536 120.988 99.6536 120.977V108.685Z" fill="white"/>
<path d="M107.003 121.103C107.003 121.789 106.441 122.349 105.752 122.349H102.448C101.759 122.349 101.197 121.789 101.197 121.103V106.246C101.197 105.56 101.759 105 102.448 105H105.752C106.441 105 107.003 105.56 107.003 106.246V121.103ZM105.649 105.8C105.649 105.789 105.638 105.777 105.626 105.777H102.379C102.367 105.777 102.356 105.789 102.356 105.8V120.594C102.356 120.606 102.367 120.617 102.379 120.617H105.626C105.638 120.617 105.649 120.606 105.649 120.594V105.8Z" fill="white"/>
<path d="M145.513 17.9486C145.513 15.7886 143.757 14.04 141.589 14.04H4.8883C2.71955 14.04 0.96389 15.7886 0.96389 17.9486V31.5258C0.96389 33.6858 2.71955 35.4343 4.8883 35.4343H141.589C143.757 35.4343 145.513 33.6858 145.513 31.5258V17.9486Z" fill="url(#paint13_linear)"/>
<path d="M14.0395 19.5826C12.2953 18.0112 9.58153 18.1712 8.00947 19.9083C6.43167 21.6454 6.54642 24.3483 8.2906 25.9197C9.82824 27.3026 12.1863 27.2626 13.6723 26.194L14.8485 27.2511C14.86 27.5654 14.9518 27.9483 15.2214 28.1883L19.1401 31.714C19.6335 32.1597 20.3794 31.9997 20.8269 31.5083L20.8556 31.4797C21.3031 30.9883 21.2916 30.3369 20.7982 29.8911L16.8681 26.3597C16.5984 26.1197 16.2083 26.0683 16.0476 25.9197L14.8714 24.8626C15.7952 23.2854 15.5772 20.9654 14.0395 19.5826ZM9.08237 25.3369C7.73981 24.1254 7.6308 22.0569 8.84713 20.7197C10.0635 19.3826 12.1404 19.274 13.483 20.4854C14.8255 21.6969 14.9346 23.7654 13.7182 25.1026C12.5076 26.4397 10.4307 26.5483 9.08237 25.3369Z" fill="white"/>
<path d="M9.85119 24.2855C9.83972 24.2969 9.82824 24.3084 9.81677 24.3198C9.67333 24.4398 9.46105 24.4227 9.34056 24.2798C8.55453 23.3541 8.57748 21.9827 9.39794 21.0855C9.52416 20.9484 9.73645 20.9369 9.87414 21.0627C10.0118 21.1884 10.0233 21.3998 9.89709 21.5369C9.30614 22.1884 9.28892 23.1827 9.85693 23.8512C9.96594 23.9769 9.96021 24.1655 9.85119 24.2855Z" fill="white"/>
<path d="M141.256 28.3598C141.256 29.7084 140.154 30.8055 138.8 30.8055H29.5421C28.188 30.8055 27.0865 29.7084 27.0865 28.3598V20.9198C27.0865 19.5713 28.188 18.4741 29.5421 18.4741H138.794C140.148 18.4741 141.25 19.5713 141.25 20.9198V28.3598H141.256Z" fill="white"/>
<path d="M31.5387 28.1598C31.5387 28.4512 31.3035 28.6912 31.0051 28.6912H30.9076C30.615 28.6912 30.374 28.4569 30.374 28.1598V21.1198C30.374 20.8284 30.6093 20.5884 30.9076 20.5884H31.0051C31.2977 20.5884 31.5387 20.8227 31.5387 21.1198V28.1598Z" fill="url(#paint14_linear)"/>
<path d="M31.1945 158.989C29.3929 159.143 26.266 159.394 23.7989 159.503C22.3187 159.566 21.4638 159.423 20.9704 159.229C20.9704 159.286 20.9704 159.337 20.9761 159.383C20.9876 159.64 21.1999 159.846 21.4581 159.863C26.1169 160.12 29.8232 159.955 31.1429 159.875C31.4183 159.857 31.5789 159.56 31.4412 159.332C31.3724 159.212 31.2863 159.097 31.1945 158.989Z" fill="url(#paint15_linear)"/>
<path d="M23.7989 159.503C26.266 159.395 29.3929 159.143 31.1945 158.989C29.4216 156.823 23.7989 155.366 23.7989 155.366H22.2097C21.1195 156.932 20.9589 158.429 20.9704 159.229C21.4638 159.423 22.3187 159.566 23.7989 159.503Z" fill="url(#paint16_linear)"/>
<path d="M21.9457 152.777L22.0949 155.709C22.1121 156.029 22.3473 156.292 22.6686 156.337C22.9842 156.383 23.4088 156.389 23.862 156.24C24.1374 156.149 24.344 155.914 24.3956 155.634L24.912 152.783H21.9457V152.777Z" fill="url(#paint17_linear)"/>
<path d="M1.3139 159.48C0.533609 159.371 0.177888 158.966 0.0287146 158.537C0.0287146 158.543 0.0287146 158.543 0.0229772 158.549C-0.0917717 159.006 0.172151 159.48 0.705733 159.703C1.34833 159.977 2.05403 160.023 2.59909 160C3.18431 159.977 3.72363 159.731 4.02197 159.349L4.02771 159.343C3.44249 159.629 2.6163 159.663 1.3139 159.48Z" fill="url(#paint18_linear)"/>
<path d="M4.99774 152.76H3.68961C1.69298 152.72 0.442217 156.909 0.0291214 158.531C0.178295 158.966 0.528279 159.366 1.31431 159.474C2.61671 159.657 3.4429 159.623 4.03385 159.331C5.11249 157.92 5.64607 155.851 5.90426 154.64C6.19113 153.274 4.99774 152.76 4.99774 152.76Z" fill="url(#paint19_linear)"/>
<path d="M3.85556 150.04L3.1269 152.92C3.0351 153.274 3.20723 153.64 3.53426 153.806C3.94162 154.011 4.51536 154.234 5.04321 154.171C5.28992 154.143 5.49647 153.966 5.57679 153.737L6.64395 150.703L3.85556 150.04Z" fill="url(#paint20_linear)"/>
<path d="M2.98921 150.874C3.89573 151.674 6.83903 151.777 6.83903 151.777C17.4418 126.429 21.7793 122.829 21.7793 122.829C20.2474 132.394 21.5326 153.577 21.5326 153.577C23.2825 154.349 25.5374 153.577 25.5374 153.577C25.6808 137.914 28.0963 124.257 30.9535 113.486C23.7874 113.326 19.9778 110.88 18.7327 109.903C12.7543 119.497 2.98921 150.874 2.98921 150.874Z" fill="url(#paint21_linear)"/>
<path d="M20.5515 80.7603C19.1975 87.4975 19.6794 99.5603 20.0007 105.063C20.0925 106.612 19.0081 108.755 18.1303 110.217C17.9926 110.446 18.0787 110.743 18.3139 110.863C19.7827 111.612 24.7513 113.943 30.506 114.229C30.8904 114.246 31.2346 113.989 31.3322 113.617C35.6066 97.7318 40.5637 87.5832 40.5637 87.5832C35.0902 78.8632 20.5515 80.7603 20.5515 80.7603Z" fill="url(#paint22_linear)"/>
<path d="M22.5022 122.235C22.4449 122.235 22.3818 122.217 22.3244 122.183C22.1637 122.086 22.1121 121.88 22.2096 121.72C22.267 121.629 23.6383 119.417 26.4152 118.086C26.5816 118.006 26.7881 118.075 26.8684 118.246C26.9488 118.412 26.8799 118.617 26.7078 118.697C24.1202 119.943 22.8006 122.052 22.7891 122.075C22.726 122.172 22.617 122.235 22.5022 122.235Z" fill="url(#paint23_linear)"/>
<path d="M12.0429 100.097C12.4789 103.234 13.7641 106.663 16.3402 110.297L17.3213 109.503C17.3213 109.503 16.1911 104.937 16.8337 99.7543C15.2444 99.4458 13.3682 99.7658 12.0429 100.097Z" fill="url(#paint24_linear)"/>
<path d="M22.0662 89.0746L20.5515 80.7603C20.5515 80.7603 10.4307 88.4688 12.0429 100.103C13.3682 99.7717 15.2444 99.4517 16.8337 99.7603C17.2926 96.0231 18.6754 91.966 22.0662 89.0746Z" fill="url(#paint25_linear)"/>
<path d="M40.5694 87.5771L36.6622 95.96C37.2933 101.023 40.0244 103.206 42.9677 104.046C43.1513 101.737 43.7365 99.8743 44.2816 98.5886C40.5178 94.72 40.5694 87.5771 40.5694 87.5771Z" fill="url(#paint26_linear)"/>
<path d="M44.2758 98.5884C43.7308 99.8798 43.1455 101.743 42.9619 104.046C50.8108 107.08 52.8877 101.194 52.8877 101.194L51.4361 100.937C48.1658 101.286 45.8766 100.234 44.2758 98.5884Z" fill="url(#paint27_linear)"/>
<path d="M36.9663 77.2287L35.0787 84.1373C34.8664 84.9144 34.023 85.3316 33.2771 85.0287C32.4682 84.7087 31.4412 84.2687 30.5576 83.7944C29.6167 83.2859 29.3183 82.0802 29.915 81.1944L33.8394 75.3716L36.9663 77.2287Z" fill="url(#paint28_linear)"/>
<path d="M56.4908 96.5713L8.1529 114.091C6.12758 114.828 5.15795 117.126 6.04726 119.08L6.19643 119.4C6.9882 121.131 9.0422 121.891 10.7749 121.091L57.7129 99.4684L56.4908 96.5713Z" fill="url(#paint29_linear)"/>
<path opacity="0.2" d="M78.712 109.372C91.8906 109.372 102.574 98.9231 102.574 86.0344C102.574 73.1457 91.8906 62.6973 78.712 62.6973C65.5333 62.6973 54.8499 73.1457 54.8499 86.0344C54.8499 98.9231 65.5333 109.372 78.712 109.372Z" fill="white"/>
<path d="M78.712 60.063C64.0471 60.063 52.1591 71.6916 52.1591 86.0287C52.1591 100.372 64.0471 111.994 78.712 111.994C93.3769 111.994 105.265 100.366 105.265 86.0287C105.259 71.6916 93.3711 60.063 78.712 60.063ZM78.712 108.189C66.2043 108.189 56.0605 98.2687 56.0605 86.0344C56.0605 73.8001 66.2043 63.8801 78.712 63.8801C91.2196 63.8801 101.363 73.8001 101.363 86.0344C101.363 98.2687 91.2196 108.189 78.712 108.189Z" fill="url(#paint30_linear)"/>
<path d="M54.1787 89.2287C54.0983 89.2287 54.0295 89.1715 54.018 89.0915C53.9377 88.4744 53.886 87.8515 53.8516 87.2287C53.8459 87.143 53.9147 87.0687 54.0008 87.063C54.0869 87.0515 54.1614 87.1258 54.1672 87.2115C54.1959 87.823 54.2532 88.4401 54.3278 89.0458C54.3393 89.1315 54.2762 89.2115 54.1901 89.223C54.1901 89.2287 54.1844 89.2287 54.1787 89.2287ZM54.3565 81.9715C54.345 81.9715 54.3393 81.9715 54.3278 81.9715C54.2418 81.9544 54.1844 81.8744 54.2016 81.7887C54.5 80.1201 54.9819 78.4801 55.6302 76.9087C59.4571 67.6687 68.5108 61.6973 78.7062 61.6973C83.4568 61.6973 88.0812 63.0116 92.0687 65.503C92.1433 65.5487 92.1663 65.6458 92.1204 65.7201C92.0745 65.7944 91.9769 65.8173 91.9024 65.7716C87.9665 63.3144 83.3995 62.0173 78.7062 62.0173C68.6428 62.0173 59.6981 67.9087 55.9228 77.0344C55.2802 78.583 54.8098 80.2001 54.5114 81.8458C54.5 81.9144 54.4368 81.9715 54.3565 81.9715Z" fill="white"/>
<path d="M41.0973 71.9829C41.1145 72.1029 39.5253 79.8629 39.5253 79.8629L35.0959 78.8629L35.5033 71.2801C35.4976 71.2858 40.8047 69.9943 41.0973 71.9829Z" fill="url(#paint31_linear)"/>
<path d="M36.4955 72.9715L35.9676 76.943C35.9619 76.9944 35.9619 77.0458 35.9676 77.0972C36.0135 77.4115 36.243 78.4687 37.3217 78.1658C38.297 77.8915 39.1921 77.6515 39.806 77.8401C40.0814 77.9258 40.2535 78.2058 40.1904 78.4858C40.047 79.1887 39.6912 80.7715 39.1691 82.103C39.0659 82.3715 38.7675 82.5144 38.4864 82.4344C37.6487 82.1887 35.8873 81.6287 34.5792 80.8401C34.4013 80.7315 34.298 80.543 34.3038 80.3373C34.3439 79.3315 34.4644 76.2858 34.3669 75.4287C34.2751 74.6287 33.2825 74.143 32.8579 73.9715C32.7145 73.9144 32.6055 73.8058 32.5481 73.663C32.3473 73.1658 32.0776 72.0172 33.5292 71.5487C33.8333 71.4515 33.994 71.1258 33.8849 70.823C33.6669 70.2287 33.5809 69.3144 34.7054 68.8115C35.8472 68.303 36.702 68.9087 37.161 69.4001C37.3446 69.6001 37.6487 69.6287 37.8782 69.4858C38.0102 69.4058 38.1823 69.3772 38.3831 69.503C38.6585 69.6744 39.0257 69.5601 39.1691 69.2687C39.4445 68.7087 40.0011 68.1087 41.1199 68.303C43.105 68.6401 43.3288 70.8344 42.8067 72.1201C42.2846 73.4058 40.1502 72.9144 39.0831 72.2687C38.2684 71.7772 37.2127 72.2915 36.7537 72.5658C36.616 72.6573 36.5184 72.8058 36.4955 72.9715Z" fill="url(#paint32_linear)"/>
<path d="M34.1952 76.8857C34.1952 76.8857 35.0099 74.6114 34.1722 74.0514C33.3346 73.4914 32.0895 73.7828 32.3649 75.4343C32.7034 77.48 34.1952 76.8857 34.1952 76.8857Z" fill="url(#paint33_linear)"/>
<path d="M16.914 109.366L21.481 108.994L23.4604 110.811C23.4604 110.811 22.9899 111.457 21.5269 111.086C20.0638 110.714 18.0557 110.623 18.0557 110.623C18.0557 110.623 16.0362 111.531 16.0132 109.834L16.914 109.366Z" fill="url(#paint34_linear)"/>
<path d="M52.3082 102.274C52.7041 102.583 54.0582 101.937 54.8844 101.497C55.286 101.28 55.481 100.811 55.3433 100.377C55.1425 99.7486 54.8098 98.9428 54.4024 98.84C53.7311 98.6686 50.6845 101.006 52.3082 102.274Z" fill="url(#paint35_linear)"/>
<path d="M9.10533 120.406C9.08812 120.406 9.07091 120.406 9.0537 120.395C7.17755 119.749 6.74151 118.646 6.70135 117.835C6.64971 116.646 7.40131 115.549 8.56601 115.092L14.3723 112.84C14.4526 112.806 14.5444 112.846 14.5788 112.932C14.6133 113.012 14.5731 113.103 14.487 113.138L8.68076 115.389C7.64229 115.795 6.97674 116.772 7.02264 117.823C7.06854 118.863 7.78572 119.629 9.15697 120.098C9.23729 120.126 9.28319 120.218 9.25451 120.298C9.23729 120.366 9.17418 120.406 9.10533 120.406Z" fill="white"/>
<path d="M16.2197 112.452C16.1566 112.452 16.0935 112.412 16.0706 112.349C16.0361 112.269 16.0763 112.178 16.1624 112.143L16.914 111.852C16.9943 111.818 17.0861 111.863 17.1205 111.943C17.1549 112.023 17.1148 112.115 17.0287 112.149L16.2771 112.44C16.2542 112.446 16.237 112.452 16.2197 112.452Z" fill="white"/>
<defs>
<linearGradient id="paint0_linear" x1="170.159" y1="161.105" x2="53.0626" y2="58.2311" gradientUnits="userSpaceOnUse">
<stop stop-color="#B37CFF"/>
<stop offset="1" stop-color="#F895E7"/>
</linearGradient>
<linearGradient id="paint1_linear" x1="119.069" y1="116.25" x2="130.006" y2="72.3241" gradientUnits="userSpaceOnUse">
<stop stop-color="#B37CFF"/>
<stop offset="1" stop-color="#F895E7"/>
</linearGradient>
<linearGradient id="paint2_linear" x1="113.838" y1="109.876" x2="129.703" y2="109.876" gradientUnits="userSpaceOnUse">
<stop stop-color="#CE1567"/>
<stop offset="1" stop-color="#7A1DBC"/>
</linearGradient>
<linearGradient id="paint3_linear" x1="160.777" y1="74.6518" x2="80.5699" y2="216.246" gradientUnits="userSpaceOnUse">
<stop stop-color="#A737D5"/>
<stop offset="1" stop-color="#EF497A"/>
</linearGradient>
<linearGradient id="paint4_linear" x1="120.989" y1="126.982" x2="139.416" y2="126.982" gradientUnits="userSpaceOnUse">
<stop stop-color="#CE1567"/>
<stop offset="1" stop-color="#7A1DBC"/>
</linearGradient>
<linearGradient id="paint5_linear" x1="126.358" y1="80.2629" x2="23.6075" y2="77.9825" gradientUnits="userSpaceOnUse">
<stop stop-color="#2B3582"/>
<stop offset="1" stop-color="#150E42"/>
</linearGradient>
<linearGradient id="paint6_linear" x1="49.3634" y1="37.8659" x2="253.944" y2="312.954" gradientUnits="userSpaceOnUse">
<stop stop-color="#FDF53F"/>
<stop offset="1" stop-color="#D93C65"/>
</linearGradient>
<linearGradient id="paint7_linear" x1="78.3291" y1="11.5997" x2="31.0489" y2="62.0788" gradientUnits="userSpaceOnUse">
<stop stop-color="#FDF53F"/>
<stop offset="0.6645" stop-color="#E57A58"/>
<stop offset="1" stop-color="#D93C65"/>
</linearGradient>
<linearGradient id="paint8_linear" x1="117.632" y1="11.5997" x2="70.3517" y2="62.0787" gradientUnits="userSpaceOnUse">
<stop stop-color="#FDF53F"/>
<stop offset="0.6645" stop-color="#E57A58"/>
<stop offset="1" stop-color="#D93C65"/>
</linearGradient>
<linearGradient id="paint9_linear" x1="78.3291" y1="50.4722" x2="31.0489" y2="100.951" gradientUnits="userSpaceOnUse">
<stop stop-color="#FDF53F"/>
<stop offset="0.6645" stop-color="#E57A58"/>
<stop offset="1" stop-color="#D93C65"/>
</linearGradient>
<linearGradient id="paint10_linear" x1="117.632" y1="50.4722" x2="70.3517" y2="100.951" gradientUnits="userSpaceOnUse">
<stop stop-color="#FDF53F"/>
<stop offset="0.6645" stop-color="#E57A58"/>
<stop offset="1" stop-color="#D93C65"/>
</linearGradient>
<linearGradient id="paint11_linear" x1="78.3291" y1="89.3445" x2="31.0489" y2="139.824" gradientUnits="userSpaceOnUse">
<stop stop-color="#FDF53F"/>
<stop offset="0.6645" stop-color="#E57A58"/>
<stop offset="1" stop-color="#D93C65"/>
</linearGradient>
<linearGradient id="paint12_linear" x1="117.632" y1="89.3445" x2="70.3517" y2="139.823" gradientUnits="userSpaceOnUse">
<stop stop-color="#FDF53F"/>
<stop offset="0.6645" stop-color="#E57A58"/>
<stop offset="1" stop-color="#D93C65"/>
</linearGradient>
<linearGradient id="paint13_linear" x1="0.96568" y1="24.7354" x2="145.513" y2="24.7354" gradientUnits="userSpaceOnUse">
<stop stop-color="#53D8FF"/>
<stop offset="1" stop-color="#3840F7"/>
</linearGradient>
<linearGradient id="paint14_linear" x1="21.67" y1="3.64772" x2="51.0352" y2="70.5453" gradientUnits="userSpaceOnUse">
<stop stop-color="#53D8FF"/>
<stop offset="1" stop-color="#3840F7"/>
</linearGradient>
<linearGradient id="paint15_linear" x1="20.9731" y1="159.493" x2="31.4934" y2="159.493" gradientUnits="userSpaceOnUse">
<stop stop-color="#53D8FF"/>
<stop offset="1" stop-color="#3840F7"/>
</linearGradient>
<linearGradient id="paint16_linear" x1="20.9725" y1="157.44" x2="31.1963" y2="157.44" gradientUnits="userSpaceOnUse">
<stop stop-color="#2B3582"/>
<stop offset="1" stop-color="#150E42"/>
</linearGradient>
<linearGradient id="paint17_linear" x1="21.9443" y1="154.573" x2="24.9077" y2="154.573" gradientUnits="userSpaceOnUse">
<stop stop-color="#F9B776"/>
<stop offset="1" stop-color="#F47960"/>
</linearGradient>
<linearGradient id="paint18_linear" x1="2.73998e-05" y1="159.267" x2="4.03157" y2="159.267" gradientUnits="userSpaceOnUse">
<stop stop-color="#53D8FF"/>
<stop offset="1" stop-color="#3840F7"/>
</linearGradient>
<linearGradient id="paint19_linear" x1="0.0297525" y1="156.176" x2="5.94728" y2="156.176" gradientUnits="userSpaceOnUse">
<stop stop-color="#2B3582"/>
<stop offset="1" stop-color="#150E42"/>
</linearGradient>
<linearGradient id="paint20_linear" x1="3.10513" y1="152.112" x2="6.64667" y2="152.112" gradientUnits="userSpaceOnUse">
<stop stop-color="#F9B776"/>
<stop offset="1" stop-color="#F47960"/>
</linearGradient>
<linearGradient id="paint21_linear" x1="-38.2244" y1="199.754" x2="8.0875" y2="147.145" gradientUnits="userSpaceOnUse">
<stop stop-color="#53D8FF"/>
<stop offset="1" stop-color="#3840F7"/>
</linearGradient>
<linearGradient id="paint22_linear" x1="47.6423" y1="78.482" x2="-33.2623" y2="149.134" gradientUnits="userSpaceOnUse">
<stop stop-color="#CE1567"/>
<stop offset="1" stop-color="#7A1DBC"/>
</linearGradient>
<linearGradient id="paint23_linear" x1="41.1472" y1="64.824" x2="14.5303" y2="154.16" gradientUnits="userSpaceOnUse">
<stop stop-color="#53D8FF"/>
<stop offset="1" stop-color="#3840F7"/>
</linearGradient>
<linearGradient id="paint24_linear" x1="19.3304" y1="100.699" x2="6.76808" y2="111.868" gradientUnits="userSpaceOnUse">
<stop stop-color="#F9B776"/>
<stop offset="1" stop-color="#F47960"/>
</linearGradient>
<linearGradient id="paint25_linear" x1="40.8739" y1="71.0291" x2="-39.6661" y2="141.362" gradientUnits="userSpaceOnUse">
<stop stop-color="#CE1567"/>
<stop offset="1" stop-color="#7A1DBC"/>
</linearGradient>
<linearGradient id="paint26_linear" x1="53.5789" y1="85.5776" x2="-26.961" y2="155.911" gradientUnits="userSpaceOnUse">
<stop stop-color="#CE1567"/>
<stop offset="1" stop-color="#7A1DBC"/>
</linearGradient>
<linearGradient id="paint27_linear" x1="42.9639" y1="101.75" x2="52.8925" y2="101.75" gradientUnits="userSpaceOnUse">
<stop stop-color="#F9B776"/>
<stop offset="1" stop-color="#F47960"/>
</linearGradient>
<linearGradient id="paint28_linear" x1="33.313" y1="75.3248" x2="33.2055" y2="93.7909" gradientUnits="userSpaceOnUse">
<stop stop-color="#F9B776"/>
<stop offset="1" stop-color="#F47960"/>
</linearGradient>
<linearGradient id="paint29_linear" x1="5.71649" y1="108.994" x2="57.7083" y2="108.994" gradientUnits="userSpaceOnUse">
<stop stop-color="#2B3582"/>
<stop offset="1" stop-color="#150E42"/>
</linearGradient>
<linearGradient id="paint30_linear" x1="45.855" y1="121.74" x2="154.55" y2="2.64774" gradientUnits="userSpaceOnUse">
<stop stop-color="#2B3582"/>
<stop offset="1" stop-color="#150E42"/>
</linearGradient>
<linearGradient id="paint31_linear" x1="39.3294" y1="72.2883" x2="32.0661" y2="85.5124" gradientUnits="userSpaceOnUse">
<stop stop-color="#F9B776"/>
<stop offset="1" stop-color="#F47960"/>
</linearGradient>
<linearGradient id="paint32_linear" x1="31.0081" y1="74.2673" x2="62.6698" y2="78.2867" gradientUnits="userSpaceOnUse">
<stop stop-color="#2B3582"/>
<stop offset="1" stop-color="#150E42"/>
</linearGradient>
<linearGradient id="paint33_linear" x1="27.4654" y1="83.6142" x2="33.6053" y2="75.1463" gradientUnits="userSpaceOnUse">
<stop stop-color="#F9B776"/>
<stop offset="1" stop-color="#F47960"/>
</linearGradient>
<linearGradient id="paint34_linear" x1="24.309" y1="106.298" x2="11.7464" y2="117.467" gradientUnits="userSpaceOnUse">
<stop stop-color="#F9B776"/>
<stop offset="1" stop-color="#F47960"/>
</linearGradient>
<linearGradient id="paint35_linear" x1="51.8377" y1="100.589" x2="55.3932" y2="100.589" gradientUnits="userSpaceOnUse">
<stop stop-color="#F9B776"/>
<stop offset="1" stop-color="#F47960"/>
</linearGradient>
</defs>
</svg>
