<svg width="40" height="40" viewBox="0 0 40 40" fill="none" xmlns="http://www.w3.org/2000/svg">
<path d="M39.9962 32.2311C39.9404 30.6838 39.2958 29.2399 38.1814 28.1653C35.9993 26.0612 34.171 24.8465 32.4277 24.3427C30.0258 23.6485 27.8008 24.2797 25.8151 26.219C25.8122 26.2219 25.8092 26.2248 25.8062 26.2278L23.6937 28.3245C22.3735 27.5803 19.8063 25.9462 17.0327 23.1726L16.8271 22.9672C14.053 20.1932 12.419 17.6255 11.6755 16.3068L13.7724 14.1942C13.7754 14.1912 13.7783 14.1883 13.7813 14.1852C15.7204 12.1997 16.3517 9.9749 15.6576 7.57264C15.1537 5.82943 13.9391 4.00115 11.8349 1.81904C10.7604 0.704746 9.31653 0.0602146 7.76927 0.0044333C6.22106 -0.0514261 4.73544 0.48748 3.58325 1.5217L3.53841 1.56201C3.51762 1.58068 3.49731 1.59998 3.47747 1.61975C1.1838 3.91342 -0.0185493 7.12443 0.000278815 10.9058C0.0323882 17.3294 3.56278 24.6753 9.44396 30.5564C10.5529 31.6654 11.8133 32.7629 13.1901 33.8185C13.8748 34.3435 14.8556 34.2141 15.3807 33.5293C15.9058 32.8444 15.7763 31.8637 15.0915 31.3386C13.8231 30.366 12.6665 29.3594 11.6536 28.3469C6.34145 23.0347 3.15325 16.5089 3.1252 10.8902C3.11075 7.97803 3.98677 5.54732 5.65888 3.85779L5.67083 3.84701C6.80653 2.82756 8.52599 2.88959 9.58552 3.98826C13.6308 8.18342 13.3379 10.164 11.5504 11.9969L8.65396 14.9151C8.19974 15.3727 8.07325 16.0624 8.33552 16.6515C8.40903 16.8166 10.1879 20.7473 14.6179 25.1774L14.8236 25.3828C19.2532 29.8124 23.184 31.5912 23.3491 31.6647C23.938 31.9271 24.6279 31.8005 25.0854 31.3463L28.0037 28.4498C29.8369 26.6623 31.8174 26.3695 36.0123 30.4147C37.111 31.4741 37.173 33.1937 36.1538 34.3292L36.1427 34.3415C34.467 36 32.0622 36.8753 29.1817 36.8753C29.158 36.8753 29.1342 36.8753 29.1104 36.8751C26.808 36.8637 24.1418 36.2325 21.4003 35.05C20.6081 34.7081 19.6885 35.0734 19.3468 35.8658C19.005 36.6583 19.3702 37.5776 20.1626 37.9194C23.3315 39.2863 26.3367 39.9863 29.0948 40.0001C29.1241 40.0002 29.1532 40.0003 29.1825 40.0003C32.9258 40.0003 36.1049 38.7988 38.3808 36.523C38.4006 36.5031 38.4198 36.4829 38.4385 36.462L38.479 36.4169C39.5132 35.2648 40.052 33.7783 39.9962 32.2311Z" fill="white"/>
</svg>
