<svg width="94" height="94" viewBox="0 0 94 94" fill="none" xmlns="http://www.w3.org/2000/svg">
<path d="M65.75 34.5C69.4783 34.4959 73.0528 33.013 75.6891 30.3766C78.3255 27.7403 79.8084 24.1658 79.8125 20.4375V14.1875C79.8125 10.4579 78.3309 6.88104 75.6937 4.24381C73.0565 1.60658 69.4796 0.125 65.75 0.125C62.0204 0.125 58.4435 1.60658 55.8063 4.24381C53.1691 6.88104 51.6875 10.4579 51.6875 14.1875V20.4375C51.6916 24.1658 53.1745 27.7403 55.8109 30.3766C58.4472 33.013 62.0217 34.4959 65.75 34.5ZM54.8125 14.1875C54.8125 11.2867 55.9648 8.5047 58.016 6.45352C60.0672 4.40234 62.8492 3.25 65.75 3.25C68.6508 3.25 71.4328 4.40234 73.484 6.45352C75.5352 8.5047 76.6875 11.2867 76.6875 14.1875V20.4375C76.6875 23.3383 75.5352 26.1203 73.484 28.1715C71.4328 30.2227 68.6508 31.375 65.75 31.375C62.8492 31.375 60.0672 30.2227 58.016 28.1715C55.9648 26.1203 54.8125 23.3383 54.8125 20.4375V14.1875Z" fill="white"/>
<path d="M79.8125 37.625H59.5V40.75H60.0047L62.5969 47.2312L59.5 81.2328C59.4788 81.4616 59.5082 81.6922 59.5863 81.9082C59.6643 82.1243 59.789 82.3205 59.9516 82.4828L64.6391 87.1703C64.9321 87.4632 65.3294 87.6278 65.7437 87.6278C66.1581 87.6278 66.5554 87.4632 66.8484 87.1703L71.5359 82.4828C71.6985 82.3205 71.8232 82.1243 71.9012 81.9082C71.9793 81.6922 72.0088 81.4616 71.9875 81.2328L68.9031 47.2312L71.4953 40.75H79.8125C82.7123 40.7533 85.4924 41.9067 87.5428 43.9572C89.5933 46.0076 90.7467 48.7877 90.75 51.6875V90.75H82.9375V51.6875H79.8125V90.75H51.6875V84.5H48.5625V90.75H39.1875V93.875H92.3125C92.7269 93.875 93.1243 93.7104 93.4174 93.4174C93.7104 93.1243 93.875 92.7269 93.875 92.3125V51.6875C93.8709 47.9592 92.388 44.3847 89.7516 41.7484C87.1153 39.112 83.5408 37.6291 79.8125 37.625ZM68.1297 40.75L66.2547 45.4375H65.2453L63.3703 40.75H68.1297ZM65.75 83.8531L62.6844 80.7875L65.6141 48.5625H65.8859L68.8156 80.7875L65.75 83.8531Z" fill="white"/>
<path d="M19.3828 88.9094L27.4578 93.6594C27.6979 93.8006 27.9714 93.8751 28.25 93.8751C28.5286 93.8751 28.8021 93.8006 29.0422 93.6594L37.1172 88.9094C42.9708 85.4483 47.8239 80.5246 51.2001 74.6217C54.5763 68.7187 56.3596 62.0393 56.375 55.2391V37.625C56.375 37.2106 56.2104 36.8132 55.9174 36.5201C55.6243 36.2271 55.2269 36.0625 54.8125 36.0625C46.0255 36.0436 37.4784 33.1945 30.4375 27.9375L29.1875 27C28.917 26.7972 28.5881 26.6875 28.25 26.6875C27.9119 26.6875 27.583 26.7972 27.3125 27L26.0625 27.9375C19.0218 33.195 10.4746 36.0441 1.6875 36.0625C1.2731 36.0625 0.875671 36.2271 0.582646 36.5201C0.28962 36.8132 0.125 37.2106 0.125 37.625V55.2391C0.140391 62.0393 1.92371 68.7187 5.29992 74.6217C8.67613 80.5246 13.5292 85.4483 19.3828 88.9094ZM3.25 39.1578C12.173 38.8214 20.7828 35.7801 27.9375 30.4375L28.25 30.2047L28.5625 30.4375C35.7172 35.7801 44.327 38.8214 53.25 39.1578V55.2391C53.2365 61.4957 51.5964 67.6412 48.4905 73.0725C45.3846 78.5038 40.9198 83.0341 35.5344 86.2187L28.25 90.5L20.9656 86.2187C15.5802 83.0341 11.1154 78.5038 8.00951 73.0725C4.90365 67.6412 3.26348 61.4957 3.25 55.2391V39.1578Z" fill="white"/>
<path d="M22.5516 83.5219L27.4578 86.4094C27.6983 86.5496 27.9717 86.6234 28.25 86.6234C28.5283 86.6234 28.8017 86.5496 29.0422 86.4094L33.9484 83.5235C38.8657 80.6161 42.9424 76.48 45.7784 71.5213C48.6144 66.5625 50.1123 60.9516 50.125 55.2391V43.4626C50.1248 43.0835 49.9868 42.7174 49.7367 42.4325C49.4866 42.1476 49.1415 41.9634 48.7656 41.9141C41.7507 40.9836 35.033 38.4952 29.1047 34.6313C28.8506 34.4653 28.5536 34.3768 28.25 34.3768C27.9464 34.3768 27.6494 34.4653 27.3953 34.6313C21.4668 38.4948 14.7491 40.9831 7.73437 41.9141C7.35851 41.9634 7.01338 42.1476 6.76329 42.4325C6.51319 42.7174 6.37519 43.0835 6.375 43.4626V55.2391C6.38751 60.9514 7.88532 66.5622 10.7214 71.5207C13.5574 76.4793 17.6343 80.615 22.5516 83.5219ZM9.5 44.8126C16.1553 43.7442 22.5301 41.3568 28.25 37.7907C33.9699 41.3568 40.3447 43.7442 47 44.8126V55.2376C46.9891 60.4061 45.6342 65.4829 43.0682 69.9695C40.5022 74.4561 36.8134 78.1981 32.3641 80.8282L28.25 83.2501L24.1344 80.8282C19.6854 78.1983 15.9969 74.4565 13.4311 69.9701C10.8654 65.4838 9.51068 60.4073 9.5 55.2391V44.8126Z" fill="white"/>
<path d="M29.8125 42.3125H26.6875V45.4375H29.8125V42.3125Z" fill="white"/>
<path d="M15.75 47H12.625V50.125H15.75V47Z" fill="white"/>
<path d="M15.75 57.9375H12.625V61.0625H15.75V57.9375Z" fill="white"/>
<path d="M43.875 47H40.75V50.125H43.875V47Z" fill="white"/>
<path d="M43.875 57.9375H40.75V61.0625H43.875V57.9375Z" fill="white"/>
<path d="M20.4375 67.3125H17.3125V70.4375H20.4375V67.3125Z" fill="white"/>
<path d="M39.1875 67.3125H36.0625V70.4375H39.1875V67.3125Z" fill="white"/>
<path d="M29.8125 75.125H26.6875V78.25H29.8125V75.125Z" fill="white"/>
</svg>
