<svg width="18" height="30" viewBox="0 0 18 30" fill="none" xmlns="http://www.w3.org/2000/svg">
<path d="M8.40008 6.7898C9.17757 6.7898 9.8079 6.15948 9.8079 5.38199C9.8079 3.96685 10.9593 2.81563 12.3743 2.81563H16.3497C17.1272 2.81563 17.7576 2.18531 17.7576 1.40782C17.7576 0.630326 17.1272 0 16.3497 0H12.3743C9.40658 0 6.99226 2.41431 6.99226 5.38199C6.99226 6.15929 7.62259 6.7898 8.40008 6.7898Z" fill="white"/>
<path d="M16.0479 11.1925H1.65026C0.872765 11.1925 0.242439 11.8228 0.242439 12.6003C0.242439 13.3778 0.872765 14.0081 1.65026 14.0081H6.99245V28.5922C6.99245 29.3697 7.62278 30 8.40027 30C9.17776 30 9.80808 29.3697 9.80808 28.5922V14.0081H16.0481C16.8256 14.0081 17.4559 13.3778 17.4559 12.6003C17.4559 11.8228 16.8254 11.1925 16.0479 11.1925Z" fill="white"/>
</svg>
