<svg width="540" height="331" viewBox="0 0 540 331" fill="none" xmlns="http://www.w3.org/2000/svg">
<path opacity="0.26" d="M57.5515 175.759L68.1598 163.684C68.1598 163.684 115.82 121.624 117.512 74.1411C119.203 26.658 140.317 20.2621 190.796 17.2944C233.486 14.7872 282.838 7.62381 322.504 34.5889C339.928 46.4085 360.53 52.4462 381.387 51.6787L427.408 50.0925C449.394 49.325 470.969 55.9767 488.855 69.0755C515.35 88.4678 543.844 124.234 532.21 184.969C530.212 195.305 528.982 206.101 528.777 216.59L528.315 242.43C527.905 265.097 510.174 283.415 488.035 283.875L142.469 291.448C106.955 292.215 72.8234 277.581 48.3781 251.179C41.8696 244.118 38.3335 234.755 38.5385 225.084C38.8972 206.817 45.6107 189.318 57.5515 175.759Z" fill="url(#paint0_linear)"/>
<path opacity="0.6" d="M71.1835 174.48L81.1768 163.376C81.1768 163.376 125.968 124.694 127.556 81.0485C129.145 37.3518 148.978 31.5187 196.485 28.8069C236.663 26.5043 283.094 19.955 320.402 44.7198C336.802 55.6184 356.173 61.1445 375.801 60.4793L419.106 59.0466C439.759 58.3815 460.104 64.5215 476.914 76.5458C501.82 94.4031 529.033 127.252 518.066 183.178C516.221 192.644 515.401 202.622 515.196 212.292L514.735 236.034C514.325 256.91 497.362 273.693 476.504 274.153L151.335 280.907C117.922 281.624 85.6866 268.167 62.7276 243.862C56.5778 237.364 53.2467 228.768 53.4004 219.814C53.7079 203.082 60.0114 186.964 71.1835 174.48Z" fill="url(#paint1_linear)"/>
<path d="M496.952 30.2908C500.129 55.9767 516.118 214.237 431.815 264.79C429.253 266.325 425.973 264.636 425.768 261.668C424.384 242.788 423.565 182.82 458.208 112.107C483.217 61.0423 492.391 38.0171 495.312 30.1885C495.619 29.2675 496.849 29.421 496.952 30.2908Z" fill="url(#paint2_linear)"/>
<path d="M425.768 262.692C425.614 262.692 425.461 262.641 425.256 262.589C424.743 262.334 424.589 261.72 424.846 261.208C446.985 220.53 462.206 176.015 471.02 145.775C480.809 112.261 485.37 87.905 485.318 85.8583C485.216 85.3467 485.523 84.835 486.036 84.6815C486.6 84.528 487.163 84.835 487.317 85.3467C487.778 86.8305 482.91 112.312 473.326 145.212C464.409 175.81 449.086 220.939 426.639 262.129C426.486 262.487 426.127 262.692 425.768 262.692Z" fill="#24286C"/>
<path d="M439.759 273.232C459.643 277.019 518.322 279.424 539.949 182.206C540.564 179.443 537.13 177.652 535.234 179.75C526.317 189.574 510.481 206.255 497.054 211.423C455.39 227.336 440.323 252.97 435.3 264.943C433.814 268.525 435.967 272.516 439.759 273.232Z" fill="url(#paint3_linear)"/>
<path d="M437.812 270.674C437.35 270.674 436.94 270.367 436.838 269.958C436.684 269.395 436.992 268.832 437.555 268.679C466.562 260.236 487.881 244.067 500.642 231.941C514.479 218.842 521.5 207.585 521.551 207.483C521.858 207.022 522.473 206.869 522.986 207.176C523.447 207.483 523.601 208.097 523.293 208.609C523.242 208.711 516.067 220.172 502.025 233.476C489.111 245.756 467.535 262.18 438.119 270.674C438.017 270.674 437.914 270.674 437.812 270.674Z" fill="#2A6FAE"/>
<path d="M161.892 196.021C161.892 196.021 163.532 153.757 144.161 142.142C124.789 130.527 87.839 122.955 87.3265 62.168C87.0191 26.6069 86.3528 11.0521 85.8916 4.24688C85.6866 1.58619 88.0953 -0.511661 90.7089 0.0511769C109.158 3.78638 168.965 18.9318 180.957 60.019C195.101 108.781 161.892 196.021 161.892 196.021Z" fill="url(#paint4_linear)"/>
<path d="M104.597 17.2944C104.597 17.2944 105.11 17.7549 106.083 18.7271C107.057 19.6481 108.441 21.0296 110.183 22.8716C111.926 24.6625 113.975 26.9138 116.23 29.5234C117.358 30.8537 118.588 32.2352 119.818 33.7191C120.433 34.4866 121.099 35.2541 121.714 36.0216C122.329 36.8403 122.995 37.6589 123.661 38.4776C124.328 39.2963 124.994 40.1661 125.711 41.0359C126.378 41.9058 127.044 42.8268 127.761 43.7478C128.427 44.6688 129.145 45.5898 129.862 46.562C130.529 47.5342 131.246 48.5063 131.964 49.5297C132.681 50.553 133.398 51.5252 134.116 52.5997C134.833 53.6231 135.551 54.6976 136.268 55.7721C136.986 56.8466 137.703 57.9211 138.421 59.0468C139.138 60.1724 139.804 61.2981 140.522 62.4238C141.239 63.5495 141.957 64.7263 142.674 65.852C143.341 67.0288 144.058 68.2057 144.724 69.3825C145.391 70.5594 146.108 71.7874 146.774 72.9642C147.44 74.1922 148.107 75.4202 148.773 76.6483C149.439 77.8763 150.105 79.1554 150.772 80.3834C151.387 81.6626 152.002 82.9418 152.668 84.221C153.283 85.5002 153.898 86.7793 154.564 88.0585L154.82 88.519L154.871 88.6725L154.923 88.7749L155.025 89.0307L155.435 90.0029L156.306 91.9472C158.561 97.2686 160.457 102.692 162.046 108.116C163.584 113.54 164.762 119.015 165.685 124.285C166.607 129.606 167.171 134.774 167.53 139.686C167.888 144.598 168.042 149.254 168.042 153.552C168.042 157.85 167.837 161.79 167.581 165.27C167.325 168.749 167.017 171.768 166.71 174.275C166.402 176.782 166.095 178.727 165.838 180.006C165.736 180.671 165.633 181.183 165.582 181.541C165.531 181.899 165.48 182.052 165.48 182.052C165.377 182.666 164.762 183.025 164.199 182.922C163.635 182.82 163.225 182.257 163.327 181.694V181.643C163.327 181.643 163.379 181.49 163.43 181.131C163.481 180.773 163.532 180.313 163.635 179.648C163.789 178.368 164.045 176.424 164.25 173.968C164.506 171.512 164.711 168.544 164.865 165.116C165.019 161.688 165.07 157.799 165.018 153.604C164.967 149.357 164.762 144.803 164.301 139.993C163.891 135.183 163.174 130.118 162.302 124.95C161.38 119.782 160.201 114.461 158.664 109.139C157.126 103.818 155.281 98.5478 153.129 93.3799L152.258 91.4355L151.694 90.5657L151.592 90.3099L151.489 90.1052L151.284 89.6447C150.669 88.3655 150.054 87.0863 149.49 85.8583C148.875 84.5792 148.26 83.3511 147.697 82.072C147.03 80.8439 146.415 79.6159 145.749 78.3879C145.083 77.1599 144.468 75.9319 143.853 74.7039C143.187 73.5271 142.521 72.299 141.854 71.1222C141.188 69.9454 140.522 68.7685 139.856 67.5917C139.19 66.4148 138.472 65.2892 137.806 64.1635C137.14 63.0378 136.473 61.9121 135.807 60.7865C135.141 59.6608 134.423 58.5863 133.757 57.5118C133.091 56.4372 132.425 55.3627 131.759 54.2882C131.092 53.2649 130.375 52.2415 129.709 51.2182C129.042 50.1949 128.376 49.2227 127.71 48.2505C127.044 47.2783 126.378 46.3573 125.711 45.3852C125.045 44.4641 124.379 43.5431 123.764 42.6221C123.098 41.7523 122.483 40.8824 121.816 40.0126C121.201 39.1428 120.586 38.3241 119.972 37.5054C119.357 36.6868 118.742 35.9192 118.127 35.1517C116.948 33.6167 115.82 32.184 114.744 30.8537C112.592 28.1418 110.644 25.8905 109.004 23.9973C107.364 22.1553 106.083 20.6714 105.161 19.6993C104.29 18.7271 103.777 18.2154 103.777 18.2154C103.521 17.9596 103.521 17.5503 103.777 17.3456C103.931 17.0898 104.341 17.0386 104.597 17.2944Z" fill="#222669"/>
<path d="M125.814 291.346C128.479 293.392 105.52 248.467 108.287 185.737C109.568 156.162 116.845 120.294 103.316 103.153C92.0414 88.8773 44.3295 86.7794 28.6476 86.4213C26.7002 86.3701 25.5727 88.6215 26.8027 90.1565C32.7987 97.7292 45.4057 115.228 46.5331 130.527C47.9681 150.687 63.65 166.498 79.2806 173.098C94.86 179.699 103.265 184.713 105.878 212.292C108.441 239.871 118.28 285.564 125.814 291.346Z" fill="url(#paint5_linear)"/>
<path d="M48.2243 98.9061C48.2243 98.9061 48.6855 99.0084 49.5567 99.2131C50.3767 99.4178 51.6579 99.7759 53.1953 100.288C54.7328 100.799 56.629 101.464 58.6789 102.385C60.7801 103.255 63.1375 104.33 65.5974 105.66C68.0573 106.991 70.6709 108.577 73.2846 110.47C75.8982 112.363 78.5631 114.461 81.0743 116.968C83.5854 119.424 85.9428 122.238 88.044 125.308C90.1451 128.378 91.8876 131.755 93.2713 135.286L93.7838 136.616L94.04 137.281L94.245 137.947C94.5012 138.868 94.8087 139.737 95.065 140.658C95.5262 142.449 95.9874 144.189 96.4999 145.98C96.9611 147.771 97.4224 149.51 97.8323 151.25C98.2423 152.99 98.6523 154.729 99.0623 156.418C99.8823 159.795 100.6 163.07 101.266 166.191C101.932 169.312 102.547 172.28 103.06 174.992C103.316 176.373 103.572 177.652 103.777 178.931C103.982 180.159 104.187 181.387 104.392 182.462C104.751 184.713 105.058 186.658 105.315 188.244C105.571 189.83 105.725 191.109 105.827 191.979C105.93 192.849 105.981 193.309 105.981 193.309C106.032 193.565 105.827 193.77 105.622 193.77C105.417 193.821 105.212 193.668 105.161 193.412C105.161 193.412 105.058 192.951 104.905 192.133C104.751 191.263 104.495 190.035 104.187 188.449C103.572 185.276 102.598 180.773 101.42 175.35C100.805 172.638 100.139 169.721 99.421 166.651C98.7036 163.581 97.8836 160.307 97.0636 156.93C96.1924 153.553 95.3212 150.124 94.3987 146.594C93.9375 144.854 93.425 143.063 92.9638 141.272C92.7075 140.403 92.4513 139.533 92.1951 138.663L91.9901 137.998L91.7338 137.384L91.2726 136.105C88.659 129.351 84.4566 123.21 79.6906 118.401C77.2819 115.945 74.7708 113.796 72.2596 111.903C69.7484 110.009 67.2373 108.423 64.8286 107.042C62.42 105.66 60.2163 104.483 58.1664 103.562C56.1165 102.59 54.3228 101.874 52.8366 101.311C51.3504 100.748 50.1205 100.339 49.3005 100.032C48.4805 99.7759 48.0193 99.6224 48.0193 99.6224C47.8143 99.5713 47.7118 99.3666 47.7631 99.2131C47.8656 98.9573 48.0193 98.8549 48.2243 98.9061Z" fill="#1F5AA9"/>
<path d="M122.431 299.379C124.225 300.3 112.387 279.986 111.464 262.078C110.542 244.169 106.493 213.623 91.0677 195.356C75.642 177.089 58.6789 175.401 37.3598 192.03C19.5767 205.896 8.50715 212.855 1.99866 214.185C0.409972 214.492 -0.409996 216.334 0.358724 217.767C4.50981 225.442 16.3481 243.044 36.1298 241.816C61.3951 240.23 91.9901 223.856 101.317 237.518C110.644 251.179 109.466 258.854 109.722 265.353C109.978 271.748 110.593 293.136 122.431 299.379Z" fill="url(#paint6_linear)"/>
<path d="M44.5345 214.032C44.5345 214.032 44.7907 213.776 45.3032 213.316C45.8157 212.855 46.5332 212.19 47.5069 211.422C48.4806 210.655 49.7105 209.734 51.1455 208.71C52.5804 207.687 54.2716 206.664 56.1678 205.589C58.0639 204.566 60.2164 203.543 62.5225 202.673C64.8799 201.803 67.4423 201.087 70.2097 200.831C70.8759 200.728 71.5934 200.728 72.3109 200.677C72.6696 200.677 73.0284 200.677 73.3871 200.677H73.8996L74.4633 200.728C74.822 200.78 75.1808 200.78 75.5395 200.831C75.8982 200.882 76.257 200.933 76.6157 200.984C76.9745 201.035 77.3332 201.138 77.6919 201.189C78.0507 201.291 78.4094 201.342 78.7681 201.445C81.433 202.161 84.2517 203.287 86.8653 204.617C89.4277 205.999 91.8364 207.738 93.9888 209.683C94.5013 210.194 95.0137 210.706 95.475 211.218C95.7312 211.473 95.9875 211.729 96.1924 211.985L96.8587 212.804C97.3199 213.367 97.7811 213.878 98.1911 214.441C98.6011 215.004 98.9598 215.567 99.3698 216.13C99.5748 216.386 99.7286 216.693 99.9336 216.948C100.087 217.255 100.292 217.511 100.446 217.818C100.805 218.381 101.112 218.944 101.42 219.507C102.035 220.632 102.547 221.809 103.111 222.935C103.572 224.061 104.033 225.186 104.495 226.261C104.905 227.335 105.263 228.41 105.622 229.433C105.725 229.689 105.776 229.945 105.878 230.201C105.93 230.457 106.032 230.712 106.083 230.968C106.237 231.48 106.34 231.94 106.493 232.401C106.75 233.322 107.006 234.243 107.211 235.062C107.416 235.931 107.57 236.699 107.774 237.415C107.928 238.132 108.082 238.848 108.184 239.462C108.646 241.918 108.851 243.299 108.851 243.299C108.902 243.504 108.748 243.709 108.543 243.76C108.338 243.811 108.133 243.658 108.082 243.453C108.082 243.453 107.723 242.071 107.16 239.667C107.006 239.053 106.852 238.387 106.647 237.671C106.442 236.955 106.237 236.187 105.981 235.369C105.776 234.55 105.468 233.68 105.161 232.759C105.007 232.299 104.853 231.838 104.7 231.378C104.597 231.122 104.546 230.917 104.443 230.661C104.341 230.405 104.238 230.201 104.187 229.945C103.828 228.973 103.418 227.949 103.008 226.875C102.547 225.851 102.086 224.777 101.573 223.651C101.01 222.577 100.446 221.502 99.8311 220.377C99.5236 219.865 99.1648 219.302 98.8061 218.739C98.6524 218.483 98.4474 218.176 98.2936 217.921C98.0886 217.665 97.9349 217.409 97.7299 217.153C97.3712 216.641 96.9612 216.079 96.5512 215.567C96.1412 215.055 95.68 214.544 95.27 214.032L94.6038 213.264C94.3988 213.009 94.1425 212.804 93.8863 212.548C93.4251 212.088 92.9126 211.627 92.4513 211.115C90.4014 209.324 88.1465 207.738 85.7379 206.459C83.2267 205.231 80.7668 204.259 78.0507 203.491C76.8207 203.184 75.4883 202.877 74.2071 202.826L73.7458 202.775H73.2334C72.9259 202.775 72.5671 202.775 72.2596 202.775C71.5934 202.826 70.9784 202.826 70.3122 202.877C67.7498 203.133 65.3412 203.696 63.0863 204.464C60.8313 205.231 58.7302 206.101 56.834 207.073C54.9378 207.994 53.2466 208.966 51.8117 209.836C50.3255 210.706 49.0956 211.525 48.0706 212.241C47.0456 212.957 46.2769 213.52 45.7644 213.93C45.252 214.339 44.9445 214.544 44.9445 214.544C44.7907 214.697 44.5345 214.646 44.3807 214.492C44.3807 214.39 44.3807 214.185 44.5345 214.032Z" fill="#222669"/>
<path d="M460.309 280.754C460.309 284.233 457.44 287.099 453.955 287.099H110.286C106.801 287.099 103.931 284.233 103.931 280.754L101.061 83.556C101.061 80.0767 105.161 73.2715 112.694 73.7831L448.574 65.0847C452.981 64.9824 457.183 66.6709 460.309 69.7409C463.436 72.811 465.127 77.0578 465.024 81.407L460.309 280.754Z" fill="url(#paint7_linear)"/>
<path d="M454.057 274.665C454.057 277.991 451.341 280.652 448.061 280.652H118.588C115.257 280.652 112.592 277.94 112.592 274.665L109.876 95.6825C110.183 84.8862 119.664 81.0487 125.404 81.2534L447.292 72.6573C450.367 72.555 453.34 73.783 455.543 75.932C457.747 78.081 458.926 81.0999 458.823 84.1699L454.057 274.665Z" fill="url(#paint8_linear)"/>
<path d="M116.128 189.267C115.872 189.267 115.615 189.063 115.615 188.756L115.41 174.224C115.41 173.917 115.615 173.712 115.923 173.712C116.179 173.712 116.435 173.917 116.435 174.224L116.64 188.756C116.64 189.063 116.435 189.267 116.128 189.267Z" fill="white"/>
<path d="M115.615 153.706C115.359 153.706 115.103 153.501 115.103 153.194L114.283 97.5758C114.283 93.8406 115.462 90.8729 117.717 88.7239C121.816 84.8352 128.222 84.9887 128.479 85.0399L231.282 82.2769C231.59 82.2769 231.795 82.4815 231.795 82.7885C231.795 83.0955 231.59 83.3002 231.282 83.3002L128.479 86.0632C128.171 86.0632 122.226 85.8585 118.434 89.4914C116.384 91.4358 115.359 94.1476 115.359 97.5758L116.179 153.143C116.128 153.45 115.923 153.706 115.615 153.706Z" fill="white"/>
<path opacity="0.5" d="M127.095 264.739C127.454 249.951 127.3 118.913 126.48 107.605C125.609 96.2967 143.289 94.1477 170.4 92.8685C197.51 91.5893 426.127 86.5749 432.021 86.0633C445.243 84.9888 448.01 104.739 446.677 147.617C445.704 179.801 444.013 232.862 443.295 257.268C443.09 264.534 437.145 270.316 429.817 270.316C374.777 270.469 163.942 271.083 149.9 271.493C133.655 272.056 126.941 270.623 127.095 264.739Z" fill="url(#paint9_linear)"/>
<path d="M479.527 303.472H91.6826C86.9166 303.472 83.0217 299.584 83.0217 294.825C83.0217 290.066 86.9166 286.178 91.6826 286.178H479.527C484.293 286.178 488.188 290.066 488.188 294.825C488.188 299.584 484.293 303.472 479.527 303.472Z" fill="url(#paint10_linear)"/>
<path d="M414.289 251.998H154.769C150.977 251.998 148.055 248.877 148.055 244.886V111.8C148.055 107.911 150.977 104.79 154.769 104.739V105.251V104.739L414.237 99.9293C416.082 99.8782 417.825 100.594 419.157 101.976C420.49 103.306 421.207 105.148 421.207 106.99V244.886C421.156 248.774 418.081 251.998 414.289 251.998ZM154.718 105.762C151.54 105.814 149.029 108.474 149.029 111.8V244.886C149.029 248.314 151.54 250.975 154.718 250.975H414.237C417.466 250.975 420.131 248.263 420.131 244.886V106.99C420.131 105.404 419.465 103.818 418.389 102.692C417.261 101.567 415.775 100.953 414.237 100.953L154.718 105.762Z" fill="white"/>
<path d="M321.222 128.532C321.222 125.769 318.967 123.569 316.251 123.569H164.301C161.534 123.569 159.33 125.82 159.33 128.532V218.842C159.33 221.605 161.585 223.805 164.301 223.805H316.251C319.019 223.805 321.222 221.554 321.222 218.842V128.532Z" fill="url(#paint11_linear)"/>
<path d="M393.482 156.827H338.442C334.803 156.827 331.984 153.962 331.984 150.329V129.402C331.984 125.82 334.803 123.006 338.442 123.006H393.482C397.326 123.006 400.657 125.973 400.657 129.402V150.329C400.657 153.808 397.326 156.827 393.482 156.827ZM338.442 124.08C335.367 124.08 333.009 126.383 333.009 129.453V150.38C333.009 153.041 335.059 155.855 338.442 155.855H393.482C396.711 155.855 399.632 153.245 399.632 150.38V129.453C399.632 126.587 396.762 124.08 393.482 124.08H338.442Z" fill="white"/>
<path d="M393.482 198.784H338.442C334.752 198.784 331.984 196.072 331.984 192.49V171.563C331.984 168.34 334.393 165.014 338.442 165.014H393.482C397.223 165.014 400.657 168.135 400.657 171.563V192.49C400.657 195.867 397.377 198.784 393.482 198.784ZM338.442 166.037C335.059 166.037 333.009 168.851 333.009 171.563V192.49C333.009 195.509 335.367 197.761 338.442 197.761H393.482C396.762 197.761 399.632 195.305 399.632 192.49V171.563C399.632 168.647 396.711 166.037 393.482 166.037H338.442Z" fill="white"/>
<path d="M393.482 240.741H338.442C334.701 240.741 331.984 238.183 331.984 234.652V213.725C331.984 210.45 334.444 206.971 338.442 206.971H393.482C397.223 206.971 400.657 210.194 400.657 213.725V234.652C400.657 237.978 397.479 240.741 393.482 240.741ZM338.442 207.994C335.111 207.994 333.009 210.962 333.009 213.725V234.652C333.009 237.62 335.316 239.718 338.442 239.718H393.482C396.813 239.718 399.632 237.415 399.632 234.652V213.725C399.632 210.757 396.659 207.994 393.482 207.994H338.442Z" fill="white"/>
<path opacity="0.5" d="M263.671 230.405C248.194 230.354 177.984 230.201 162.456 230.354C160.765 230.354 159.33 231.736 159.33 233.373V235.062C159.33 236.699 160.662 238.081 162.302 238.081L263.363 240.383C264.183 240.383 265.208 240.076 265.772 239.513C266.336 238.95 266.899 238.183 266.899 237.364V233.424C266.899 231.787 265.362 230.405 263.671 230.405Z" fill="white"/>
<path d="M420.643 114.87H148.517C148.209 114.87 148.004 114.666 148.004 114.359C148.004 114.052 148.209 113.847 148.517 113.847H420.643C420.951 113.847 421.156 114.052 421.156 114.359C421.156 114.614 420.951 114.87 420.643 114.87Z" fill="white"/>
<path d="M387.845 110.777H387.384C385.692 110.777 384.257 109.395 384.257 107.656V107.195C384.257 105.507 385.641 104.074 387.384 104.074H387.845C389.536 104.074 390.971 105.455 390.971 107.195V107.656C390.92 109.344 389.536 110.777 387.845 110.777ZM387.384 105.148C386.256 105.148 385.282 106.069 385.282 107.246V107.707C385.282 108.833 386.205 109.805 387.384 109.805H387.845C388.972 109.805 389.946 108.884 389.946 107.707V107.246C389.946 106.121 389.023 105.148 387.845 105.148H387.384Z" fill="white"/>
<path d="M399.632 110.777H399.171C397.479 110.777 396.044 109.395 396.044 107.656V107.195C396.044 105.507 397.428 104.074 399.171 104.074H399.632C401.323 104.074 402.758 105.455 402.758 107.195V107.656C402.707 109.344 401.323 110.777 399.632 110.777ZM399.171 105.148C398.043 105.148 397.069 106.069 397.069 107.246V107.707C397.069 108.833 397.992 109.805 399.171 109.805H399.632C400.759 109.805 401.733 108.884 401.733 107.707V107.246C401.733 106.121 400.81 105.148 399.632 105.148H399.171Z" fill="white"/>
<path d="M411.931 110.777H411.47C409.779 110.777 408.344 109.395 408.344 107.656V107.195C408.344 105.507 409.728 104.074 411.47 104.074H411.931C413.623 104.074 415.057 105.455 415.057 107.195V107.656C415.006 109.344 413.623 110.777 411.931 110.777ZM411.47 105.148C410.343 105.148 409.369 106.069 409.369 107.246V107.707C409.369 108.833 410.291 109.805 411.47 109.805H411.931C413.059 109.805 414.033 108.884 414.033 107.707V107.246C414.033 106.121 413.11 105.148 411.931 105.148H411.47Z" fill="white"/>
<path d="M170.041 152.734C169.733 152.734 169.528 152.529 169.528 152.222V132.779C169.528 132.472 169.733 132.267 170.041 132.267H184.903C185.21 132.267 185.415 132.472 185.415 132.779C185.415 133.086 185.21 133.29 184.903 133.29H170.553V152.222C170.553 152.478 170.348 152.734 170.041 152.734Z" fill="white"/>
<path d="M310.46 152.734C310.153 152.734 309.948 152.529 309.948 152.222V133.29H295.598C295.291 133.29 295.086 133.086 295.086 132.779C295.086 132.472 295.291 132.267 295.598 132.267H310.46C310.768 132.267 310.973 132.472 310.973 132.779V152.222C310.973 152.478 310.768 152.734 310.46 152.734Z" fill="white"/>
<path d="M184.903 212.088H170.041C169.733 212.088 169.528 211.883 169.528 211.576V192.644C169.528 192.337 169.733 192.133 170.041 192.133C170.348 192.133 170.553 192.337 170.553 192.644V211.064H184.903C185.21 211.064 185.415 211.269 185.415 211.576C185.415 211.883 185.21 212.088 184.903 212.088Z" fill="white"/>
<path d="M310.46 212.088H295.598C295.291 212.088 295.086 211.883 295.086 211.576C295.086 211.269 295.291 211.064 295.598 211.064H309.948V192.644C309.948 192.337 310.153 192.133 310.46 192.133C310.768 192.133 310.973 192.337 310.973 192.644V211.576C310.973 211.832 310.768 212.088 310.46 212.088Z" fill="white"/>
<path d="M237.483 198.784C223.749 198.784 212.628 187.681 212.628 173.968C212.628 160.255 223.749 149.152 237.483 149.152C251.218 149.152 262.338 160.255 262.338 173.968V174.019C262.287 187.63 251.166 198.784 237.483 198.784ZM237.483 150.175C224.312 150.175 213.653 160.818 213.653 173.968C213.653 187.118 224.312 197.761 237.483 197.761C250.654 197.761 261.313 187.118 261.313 173.968V173.917C261.262 160.818 250.603 150.175 237.483 150.175Z" fill="white"/>
<path d="M230.565 186.555C229.847 186.555 229.283 185.992 229.283 185.276L228.669 163.172C228.669 162.455 229.027 161.79 229.591 161.381C230.206 160.972 230.975 160.92 231.641 161.227L253.524 171.461C254.241 171.819 254.703 172.484 254.754 173.303C254.754 174.122 254.344 174.838 253.626 175.196L234.306 185.481C233.691 185.839 232.871 185.583 232.563 184.969C232.205 184.355 232.461 183.536 233.076 183.229L251.474 173.405L231.282 163.939L231.846 185.225C231.846 185.89 231.282 186.504 230.565 186.555Z" fill="white"/>
<path opacity="0.6" d="M299.288 35.9195C298.161 26.3001 309.128 12.7919 328.91 24.765C329.473 20.2112 354.277 6.08906 365.808 35.8171C367.756 28.6026 385.795 32.2354 389.023 44.4132C395.788 41.3944 412.085 56.5398 390.51 59.0982C362.99 62.424 299.852 61.4519 288.526 44.9761C277.252 28.4491 299.288 35.9195 299.288 35.9195Z" fill="url(#paint12_linear)"/>
<path opacity="0.6" d="M409.779 22.6159C409.061 16.4759 416.082 7.77746 428.792 15.4525C429.151 12.536 445.089 3.47942 452.468 22.5648C453.75 17.9597 465.28 20.2622 467.382 28.0908C471.738 26.1465 482.192 35.8682 468.355 37.5056C450.675 39.6546 410.189 39.0406 402.963 28.449C395.634 17.8574 409.779 22.6159 409.779 22.6159Z" fill="url(#paint13_linear)"/>
<path d="M218.163 80.5368C217.804 80.5368 217.445 80.3322 217.291 80.0252L214.473 74.9084C211.705 74.7038 209.041 74.0898 206.478 73.1176L201.763 76.4946C201.405 76.7505 200.943 76.7505 200.585 76.4946L194.64 72.2478C194.281 71.9919 194.127 71.5314 194.23 71.1221L195.87 65.5449C194.076 63.447 192.59 61.1445 191.514 58.5861L185.774 57.6651C185.364 57.614 185.005 57.2558 184.954 56.8465L183.724 49.6319C183.673 49.2226 183.878 48.7621 184.237 48.5574L189.361 45.7432C189.566 42.9802 190.181 40.3195 191.155 37.7611L187.773 33.0538C187.516 32.6956 187.516 32.2351 187.773 31.8769L191.975 25.9415C192.231 25.5834 192.692 25.4299 193.102 25.5322L198.688 27.1695C200.79 25.3787 203.096 23.8948 205.658 22.8203L206.581 17.0896C206.632 16.6803 206.991 16.3221 207.401 16.2709L214.627 15.0429C215.037 14.9918 215.498 15.1964 215.703 15.5546L218.521 20.6713C221.289 20.876 223.954 21.49 226.516 22.4622L231.231 19.0851C231.59 18.8293 232.051 18.8293 232.41 19.0851L238.354 23.2808C238.713 23.5367 238.867 23.9972 238.764 24.4065L237.124 29.9837C238.918 32.0816 240.404 34.3841 241.481 36.9425L247.22 37.8635C247.63 37.9146 247.989 38.2728 248.04 38.6821L249.27 45.8967C249.321 46.306 249.116 46.7665 248.758 46.9712L243.633 49.7854C243.428 52.5484 242.813 55.2091 241.839 57.7675L245.222 62.4748C245.478 62.833 245.478 63.2935 245.222 63.6517L241.019 69.5871C240.763 69.9452 240.302 70.0987 239.892 69.9964L234.306 68.3591C232.205 70.1499 229.898 71.6338 227.336 72.7083L226.414 78.439C226.362 78.8483 226.004 79.2065 225.594 79.2577L218.368 80.4857C218.265 80.5368 218.214 80.5368 218.163 80.5368ZM206.324 71.9408L206.581 72.0431C209.194 73.1176 211.962 73.7316 214.832 73.8851H215.139L218.214 79.4623L225.389 78.2343L226.414 71.9408L226.67 71.8384C229.284 70.7127 231.692 69.2289 233.793 67.3357L233.998 67.1311L240.097 68.9219L244.299 62.9865L240.558 57.8186L240.661 57.5628C241.737 54.9533 242.352 52.1903 242.505 49.3249V49.0179L248.092 45.9479L246.862 38.7845L240.558 37.7611L240.456 37.5053C239.328 34.8958 237.842 32.4909 235.946 30.3931L235.741 30.1884L237.534 24.0995L231.743 19.955L226.567 23.6902L226.311 23.5878C223.697 22.5133 220.93 21.8993 218.06 21.7458H217.753L214.678 16.1686L207.503 17.3966L206.478 23.6902L206.222 23.7925C203.608 24.9182 201.2 26.402 199.098 28.2952L198.893 28.4999L192.744 26.6067L188.541 32.5421L192.282 37.71L192.18 37.9658C191.104 40.5753 190.489 43.3383 190.335 46.2037V46.5107L184.749 49.5807L185.979 56.7441L192.282 57.7675L192.385 58.0233C193.512 60.6328 194.999 63.0377 196.895 65.1355L197.1 65.3402L195.306 71.4291L201.251 75.6248L206.324 71.9408ZM216.574 65.9542C212.833 65.9542 209.194 64.8285 206.119 62.6283C203.455 60.7352 201.302 58.1256 200.021 55.1579C199.918 54.9021 200.021 54.5951 200.277 54.4928C200.533 54.3904 200.841 54.4928 200.943 54.7486C202.173 57.5628 204.172 60.0188 206.734 61.8097C210.475 64.4704 215.037 65.4937 219.546 64.7262C224.056 63.9587 228.002 61.5027 230.667 57.7675C233.332 54.0323 234.357 49.5296 233.588 44.9757C232.82 40.473 230.36 36.5331 226.619 33.8724C218.931 28.3976 208.169 30.2396 202.737 37.9658C202.02 38.938 201.456 40.0125 200.943 41.1382C200.841 41.394 200.533 41.4963 200.277 41.394C200.021 41.2917 199.918 40.9847 200.021 40.7288C200.533 39.552 201.148 38.4263 201.917 37.3518C207.708 29.2162 219.085 27.2719 227.234 33.0538C231.18 35.8679 233.845 40.0125 234.613 44.8222C235.433 49.5807 234.357 54.3904 231.538 58.3303C228.72 62.2702 224.569 64.9309 219.751 65.6984C218.624 65.8519 217.599 65.9542 216.574 65.9542Z" fill="white"/>
<path d="M216.471 54.7998C216.266 54.7998 216.113 54.7998 215.908 54.7998C214.063 54.6463 212.32 53.7764 211.142 52.3949C208.631 49.4784 208.989 45.0268 211.91 42.5197C214.832 40.0125 219.29 40.3706 221.801 43.2872C223.031 44.7198 223.595 46.5107 223.441 48.4039C223.287 50.2459 222.416 51.9856 221.033 53.1624C219.7 54.2369 218.111 54.7998 216.471 54.7998ZM212.577 43.2872C210.065 45.4362 209.758 49.2225 211.91 51.7297C212.935 52.9577 214.422 53.6741 216.01 53.8276C217.599 53.9299 219.136 53.4694 220.366 52.3949C221.596 51.3716 222.314 49.8877 222.467 48.3015C222.57 46.7154 222.109 45.1803 221.033 43.9523C218.829 41.4451 215.088 41.1381 212.577 43.2872Z" fill="white"/>
<path d="M272.691 60.7351C272.639 60.7351 272.639 60.7351 272.588 60.7351L269.103 60.2746C268.796 60.2235 268.539 60.0188 268.437 59.6606L267.873 57.0511C266.695 56.5906 265.618 55.9766 264.645 55.2091L262.133 56.0789C261.826 56.1813 261.467 56.0789 261.313 55.8231L259.161 53.0601C258.956 52.8042 258.956 52.4461 259.11 52.1902L260.545 49.99C260.032 48.8644 259.725 47.6363 259.571 46.4083L257.214 45.2315C256.906 45.078 256.752 44.771 256.804 44.464L257.265 40.9846C257.316 40.6776 257.521 40.4218 257.88 40.3195L260.494 39.7566C260.955 38.5798 261.57 37.5053 262.338 36.5331L261.467 34.0259C261.365 33.7189 261.467 33.3607 261.723 33.2072L264.491 31.0582C264.747 30.8535 265.106 30.8535 265.362 31.007L267.566 32.4397C268.693 31.928 269.923 31.621 271.153 31.4675L272.332 29.1139C272.486 28.8069 272.793 28.6534 273.101 28.7045L276.585 29.165C276.893 29.2162 277.149 29.4209 277.252 29.779L277.815 32.3886C278.994 32.8491 280.07 33.4631 281.044 34.2306L283.555 33.3607C283.863 33.2584 284.221 33.3607 284.375 33.6166L286.528 36.3796C286.733 36.6354 286.733 36.9936 286.579 37.2494L285.144 39.4496C285.656 40.5753 285.964 41.8033 286.118 43.0313L288.475 44.2082C288.782 44.3617 288.936 44.6687 288.885 44.9757L288.424 48.455C288.372 48.762 288.167 49.0179 287.809 49.1202L285.195 49.683C284.734 50.8599 284.119 51.9344 283.35 52.9066L284.221 55.4137C284.324 55.7208 284.221 56.0789 283.965 56.2324L281.198 58.3814C280.941 58.5861 280.583 58.5861 280.327 58.4326L278.123 56.9999C276.995 57.5116 275.765 57.8186 274.535 57.9721L273.357 60.3258C273.254 60.5816 272.998 60.7351 272.691 60.7351ZM269.462 59.3024L272.588 59.7118L273.921 56.9999L274.177 56.9488C275.509 56.7953 276.79 56.4371 278.02 55.9254L278.277 55.8231L280.788 57.4604L283.248 55.5672L282.274 52.7019L282.428 52.4972C283.248 51.4739 283.914 50.297 284.375 49.069L284.478 48.8132L287.45 48.1992L287.86 45.078L285.144 43.7476L285.093 43.4918C284.939 42.1615 284.58 40.8823 284.068 39.6543L283.965 39.3984L285.605 36.8913L283.709 34.4352L280.839 35.3051L280.634 35.1516C279.609 34.3329 278.43 33.6677 277.2 33.2072L276.944 33.1049L276.329 30.1372L273.203 29.7279L271.871 32.4397L271.614 32.4909C270.282 32.6444 269.001 33.0026 267.771 33.5142L267.514 33.6166L265.003 31.9792L262.543 33.8724L263.517 36.7378L263.363 36.9424C262.543 37.9658 261.877 39.1426 261.416 40.3706L261.313 40.6265L258.341 41.2405L257.931 44.3617L260.647 45.692L260.699 45.9478C260.852 47.2782 261.211 48.5574 261.723 49.7854L261.826 50.0412L260.186 52.5484L262.082 55.0044L264.952 54.0322L265.157 54.1857C266.182 55.0044 267.361 55.6696 268.591 56.1301L268.847 56.2324L269.462 59.3024ZM272.947 53.7252C270.282 53.7252 267.617 52.5484 265.823 50.2459C264.798 48.9667 264.183 47.4317 263.978 45.7943C263.927 45.5385 264.132 45.2827 264.44 45.2315C264.696 45.1803 264.952 45.385 265.003 45.692C265.157 47.1247 265.721 48.455 266.643 49.6319C269.359 53.1112 274.382 53.7252 277.815 51.0645C279.507 49.7854 280.583 47.8922 280.839 45.7943C281.095 43.6965 280.532 41.5986 279.25 39.9101C276.534 36.4308 271.512 35.8167 268.078 38.4774C267.617 38.8356 267.207 39.2449 266.848 39.6543C266.643 39.8589 266.336 39.9101 266.131 39.7054C265.926 39.5008 265.875 39.1938 266.08 38.9891C266.49 38.4774 266.951 38.0681 267.463 37.6588C271.409 34.6399 277.047 35.3562 280.07 39.2449C281.556 41.1381 282.171 43.4918 281.864 45.8967C281.556 48.3015 280.327 50.3994 278.43 51.8832C276.842 53.1112 274.894 53.7252 272.947 53.7252Z" fill="white"/>
<path d="M311.741 326.907C312.459 326.907 313.125 326.497 313.433 325.832L352.074 239.104C352.484 238.183 352.022 237.16 351.1 236.75C350.177 236.341 349.101 236.801 348.691 237.671L310.05 324.451C309.64 325.372 310.102 326.395 311.024 326.804C311.28 326.907 311.537 326.907 311.741 326.907Z" fill="url(#paint14_linear)"/>
<path d="M391.125 326.907C390.407 326.907 389.741 326.497 389.433 325.832L350.844 239.053C350.434 238.132 350.895 237.108 351.817 236.699C352.74 236.29 353.816 236.75 354.226 237.62L392.816 324.399C393.226 325.32 392.765 326.344 391.842 326.753C391.637 326.907 391.381 326.907 391.125 326.907Z" fill="url(#paint15_linear)"/>
<path d="M353.099 330.847C352.432 330.591 351.971 329.926 351.971 329.209L350.28 234.294C350.28 233.322 351.049 232.503 352.074 232.503C353.099 232.503 353.919 233.322 353.919 234.294L355.61 329.209C355.61 330.181 354.841 331 353.816 331C353.56 331 353.355 330.949 353.099 330.847Z" fill="url(#paint16_linear)"/>
<path d="M355.559 235.42C355.559 237.057 353.919 238.183 352.176 238.183C350.434 238.183 349.409 237.057 349.409 235.42V209.99C349.409 208.353 350.434 206.92 352.176 206.92C353.919 206.92 355.559 208.301 355.559 209.99V235.42Z" fill="url(#paint17_linear)"/>
<path d="M341.055 203.389L341.517 210.041C341.568 210.655 342.08 211.064 342.695 211.064H346.385V213.213C346.385 214.134 346.436 214.646 347.359 214.646H349.819L354.841 214.697L356.891 203.389H341.055Z" fill="url(#paint18_linear)"/>
<path d="M347.103 203.389L349.716 214.697L357.916 214.851C358.736 214.851 359.453 214.237 359.556 213.418L359.915 210.655L362.733 210.706C364.732 210.757 366.423 209.376 366.833 207.431L367.653 203.389H347.103Z" fill="url(#paint19_linear)"/>
<path d="M349.255 171.666H344.899C343.413 171.666 342.183 172.484 342.132 173.968L341.978 177.294H331.574C329.063 177.294 327.065 179.443 327.013 181.95L326.757 199.705C326.757 200.933 327.218 202.161 328.09 202.98C328.961 203.85 330.14 204.362 331.318 204.362H334.137H356.122L349.255 171.666Z" fill="url(#paint20_linear)"/>
<path d="M380.106 199.603L379.133 181.746C378.979 179.341 376.98 177.294 374.572 177.294H361.76V173.508C361.76 172.74 361.042 172.024 360.478 171.461C359.915 170.949 358.992 170.642 358.223 170.694L350.383 171.154C349.563 171.205 348.794 171.615 348.281 172.229C347.769 172.843 347.564 173.508 347.718 174.275L348.281 177.192H340.235C337.724 177.192 336.136 179.597 336.136 182.104V199.756C336.136 202.264 337.673 204.31 340.235 204.31H375.597C376.826 204.31 378.056 203.799 378.928 202.878C379.696 202.059 380.158 200.831 380.106 199.603Z" fill="url(#paint21_linear)"/>
<path d="M363.451 184.457C362.938 183.843 362.17 183.434 361.35 183.434H342.183C340.645 183.434 339.21 184.816 339.21 186.351V196.431C339.21 197.966 340.645 199.296 342.183 199.296H360.068C361.452 199.296 362.631 198.221 362.836 196.84L364.168 186.709C364.219 185.89 363.963 185.02 363.451 184.457Z" fill="url(#paint22_linear)"/>
<path d="M351.612 176.987C350.997 176.987 350.434 176.527 350.28 175.913L350.126 175.145C350.024 174.736 350.126 174.173 350.382 173.866C350.639 173.559 350.997 173.201 351.407 173.201H356.993C357.711 173.201 358.633 174.122 358.633 174.889V175.094C358.633 175.759 357.967 176.373 357.301 176.424L351.817 176.987C351.766 176.987 351.664 176.987 351.612 176.987ZM351.459 173.712C351.151 173.712 350.895 173.917 350.69 174.173C350.485 174.378 350.434 174.736 350.485 175.043L350.639 175.861C350.741 176.322 351.202 176.68 351.715 176.629L357.455 176.066C357.967 176.015 358.685 175.606 358.685 175.094V174.889C358.685 174.378 357.557 173.712 357.045 173.712H351.459Z" fill="url(#paint23_linear)"/>
<path d="M359.402 187.732C360.081 187.732 360.632 187.182 360.632 186.504C360.632 185.826 360.081 185.276 359.402 185.276C358.723 185.276 358.172 185.826 358.172 186.504C358.172 187.182 358.723 187.732 359.402 187.732Z" fill="url(#paint24_linear)"/>
<path d="M369.498 193.668C369.498 193.156 369.549 190.393 369.805 190.291C370.062 190.188 374.008 190.291 374.008 190.291V193.668H376.57V196.738H373.239L373.444 198.784H369.805L369.857 196.175L367.397 196.738V193.719H369.498V193.668Z" fill="url(#paint25_linear)"/>
<path d="M371.855 187.988C373.299 187.988 374.469 186.82 374.469 185.379C374.469 183.937 373.299 182.769 371.855 182.769C370.412 182.769 369.242 183.937 369.242 185.379C369.242 186.82 370.412 187.988 371.855 187.988Z" fill="url(#paint26_linear)"/>
<path d="M359.658 236.648C359.658 238.183 357.711 239.155 355.968 239.155H341.67C339.979 239.155 338.647 238.132 338.647 236.648V236.546C338.647 235.011 339.979 234.09 341.67 234.09H355.968C357.66 234.09 359.658 235.062 359.658 236.546V236.648Z" fill="url(#paint27_linear)"/>
<path d="M363.246 236.75C363.246 238.285 361.811 239.206 360.068 239.206H345.77C344.079 239.206 343.259 238.285 343.259 236.75V236.648C343.259 235.113 344.079 234.09 345.77 234.09H360.068C361.759 234.09 363.246 235.062 363.246 236.648V236.75Z" fill="url(#paint28_linear)"/>
<path d="M363.194 207.022C363.553 206.92 375.853 217.46 375.853 217.46L373.854 218.381L361.811 209.785C361.862 209.734 360.581 207.739 363.194 207.022Z" fill="url(#paint29_linear)"/>
<path d="M375.648 216.028C375.033 215.618 374.264 215.669 373.752 216.13C372.778 216.897 371.65 218.177 373.188 219.251C375.545 220.888 385.436 228.922 386.769 227.847C388.101 226.773 390.356 225.698 375.648 216.028Z" fill="url(#paint30_linear)"/>
<path d="M235.023 157.492C235.023 157.492 294.625 128.123 275.099 106.479C255.625 84.8351 219.29 93.4824 217.445 116.252C215.6 139.021 259.827 133.7 235.023 157.492Z" fill="url(#paint31_linear)"/>
<path d="M270.077 112.568H243.787C243.479 112.568 243.274 112.363 243.274 112.056C243.274 111.749 243.479 111.544 243.787 111.544H270.077C270.384 111.544 270.589 111.749 270.589 112.056C270.589 112.363 270.333 112.568 270.077 112.568Z" fill="white"/>
<path d="M235.946 112.568H228.156C227.849 112.568 227.644 112.363 227.644 112.056C227.644 111.749 227.849 111.544 228.156 111.544H235.946C236.253 111.544 236.458 111.749 236.458 112.056C236.458 112.363 236.253 112.568 235.946 112.568Z" fill="white"/>
<path d="M270.948 117.889H261.057C260.75 117.889 260.545 117.685 260.545 117.378C260.545 117.071 260.75 116.866 261.057 116.866H270.948C271.256 116.866 271.461 117.071 271.461 117.378C271.461 117.685 271.204 117.889 270.948 117.889Z" fill="white"/>
<path d="M246.605 117.889H229.079C228.771 117.889 228.566 117.685 228.566 117.378C228.566 117.071 228.771 116.866 229.079 116.866H246.605C246.913 116.866 247.118 117.071 247.118 117.378C247.118 117.685 246.862 117.889 246.605 117.889Z" fill="white"/>
<path d="M271.819 123.211H245.58C245.273 123.211 245.068 123.006 245.068 122.699C245.068 122.392 245.273 122.187 245.58 122.187H271.819C272.127 122.187 272.332 122.392 272.332 122.699C272.332 123.006 272.127 123.211 271.819 123.211Z" fill="white"/>
<path d="M239.021 123.211H229.95C229.642 123.211 229.437 123.006 229.437 122.699C229.437 122.392 229.642 122.187 229.95 122.187H239.021C239.328 122.187 239.533 122.392 239.533 122.699C239.533 123.006 239.277 123.211 239.021 123.211Z" fill="white"/>
<path d="M205.248 326.753C208.426 326.651 210.065 326.293 210.937 325.935C210.937 326.242 210.937 326.549 210.937 326.907C210.937 327.265 210.68 327.572 210.322 327.521L192.846 327.418C192.282 327.418 191.975 326.753 192.18 326.242C194.486 326.497 200.328 326.907 205.248 326.753Z" fill="url(#paint32_linear)"/>
<path d="M210.014 320.101C209.604 318.669 208.323 317.697 206.837 317.748L205.402 317.799C197.664 319.641 193.718 323.939 192.18 326.088C192.129 326.139 192.129 326.19 192.129 326.242C194.435 326.446 200.226 326.856 205.146 326.702C208.323 326.6 209.963 326.242 210.834 325.883C210.783 323.427 210.424 321.483 210.014 320.101Z" fill="url(#paint33_linear)"/>
<path d="M203.096 312.785L204.326 318.669C204.428 319.078 204.736 319.436 205.146 319.436C205.658 319.487 206.324 319.488 207.042 319.385C207.657 319.283 208.118 318.669 208.016 317.952L207.144 312.733H203.096V312.785Z" fill="url(#paint34_linear)"/>
<path d="M228.361 326.753C225.184 326.651 223.544 326.293 222.672 325.935C222.672 326.242 222.672 326.549 222.672 326.907C222.672 327.265 222.929 327.572 223.287 327.521L240.763 327.418C241.327 327.418 241.634 326.753 241.429 326.242C239.123 326.497 233.281 326.907 228.361 326.753Z" fill="url(#paint35_linear)"/>
<path d="M241.378 326.293C241.378 326.242 241.327 326.19 241.327 326.139C239.789 323.99 235.843 319.692 228.105 317.85L224.364 317.748C224.364 317.748 222.724 320.613 222.672 325.935C223.544 326.293 225.184 326.651 228.361 326.753C233.281 326.907 239.123 326.497 241.378 326.293Z" fill="url(#paint36_linear)"/>
<path d="M223.697 312.119C223.749 312.375 224.261 316.622 224.466 318.26C224.517 318.669 224.774 318.925 225.132 318.976C225.747 319.027 226.772 319.129 227.695 318.925C228.156 318.822 228.515 318.362 228.515 317.799V311.198L223.697 312.119Z" fill="url(#paint37_linear)"/>
<path d="M220.674 235.266C220.674 235.266 229.642 269.344 229.489 312.222C229.489 312.989 228.925 313.655 228.156 313.859C227.029 314.115 225.389 314.371 224.005 314.32C223.288 314.32 222.673 313.757 222.519 313.04C221.238 305.672 214.012 264.125 209.912 257.371C209.912 257.371 207.196 294.365 208.067 313.552C208.067 314.013 207.759 314.422 207.247 314.473C206.529 314.576 205.351 314.627 203.916 314.473C203.352 314.422 202.891 314.013 202.84 313.45C201.917 307.207 196.792 270.06 196.997 243.3C196.997 241.816 200.995 235.215 200.995 235.215H220.674V235.266Z" fill="url(#paint38_linear)"/>
<path d="M202.481 182.513C202.481 182.513 186.543 180.211 190.899 200.319C195.204 220.428 198.022 231.02 198.842 239.36C201.712 241.202 219.956 239.36 220.674 239.002C221.391 238.643 221.648 239.411 221.596 235.829C221.545 232.248 227.49 203.185 227.951 201.496C228.412 199.756 242.557 220.94 240.558 208.404C238.508 195.868 228.156 179.852 216.83 180.876C205.556 181.848 202.481 182.513 202.481 182.513Z" fill="url(#paint39_linear)"/>
<path d="M227.951 201.496C227.951 201.496 240.148 215.874 241.737 215.874C243.377 215.874 244.709 210.45 244.709 210.45L236.304 196.073L227.951 201.496Z" fill="url(#paint40_linear)"/>
<path d="M204.838 171.768L203.659 183.69C203.659 183.69 210.373 185.686 215.242 182.257L211.808 171.41L204.838 171.768Z" fill="url(#paint41_linear)"/>
<path d="M217.394 160.307C217.394 160.307 219.188 168.544 218.624 172.536C218.06 176.527 218.419 179.29 213.653 179.187C208.887 179.085 205.504 176.015 204.172 171.666C204.172 171.666 202.122 164.912 203.352 162.558C204.531 160.204 217.394 160.307 217.394 160.307Z" fill="url(#paint42_linear)"/>
<path d="M206.273 169.107L206.581 169.056C206.939 168.954 207.144 168.596 207.042 168.238C206.632 166.856 205.966 163.735 207.708 163.377C209.963 162.916 218.675 162.865 221.033 160.307C223.339 157.799 222.519 153.86 220.418 152.325C220.264 152.222 220.11 152.222 219.956 152.376L219.7 152.683C219.495 152.887 219.136 152.785 219.136 152.529C219.136 152.273 218.778 152.12 218.573 152.325C217.855 153.092 216.061 154.218 211.91 154.167C206.017 154.064 201.815 155.65 200.943 159.539C200.892 159.795 200.585 159.897 200.431 159.693C200.072 159.334 199.406 159.079 198.381 159.693C196.587 160.716 196.536 164.195 199.406 167.675C199.56 167.828 199.508 168.084 199.303 168.186C198.586 168.442 197.51 169.261 199.611 171.001C201.815 172.791 203.711 173.047 204.428 173.098C204.633 173.098 204.736 172.945 204.736 172.791L204.684 169.21C204.684 169.005 204.889 168.852 205.043 168.903L206.273 169.107Z" fill="url(#paint43_linear)"/>
<path d="M206.273 169.875C206.273 169.875 205.966 164.809 203.557 165.73C201.097 166.651 203.608 171.359 205.299 171.87L206.273 169.875Z" fill="url(#paint44_linear)"/>
<path d="M255.164 181.95C254.959 178.471 253.37 176.373 251.73 175.145C251.423 174.94 251.115 174.736 250.808 174.531C249.373 173.712 248.194 173.508 248.194 173.508C247.22 171.973 247.118 182.462 247.118 182.462C247.015 182.564 246.913 182.718 246.862 182.82C246.862 182.564 246.862 182.308 246.862 182.053C247.067 180.108 245.58 179.75 245.58 180.211C245.58 180.671 244.965 183.588 244.76 184.764C244.555 185.839 247.784 189.932 248.194 190.444C248.194 190.495 248.245 190.546 248.245 190.546C248.245 190.546 240.507 215.362 241.327 215.823C241.737 216.079 247.272 220.377 249.475 218.074C251.474 215.925 253.011 194.23 253.268 190.495C253.268 190.495 254.703 189.523 255.112 185.481C255.112 185.481 255.112 185.481 255.112 185.43C255.164 185.225 255.164 185.071 255.164 184.918C255.164 184.867 255.164 184.764 255.164 184.713C255.164 183.946 255.164 183.025 255.164 181.95Z" fill="url(#paint45_linear)"/>
<path d="M197.459 183.025C196.946 182.513 178.804 185.685 178.804 220.428C178.804 233.22 178.804 233.22 178.804 233.22L185.876 233.629L194.23 204.361C194.179 204.361 202.327 187.476 197.459 183.025Z" fill="url(#paint46_linear)"/>
<path d="M178.24 233.22L185.569 233.629L187.209 253.124C187.209 253.124 188.798 254.71 188.746 258.292C188.644 261.873 188.285 262.232 187.721 261.771C187.209 261.31 187.311 259.417 186.594 258.803C185.876 258.189 185.364 260.543 185.979 261.924C186.594 263.306 188.849 269.958 186.645 267.86C184.441 265.762 182.494 262.283 182.34 259.11C182.187 255.938 183.058 253.584 183.058 253.584L178.24 233.22Z" fill="url(#paint47_linear)"/>
<path d="M338.595 46.8689L339.364 54.3393L333.983 51.6274L338.595 46.8689Z" fill="url(#paint48_linear)"/>
<path d="M304.516 45.999L326.552 61.6562C326.962 61.9632 327.475 62.0655 327.987 61.9632C328.5 61.8608 328.961 61.5538 329.217 61.1445L344.13 38.4775C344.284 38.2216 344.284 37.8635 344.13 37.6076C343.977 37.3518 343.618 37.2495 343.31 37.3006L304.516 45.999Z" fill="url(#paint49_linear)"/>
<path d="M338.595 46.8689L304.516 45.999L336.187 50.5017L336.494 52.5996L338.595 46.8689Z" fill="url(#paint50_linear)"/>
<path d="M334.752 52.7019L339.364 54.3392L336.187 50.5017L334.752 52.7019Z" fill="url(#paint51_linear)"/>
<path d="M343.156 55.1581C343.156 55.1581 343.31 55.2092 343.515 55.2604C343.771 55.3116 344.079 55.3627 344.386 55.4651C345.001 55.6186 345.616 55.7209 345.616 55.7209C345.821 55.7721 345.975 55.9767 345.924 56.1814C345.873 56.3861 345.668 56.5396 345.463 56.4884C345.463 56.4884 344.848 56.3861 344.181 56.2326C343.874 56.1814 343.566 56.0791 343.31 56.0279C343.054 55.9767 342.9 55.9256 342.9 55.9256C342.695 55.8744 342.542 55.6697 342.593 55.4651C342.695 55.2092 342.9 55.1069 343.156 55.1581Z" fill="#CE41A4"/>
<path d="M348.128 56.0791L350.69 56.3861C350.895 56.3861 351.049 56.5908 351.049 56.7954C351.049 57.0001 350.844 57.1536 350.639 57.1536L348.076 56.8466C347.871 56.8466 347.718 56.6419 347.718 56.4373C347.718 56.2326 347.923 56.0791 348.128 56.0791Z" fill="#CE41A4"/>
<path d="M353.201 56.5396L355.764 56.5907C355.969 56.5907 356.122 56.7954 356.122 57.0001C356.122 57.2047 355.917 57.3582 355.712 57.3582L353.15 57.3071C352.945 57.3071 352.791 57.1024 352.791 56.8977C352.791 56.6931 352.996 56.5396 353.201 56.5396Z" fill="#CE41A4"/>
<path d="M358.275 56.5395C358.275 56.5395 358.89 56.5395 359.556 56.4883C360.171 56.4372 360.837 56.386 360.837 56.386C361.042 56.386 361.247 56.5395 361.247 56.7442C361.247 56.9488 361.093 57.1535 360.888 57.1535C360.888 57.1535 360.222 57.2047 359.607 57.2558C358.941 57.307 358.326 57.307 358.326 57.307C358.121 57.307 357.865 57.1535 357.865 56.9488C357.865 56.7442 358.172 56.5395 358.172 56.5395H358.275Z" fill="#CE41A4"/>
<path d="M363.348 56.028C363.348 56.028 363.963 55.9768 364.578 55.8745C365.193 55.7722 365.808 55.6698 365.808 55.6698C366.013 55.6187 366.218 55.7722 366.269 55.9768C366.321 56.1815 366.167 56.3862 365.962 56.4373C365.962 56.4373 365.347 56.5908 364.681 56.6932C364.066 56.7955 363.399 56.8978 363.399 56.8978C363.194 56.949 362.99 56.7443 362.99 56.5397C362.99 56.2838 363.143 56.028 363.348 56.028Z" fill="#CE41A4"/>
<path d="M368.319 55.0557C368.319 55.0557 368.934 54.9022 369.549 54.6975C370.164 54.4929 370.779 54.2882 370.779 54.2882C370.984 54.237 371.189 54.3394 371.24 54.544C371.292 54.7487 371.189 54.9534 370.984 55.0045C370.984 55.0045 370.369 55.2092 369.754 55.4139C369.139 55.6185 368.524 55.772 368.524 55.772C368.319 55.8232 368.114 55.7209 368.063 55.5162C368.012 55.3115 368.114 55.1069 368.319 55.0557Z" fill="#CE41A4"/>
<path d="M373.137 53.4184C373.137 53.4184 373.7 53.1626 374.315 52.9068C374.879 52.6509 375.443 52.3439 375.443 52.3439C375.648 52.2416 375.853 52.3439 375.955 52.4974C376.058 52.7021 375.955 52.9068 375.802 53.0091C375.802 53.0091 375.238 53.3161 374.623 53.5719C374.059 53.8278 373.444 54.0836 373.444 54.0836C373.239 54.186 373.034 54.0836 372.932 53.879C372.829 53.7254 372.932 53.5208 373.137 53.4184Z" fill="#CE41A4"/>
<path d="M377.646 51.1671C377.646 51.1671 378.21 50.809 378.723 50.502L378.928 50.3996C378.979 50.3485 379.03 50.2973 379.133 50.2973C379.235 50.195 379.389 50.1438 379.491 50.0926C379.696 49.9391 379.799 49.888 379.799 49.888C379.953 49.7856 380.209 49.8368 380.311 49.9903C380.414 50.1438 380.363 50.3996 380.209 50.502C380.209 50.502 380.055 50.6043 379.901 50.7066C379.799 50.7578 379.696 50.8601 379.543 50.9113C379.491 50.9625 379.389 51.0136 379.338 51.0648L379.133 51.1671C378.569 51.5253 378.056 51.8323 378.056 51.8323C377.903 51.9346 377.646 51.8835 377.544 51.73C377.441 51.5253 377.493 51.3206 377.646 51.1671Z" fill="#CE41A4"/>
<path d="M381.849 48.3018L383.847 46.7156C384.001 46.6133 384.257 46.6133 384.36 46.7668C384.462 46.9203 384.462 47.1761 384.309 47.2784L382.31 48.8646C382.156 48.967 381.9 48.967 381.797 48.8135C381.644 48.66 381.695 48.4553 381.849 48.3018Z" fill="#CE41A4"/>
<path d="M385.795 45.0783L387.691 43.3386C387.845 43.1851 388.05 43.2362 388.204 43.3386C388.357 43.4921 388.306 43.6967 388.204 43.8502L386.307 45.5899C386.154 45.7434 385.897 45.6923 385.795 45.5899C385.641 45.4364 385.641 45.2318 385.795 45.0783Z" fill="#CE41A4"/>
<path d="M389.485 41.5986L391.227 39.7055C391.381 39.552 391.586 39.552 391.74 39.7055C391.893 39.859 391.893 40.0636 391.74 40.2171L389.997 42.1103C389.843 42.2638 389.638 42.2638 389.485 42.1103C389.331 41.9568 389.331 41.7521 389.485 41.5986Z" fill="#CE41A4"/>
<path d="M392.867 37.8124C392.867 37.8124 393.277 37.3007 393.636 36.789C393.995 36.2774 394.353 35.7657 394.353 35.7657C394.456 35.6122 394.712 35.561 394.866 35.6633C395.019 35.7657 395.071 36.0215 394.968 36.175C394.968 36.175 394.61 36.6867 394.2 37.2495C393.841 37.7612 393.431 38.2729 393.431 38.2729C393.328 38.4264 393.072 38.4775 392.918 38.324C392.765 38.1705 392.765 37.9659 392.867 37.8124Z" fill="#CE41A4"/>
<path d="M395.686 33.6167C395.686 33.6167 395.993 33.0539 396.249 32.491C396.506 31.9282 396.762 31.3142 396.762 31.3142C396.813 31.1095 397.018 31.0584 397.223 31.1095C397.428 31.1607 397.479 31.3654 397.428 31.57C397.428 31.57 397.172 32.184 396.916 32.7469C396.659 33.3609 396.301 33.9237 396.301 33.9237C396.198 34.0772 395.993 34.1795 395.788 34.0772C395.686 34.026 395.634 33.7702 395.686 33.6167Z" fill="#CE41A4"/>
<path d="M397.428 28.9605C397.428 28.9605 397.428 28.807 397.479 28.5511C397.531 28.3465 397.531 28.0395 397.531 27.7325C397.531 27.1185 397.479 26.5045 397.479 26.5045C397.428 26.2998 397.582 26.1463 397.787 26.0951C397.992 26.044 398.146 26.1975 398.197 26.4021C398.197 26.4021 398.299 27.0673 398.299 27.7325C398.299 28.0906 398.248 28.3976 398.248 28.6535C398.197 28.9093 398.197 29.0628 398.197 29.0628C398.146 29.2675 397.992 29.421 397.787 29.3698C397.531 29.3698 397.428 29.1651 397.428 28.9605Z" fill="#CE41A4"/>
<path d="M396.711 24.2021C396.711 24.2021 396.659 24.0486 396.506 23.8951C396.454 23.7927 396.352 23.6904 396.301 23.5881C396.198 23.4857 396.147 23.3834 396.044 23.2811C395.634 22.8717 395.122 22.6159 395.122 22.6159C394.968 22.5136 394.866 22.3089 394.968 22.1554C395.071 22.0019 395.276 21.8996 395.429 22.0019C395.429 22.0019 396.044 22.3089 396.557 22.8206C396.659 22.9229 396.813 23.0764 396.916 23.2299C397.018 23.3834 397.069 23.4857 397.172 23.5881C397.326 23.7927 397.377 23.9462 397.377 23.9462C397.479 24.0997 397.428 24.3556 397.223 24.4067C397.018 24.4579 396.813 24.4067 396.711 24.2021Z" fill="#CE41A4"/>
<path d="M392.765 22.0018C392.765 22.0018 392.611 22.0018 392.355 21.9506C392.098 21.9506 391.791 21.9506 391.483 21.9506C390.868 21.9506 390.253 22.053 390.253 22.053C390.048 22.1041 389.895 21.9506 389.843 21.7459C389.792 21.5413 389.946 21.3878 390.151 21.3366C390.151 21.3366 390.817 21.2343 391.483 21.1831C391.791 21.1831 392.15 21.1831 392.406 21.1831C392.662 21.1831 392.816 21.2343 392.816 21.2343C393.021 21.2343 393.174 21.4389 393.123 21.5924C393.123 21.8483 392.969 22.0018 392.765 22.0018Z" fill="#CE41A4"/>
<path d="M387.947 22.7692C387.947 22.7692 387.793 22.8204 387.588 22.9227C387.383 23.025 387.127 23.1785 386.922 23.3832C386.717 23.5879 386.512 23.7926 386.359 23.9461C386.307 24.0484 386.256 24.0996 386.205 24.1507C386.154 24.2019 386.154 24.2531 386.154 24.2531C386.051 24.4066 385.846 24.4577 385.692 24.3554C385.539 24.2531 385.487 24.0484 385.59 23.8949C385.59 23.8949 385.59 23.8437 385.641 23.7926C385.692 23.7414 385.744 23.6391 385.846 23.5367C386 23.3321 386.256 23.0762 386.512 22.8715C386.769 22.6669 387.076 22.4622 387.281 22.3599C387.486 22.2575 387.64 22.1552 387.64 22.1552C387.793 22.0529 388.05 22.1552 388.101 22.3087C388.203 22.4622 388.101 22.6669 387.947 22.7692Z" fill="#CE41A4"/>
<path d="M385.59 26.5047C385.59 26.5047 385.59 26.5558 385.59 26.607C385.59 26.6582 385.59 26.7605 385.59 26.8628C385.59 27.0675 385.641 27.3745 385.744 27.6815C385.897 28.2443 386.154 28.8072 386.154 28.8072C386.256 28.9607 386.154 29.1653 386 29.2677C385.846 29.37 385.641 29.2677 385.539 29.1142C385.539 29.1142 385.231 28.5002 385.077 27.835C384.975 27.528 384.924 27.1698 384.924 26.914C384.924 26.8117 384.924 26.6582 384.924 26.607C384.924 26.5558 384.924 26.5047 384.924 26.5047C384.924 26.3 385.077 26.1465 385.282 26.1465C385.385 26.1465 385.539 26.3 385.59 26.5047Z" fill="#CE41A4"/>
<path d="M387.486 30.9049C387.486 30.9049 387.588 31.0073 387.742 31.2119C387.896 31.4166 388.101 31.6213 388.306 31.8771C388.716 32.3376 389.177 32.7981 389.177 32.7981C389.331 32.9516 389.331 33.1563 389.177 33.3098C389.023 33.4633 388.818 33.4633 388.665 33.3098C388.665 33.3098 388.203 32.8493 387.742 32.3888C387.537 32.1329 387.332 31.8771 387.179 31.7236C387.025 31.5189 386.922 31.4166 386.922 31.4166C386.82 31.2631 386.82 31.0584 386.974 30.9049C387.178 30.7514 387.383 30.7514 387.486 30.9049Z" fill="#CE41A4"/>
<path d="M391.125 34.3841C391.125 34.3841 391.637 34.7422 392.15 35.1004C392.662 35.4586 393.226 35.7656 393.226 35.7656C393.379 35.8679 393.431 36.0726 393.379 36.2261C393.277 36.3796 393.072 36.4307 392.918 36.3796C392.918 36.3796 392.355 36.0726 391.791 35.7144C391.535 35.5609 391.227 35.3562 391.022 35.2027C390.817 35.0492 390.715 34.9469 390.715 34.9469C390.561 34.8446 390.51 34.6399 390.612 34.4864C390.715 34.3329 390.971 34.2817 391.125 34.3841Z" fill="#CE41A4"/>
<path d="M395.532 36.8402C395.532 36.8402 396.096 37.0961 396.711 37.3007C397.326 37.5054 397.889 37.7101 397.889 37.7101C398.094 37.7612 398.146 37.9659 398.094 38.1194C398.043 38.3241 397.838 38.3752 397.684 38.3241C397.684 38.3241 397.069 38.1194 396.454 37.9147C395.839 37.7101 395.224 37.4542 395.224 37.4542C395.071 37.4031 394.968 37.1984 395.019 36.9937C395.122 36.8402 395.327 36.7891 395.532 36.8402Z" fill="#CE41A4"/>
<path d="M400.349 38.3753C400.349 38.3753 400.964 38.5288 401.579 38.6312C402.194 38.7335 402.809 38.8358 402.809 38.8358C403.014 38.887 403.117 39.0405 403.117 39.2452C403.065 39.4498 402.912 39.5522 402.707 39.5522C402.707 39.5522 402.092 39.4499 401.425 39.3475C400.81 39.2452 400.144 39.0917 400.144 39.0917C399.939 39.0405 399.837 38.887 399.888 38.6823C399.939 38.4265 400.144 38.3242 400.349 38.3753Z" fill="#CE41A4"/>
<path d="M405.32 39.1941C405.32 39.1941 405.935 39.2453 406.602 39.2964H406.858C406.909 39.2964 407.012 39.2964 407.063 39.2964C407.217 39.2964 407.37 39.2964 407.473 39.2964C407.729 39.2964 407.883 39.2964 407.883 39.2964C408.088 39.2964 408.19 39.4499 408.19 39.6546C408.19 39.8593 408.036 39.9616 407.831 39.9616C407.831 39.9616 407.678 39.9616 407.421 39.9616C407.319 39.9616 407.165 39.9616 407.012 39.9616C406.909 39.9616 406.858 39.9616 406.755 39.9616H406.499C405.884 39.9104 405.218 39.8593 405.218 39.8593C405.013 39.8593 404.91 39.6546 404.91 39.5011C405.013 39.2964 405.167 39.1941 405.32 39.1941Z" fill="#CE41A4"/>
<path d="M410.445 39.6544C410.445 39.6544 411.06 39.552 411.726 39.552C412.341 39.552 413.008 39.4497 413.008 39.4497C413.212 39.4497 413.366 39.552 413.366 39.7567C413.366 39.9614 413.212 40.0637 413.059 40.1149C413.059 40.1149 412.393 40.166 411.778 40.166C411.111 40.166 410.496 40.166 410.496 40.166C410.291 40.166 410.138 40.1149 410.138 39.9102C410.086 39.7055 410.24 39.6544 410.445 39.6544Z" fill="#CE41A4"/>
<path d="M415.519 39.194L418.081 38.887C418.286 38.887 418.44 38.9893 418.44 39.194C418.44 39.3986 418.337 39.5521 418.132 39.5521L415.57 39.8591C415.365 39.8591 415.211 39.7568 415.211 39.5521C415.211 39.3475 415.314 39.194 415.519 39.194Z" fill="#CE41A4"/>
<path d="M420.541 38.4265L423.052 37.8636C423.206 37.8125 423.411 37.9148 423.462 38.1195C423.513 38.273 423.411 38.4776 423.206 38.5288L420.695 39.0916C420.541 39.1428 420.336 39.0405 420.285 38.8358C420.233 38.6311 420.336 38.4265 420.541 38.4265Z" fill="#CE41A4"/>
<path d="M425.512 37.2497L427.972 36.5333C428.126 36.4822 428.331 36.5845 428.382 36.738C428.433 36.8915 428.331 37.0962 428.177 37.1473L425.717 37.8637C425.563 37.9148 425.358 37.8125 425.307 37.659C425.205 37.4543 425.307 37.3008 425.512 37.2497Z" fill="#CE41A4"/>
<path d="M430.381 35.7145L432.789 34.8446C432.943 34.7934 433.148 34.8958 433.199 35.0493C433.25 35.2028 433.148 35.4075 432.994 35.4586L430.586 36.3285C430.432 36.3796 430.227 36.2773 430.176 36.1238C430.124 35.9703 430.227 35.7656 430.381 35.7145Z" fill="#CE41A4"/>
<path d="M435.198 33.9748L437.555 33.0026C437.709 32.9514 437.914 33.0026 437.965 33.1561C438.017 33.3096 437.965 33.5143 437.812 33.5654L435.454 34.5376C435.3 34.5888 435.095 34.5376 435.044 34.3329C434.942 34.2306 434.993 34.0259 435.198 33.9748Z" fill="#CE41A4"/>
<path d="M439.913 32.0306L442.27 31.0072C442.424 30.9561 442.629 31.0072 442.68 31.1607C442.731 31.3142 442.68 31.5189 442.526 31.5701L440.169 32.5934C440.015 32.6446 439.81 32.5934 439.759 32.4399C439.656 32.2864 439.759 32.0817 439.913 32.0306Z" fill="#CE41A4"/>
<path d="M444.576 29.9328L446.934 28.8583C447.087 28.8071 447.292 28.8583 447.344 29.0118C447.395 29.1653 447.344 29.37 447.19 29.4211L444.833 30.4956C444.679 30.5468 444.474 30.4956 444.423 30.3421C444.371 30.2398 444.423 30.0351 444.576 29.9328Z" fill="#CE41A4"/>
<path d="M449.24 27.8349L451.546 26.7604C451.7 26.7092 451.905 26.7604 451.956 26.9139C452.007 27.0674 451.956 27.2721 451.802 27.3232L449.496 28.3977C449.342 28.4489 449.137 28.3977 449.086 28.2442C449.035 28.0907 449.086 27.8861 449.24 27.8349Z" fill="#CE41A4"/>
<path d="M453.903 25.7369L456.261 24.7135C456.415 24.6624 456.62 24.7135 456.671 24.867C456.722 25.0205 456.671 25.2252 456.517 25.2764L454.16 26.2997C454.006 26.3509 453.801 26.2997 453.75 26.1462C453.698 25.9927 453.75 25.788 453.903 25.7369Z" fill="#CE41A4"/>
<path d="M458.618 23.6391L460.976 22.6669C461.129 22.6157 461.334 22.6669 461.386 22.8204C461.437 22.9739 461.386 23.1786 461.232 23.2297L458.874 24.2019C458.721 24.2531 458.516 24.2019 458.464 24.0484C458.362 23.8949 458.464 23.6902 458.618 23.6391Z" fill="#CE41A4"/>
<path d="M463.384 21.6948L465.793 20.7738C465.947 20.7227 466.152 20.7738 466.203 20.9785C466.254 21.132 466.203 21.3367 465.998 21.3878L463.589 22.3088C463.436 22.36 463.231 22.3088 463.179 22.1042C463.128 21.9507 463.231 21.746 463.384 21.6948Z" fill="#CE41A4"/>
<path d="M468.202 19.9551L470.662 19.1876C470.815 19.1365 471.02 19.2388 471.072 19.3923C471.123 19.5458 471.02 19.7505 470.867 19.8016L468.407 20.5691C468.253 20.6203 468.048 20.518 467.997 20.3645C467.945 20.1598 468.048 20.0063 468.202 19.9551Z" fill="#CE41A4"/>
<path d="M473.121 18.42L475.581 17.806C475.735 17.7549 475.889 17.8572 475.94 18.0107C475.991 18.1642 475.889 18.3177 475.735 18.3689L473.275 18.9829C473.121 19.034 472.968 18.9317 472.916 18.7782C472.865 18.6247 472.968 18.4712 473.121 18.42Z" fill="#CE41A4"/>
<path d="M478.092 17.2431C478.092 17.2431 478.246 17.1919 478.502 17.1919C478.759 17.1408 479.066 17.0896 479.374 17.0384C479.989 16.9361 480.655 16.8338 480.655 16.8338C480.809 16.7826 480.962 16.9361 481.014 17.0896C481.065 17.2431 480.911 17.3966 480.757 17.4478L478.246 17.9083C478.092 17.9594 477.939 17.8059 477.887 17.6524C477.836 17.4478 477.939 17.2943 478.092 17.2431Z" fill="#CE41A4"/>
<path d="M483.217 16.6294L485.78 16.2712C485.933 16.2712 486.087 16.3224 486.087 16.4759C486.087 16.6294 485.985 16.7317 485.831 16.7829L483.269 17.0387C483.115 17.0387 482.961 17.0387 482.961 16.8341C482.91 16.6806 483.012 16.6294 483.217 16.6294Z" fill="#CE41A4"/>
<path d="M488.342 16.1176C488.342 16.1176 489.008 16.0664 489.623 16.0664C490.289 16.0664 490.904 16.0664 490.904 16.0664C491.058 16.0664 491.161 16.1687 491.161 16.3222C491.161 16.4757 491.058 16.5781 490.904 16.5781C490.904 16.5781 490.289 16.5781 489.623 16.5781C489.008 16.5781 488.342 16.6292 488.342 16.6292C488.188 16.6292 488.035 16.5781 488.035 16.4246C488.035 16.2199 488.188 16.1176 488.342 16.1176Z" fill="#CE41A4"/>
<path d="M493.467 16.1174C493.467 16.1174 494.133 16.1686 494.748 16.2198C495.414 16.2709 496.029 16.3733 496.029 16.3733C496.183 16.3733 496.286 16.5268 496.234 16.6803C496.234 16.8338 496.081 16.9361 495.927 16.8849C495.927 16.8849 495.312 16.7826 494.646 16.7314C494.031 16.6803 493.364 16.6291 493.364 16.6291C493.211 16.6291 493.108 16.4756 493.108 16.3221C493.211 16.2198 493.313 16.1174 493.467 16.1174Z" fill="#CE41A4"/>
<path d="M498.592 16.6292L499.975 17.0897C500.129 17.1408 500.18 17.2943 500.18 17.4478C500.129 17.6013 500.027 17.7037 499.873 17.6525L498.489 17.3455C498.335 17.2943 498.284 17.0897 498.284 16.9362C498.284 16.7827 498.438 16.6292 498.592 16.6292Z" fill="#CE41A4"/>
<defs>
<linearGradient id="paint0_linear" x1="105.216" y1="151.011" x2="586.641" y2="161.802" gradientUnits="userSpaceOnUse">
<stop stop-color="#B37CFF"/>
<stop offset="1" stop-color="#F895E7"/>
</linearGradient>
<linearGradient id="paint1_linear" x1="116.112" y1="151.751" x2="569.344" y2="161.905" gradientUnits="userSpaceOnUse">
<stop stop-color="#B37CFF"/>
<stop offset="1" stop-color="#F895E7"/>
</linearGradient>
<linearGradient id="paint2_linear" x1="450.236" y1="214.869" x2="505.798" y2="34.9208" gradientUnits="userSpaceOnUse">
<stop stop-color="#18459F"/>
<stop offset="1" stop-color="#2874B5"/>
</linearGradient>
<linearGradient id="paint3_linear" x1="471.269" y1="213.241" x2="513.191" y2="244.658" gradientUnits="userSpaceOnUse">
<stop stop-color="#2B3582"/>
<stop offset="1" stop-color="#150E42"/>
</linearGradient>
<linearGradient id="paint4_linear" x1="85.8131" y1="98.0137" x2="184.402" y2="98.0137" gradientUnits="userSpaceOnUse">
<stop stop-color="#18459F"/>
<stop offset="1" stop-color="#2874B5"/>
</linearGradient>
<linearGradient id="paint5_linear" x1="26.2194" y1="188.931" x2="126.03" y2="188.931" gradientUnits="userSpaceOnUse">
<stop stop-color="#2B3582"/>
<stop offset="1" stop-color="#150E42"/>
</linearGradient>
<linearGradient id="paint6_linear" x1="-1.1902e-05" y1="239.959" x2="122.595" y2="239.959" gradientUnits="userSpaceOnUse">
<stop stop-color="#18459F"/>
<stop offset="1" stop-color="#2874B5"/>
</linearGradient>
<linearGradient id="paint7_linear" x1="250.741" y1="271.947" x2="331.678" y2="28.7516" gradientUnits="userSpaceOnUse">
<stop stop-color="#2B3582"/>
<stop offset="1" stop-color="#150E42"/>
</linearGradient>
<linearGradient id="paint8_linear" x1="269.982" y1="284.379" x2="306.565" y2="-19.944" gradientUnits="userSpaceOnUse">
<stop stop-color="#A737D5"/>
<stop offset="1" stop-color="#EF497A"/>
</linearGradient>
<linearGradient id="paint9_linear" x1="126.423" y1="178.866" x2="446.925" y2="178.866" gradientUnits="userSpaceOnUse">
<stop stop-color="#B37CFF"/>
<stop offset="1" stop-color="#F895E7"/>
</linearGradient>
<linearGradient id="paint10_linear" x1="270.465" y1="377.519" x2="300.958" y2="210.524" gradientUnits="userSpaceOnUse">
<stop stop-color="#2B3582"/>
<stop offset="1" stop-color="#150E42"/>
</linearGradient>
<linearGradient id="paint11_linear" x1="281.112" y1="149.514" x2="48.077" y2="287.946" gradientUnits="userSpaceOnUse">
<stop stop-color="#53D8FF"/>
<stop offset="1" stop-color="#3840F7"/>
</linearGradient>
<linearGradient id="paint12_linear" x1="287.41" y1="28.9472" x2="400.268" y2="57.3667" gradientUnits="userSpaceOnUse">
<stop stop-color="#B37CFF"/>
<stop offset="1" stop-color="#F895E7"/>
</linearGradient>
<linearGradient id="paint13_linear" x1="402.124" y1="18.1789" x2="474.517" y2="36.4088" gradientUnits="userSpaceOnUse">
<stop stop-color="#B37CFF"/>
<stop offset="1" stop-color="#F895E7"/>
</linearGradient>
<linearGradient id="paint14_linear" x1="421.919" y1="-434.562" x2="443.302" y2="-603.678" gradientUnits="userSpaceOnUse">
<stop stop-color="#50E7B7"/>
<stop offset="0.9964" stop-color="#323992"/>
</linearGradient>
<linearGradient id="paint15_linear" x1="274.843" y1="-482.978" x2="253.46" y2="-652.094" gradientUnits="userSpaceOnUse">
<stop stop-color="#50E7B7"/>
<stop offset="0.9964" stop-color="#323992"/>
</linearGradient>
<linearGradient id="paint16_linear" x1="547.163" y1="-407.507" x2="593.261" y2="-571.637" gradientUnits="userSpaceOnUse">
<stop stop-color="#50E7B7"/>
<stop offset="0.9964" stop-color="#323992"/>
</linearGradient>
<linearGradient id="paint17_linear" x1="327.126" y1="227.306" x2="474.784" y2="199.341" gradientUnits="userSpaceOnUse">
<stop stop-color="#9CFFFB"/>
<stop offset="1" stop-color="#9BFFFA"/>
</linearGradient>
<linearGradient id="paint18_linear" x1="341.06" y1="209.028" x2="356.87" y2="209.028" gradientUnits="userSpaceOnUse">
<stop stop-color="#2C759E"/>
<stop offset="1" stop-color="#051042"/>
</linearGradient>
<linearGradient id="paint19_linear" x1="347.085" y1="209.098" x2="367.679" y2="209.098" gradientUnits="userSpaceOnUse">
<stop stop-color="#2B3582"/>
<stop offset="1" stop-color="#150E42"/>
</linearGradient>
<linearGradient id="paint20_linear" x1="326.741" y1="188.023" x2="356.124" y2="188.023" gradientUnits="userSpaceOnUse">
<stop stop-color="#2B3582"/>
<stop offset="1" stop-color="#150E42"/>
</linearGradient>
<linearGradient id="paint21_linear" x1="377.726" y1="168.35" x2="308.423" y2="247.839" gradientUnits="userSpaceOnUse">
<stop stop-color="#2C759E"/>
<stop offset="1" stop-color="#051042"/>
</linearGradient>
<linearGradient id="paint22_linear" x1="362.788" y1="177.935" x2="322.959" y2="223.618" gradientUnits="userSpaceOnUse">
<stop stop-color="#50E7B7"/>
<stop offset="0.9964" stop-color="#323992"/>
</linearGradient>
<linearGradient id="paint23_linear" x1="356.191" y1="172.363" x2="329.95" y2="208.695" gradientUnits="userSpaceOnUse">
<stop stop-color="#50E7B7"/>
<stop offset="0.9964" stop-color="#323992"/>
</linearGradient>
<linearGradient id="paint24_linear" x1="358.174" y1="186.517" x2="360.597" y2="186.517" gradientUnits="userSpaceOnUse">
<stop stop-color="#E40045"/>
<stop offset="1" stop-color="#5C0E16"/>
</linearGradient>
<linearGradient id="paint25_linear" x1="367.37" y1="194.504" x2="376.595" y2="194.504" gradientUnits="userSpaceOnUse">
<stop stop-color="#2B3582"/>
<stop offset="1" stop-color="#150E42"/>
</linearGradient>
<linearGradient id="paint26_linear" x1="369.232" y1="185.37" x2="374.451" y2="185.37" gradientUnits="userSpaceOnUse">
<stop stop-color="#2B3582"/>
<stop offset="1" stop-color="#150E42"/>
</linearGradient>
<linearGradient id="paint27_linear" x1="300.869" y1="245.694" x2="582.336" y2="192.387" gradientUnits="userSpaceOnUse">
<stop stop-color="#2C759E"/>
<stop offset="1" stop-color="#051042"/>
</linearGradient>
<linearGradient id="paint28_linear" x1="307.211" y1="245.275" x2="575.502" y2="194.463" gradientUnits="userSpaceOnUse">
<stop stop-color="#2B3582"/>
<stop offset="1" stop-color="#150E42"/>
</linearGradient>
<linearGradient id="paint29_linear" x1="361.544" y1="212.689" x2="375.879" y2="212.689" gradientUnits="userSpaceOnUse">
<stop stop-color="#9CFFFB"/>
<stop offset="1" stop-color="#9BFFFA"/>
</linearGradient>
<linearGradient id="paint30_linear" x1="381.641" y1="219.329" x2="363.772" y2="251.955" gradientUnits="userSpaceOnUse">
<stop stop-color="#2B3582"/>
<stop offset="1" stop-color="#150E42"/>
</linearGradient>
<linearGradient id="paint31_linear" x1="254.76" y1="71.5929" x2="243.76" y2="147.39" gradientUnits="userSpaceOnUse">
<stop stop-color="#CB236D"/>
<stop offset="1" stop-color="#4C246D"/>
</linearGradient>
<linearGradient id="paint32_linear" x1="189.774" y1="317.306" x2="237.011" y2="354.456" gradientUnits="userSpaceOnUse">
<stop stop-color="#2B3582"/>
<stop offset="1" stop-color="#150E42"/>
</linearGradient>
<linearGradient id="paint33_linear" x1="194.005" y1="326.443" x2="235.841" y2="312.627" gradientUnits="userSpaceOnUse">
<stop stop-color="#2B3582"/>
<stop offset="1" stop-color="#150E42"/>
</linearGradient>
<linearGradient id="paint34_linear" x1="206.498" y1="307.158" x2="204.022" y2="328.797" gradientUnits="userSpaceOnUse">
<stop stop-color="#F9B776"/>
<stop offset="1" stop-color="#F47960"/>
</linearGradient>
<linearGradient id="paint35_linear" x1="243.829" y1="317.306" x2="196.592" y2="354.456" gradientUnits="userSpaceOnUse">
<stop stop-color="#2B3582"/>
<stop offset="1" stop-color="#150E42"/>
</linearGradient>
<linearGradient id="paint36_linear" x1="224.052" y1="324.936" x2="263.014" y2="312.069" gradientUnits="userSpaceOnUse">
<stop stop-color="#2B3582"/>
<stop offset="1" stop-color="#150E42"/>
</linearGradient>
<linearGradient id="paint37_linear" x1="226.726" y1="309.472" x2="224.25" y2="331.111" gradientUnits="userSpaceOnUse">
<stop stop-color="#F9B776"/>
<stop offset="1" stop-color="#F47960"/>
</linearGradient>
<linearGradient id="paint38_linear" x1="214.413" y1="246.158" x2="210.742" y2="348.354" gradientUnits="userSpaceOnUse">
<stop stop-color="#2C759E"/>
<stop offset="1" stop-color="#051042"/>
</linearGradient>
<linearGradient id="paint39_linear" x1="233.081" y1="175.726" x2="174.983" y2="257.517" gradientUnits="userSpaceOnUse">
<stop stop-color="#FDF53F"/>
<stop offset="1" stop-color="#D93C65"/>
</linearGradient>
<linearGradient id="paint40_linear" x1="250.056" y1="187.784" x2="191.959" y2="269.574" gradientUnits="userSpaceOnUse">
<stop stop-color="#FDF53F"/>
<stop offset="1" stop-color="#D93C65"/>
</linearGradient>
<linearGradient id="paint41_linear" x1="211.984" y1="168.584" x2="202.531" y2="209.5" gradientUnits="userSpaceOnUse">
<stop stop-color="#F9B776"/>
<stop offset="1" stop-color="#F47960"/>
</linearGradient>
<linearGradient id="paint42_linear" x1="216.754" y1="167.111" x2="195.056" y2="177.796" gradientUnits="userSpaceOnUse">
<stop stop-color="#F9B776"/>
<stop offset="1" stop-color="#F47960"/>
</linearGradient>
<linearGradient id="paint43_linear" x1="205.756" y1="153.079" x2="218.785" y2="179.141" gradientUnits="userSpaceOnUse">
<stop stop-color="#2B3582"/>
<stop offset="1" stop-color="#150E42"/>
</linearGradient>
<linearGradient id="paint44_linear" x1="215.024" y1="163.597" x2="193.325" y2="174.282" gradientUnits="userSpaceOnUse">
<stop stop-color="#F9B776"/>
<stop offset="1" stop-color="#F47960"/>
</linearGradient>
<linearGradient id="paint45_linear" x1="263.02" y1="181.974" x2="204.915" y2="238.025" gradientUnits="userSpaceOnUse">
<stop stop-color="#F9B776"/>
<stop offset="1" stop-color="#F47960"/>
</linearGradient>
<linearGradient id="paint46_linear" x1="219.096" y1="165.699" x2="161.172" y2="247.245" gradientUnits="userSpaceOnUse">
<stop stop-color="#FDF53F"/>
<stop offset="1" stop-color="#D93C65"/>
</linearGradient>
<linearGradient id="paint47_linear" x1="206.44" y1="222.8" x2="141.648" y2="299.711" gradientUnits="userSpaceOnUse">
<stop stop-color="#F9B776"/>
<stop offset="1" stop-color="#F47960"/>
</linearGradient>
<linearGradient id="paint48_linear" x1="361.978" y1="57.4239" x2="330.89" y2="42.5189" gradientUnits="userSpaceOnUse">
<stop stop-color="#53D8FF"/>
<stop offset="1" stop-color="#3840F7"/>
</linearGradient>
<linearGradient id="paint49_linear" x1="343.651" y1="55.359" x2="306.208" y2="25.5858" gradientUnits="userSpaceOnUse">
<stop stop-color="#53D8FF"/>
<stop offset="1" stop-color="#3840F7"/>
</linearGradient>
<linearGradient id="paint50_linear" x1="359.61" y1="57.7489" x2="330.569" y2="43.8256" gradientUnits="userSpaceOnUse">
<stop stop-color="#53D8FF"/>
<stop offset="1" stop-color="#3840F7"/>
</linearGradient>
<linearGradient id="paint51_linear" x1="344.202" y1="52.5344" x2="329.407" y2="52.2816" gradientUnits="userSpaceOnUse">
<stop stop-color="#53D8FF"/>
<stop offset="1" stop-color="#3840F7"/>
</linearGradient>
</defs>
</svg>
