<svg width="255" height="255" viewBox="0 0 255 255" fill="none" xmlns="http://www.w3.org/2000/svg">
<path opacity="0.3" d="M222.564 218.289C217.409 223.742 212.52 227.267 208.663 230.04C163.331 262.711 109.683 253.191 98.2766 250.86C81.4417 247.426 48.8961 240.789 25.3712 212.993C-10.227 170.949 -4.67939 104.706 22.9309 60.9822C27.985 52.9865 54.6631 8.5924 108.878 1.46878C141.689 -2.8366 179.947 5.84761 207.648 29.1646C265.803 78.1028 261.663 176.952 222.564 218.289Z" fill="url(#paint0_linear)"/>
<g opacity="0.7">
<path opacity="0.7" d="M89.2286 190.245C91.3215 191.512 70.9222 160.676 67.6229 114.722C66.0692 93.0662 68.3083 66.2975 57.0668 54.9328C47.7171 45.4774 12.9324 47.9468 1.53546 49.0484C0.109705 49.1861 -0.511778 50.9211 0.502702 51.9401C5.50199 56.9432 16.1038 68.6476 18.1876 79.7094C20.9294 94.2779 33.6332 104.495 45.478 107.974C57.3319 111.463 63.8391 114.419 68.0616 134.293C72.284 154.159 83.2788 186.656 89.2286 190.245Z" fill="url(#paint1_linear)"/>
<path opacity="0.5" d="M16.8075 56.4566C24.0185 57.4205 31.0102 59.8532 37.3073 63.5711C40.4604 65.4162 43.3942 67.6837 45.9898 70.2908C48.5671 72.9162 50.8245 75.8997 52.5245 79.177L53.1551 80.4071C53.3653 80.8202 53.5298 81.2516 53.7218 81.6739C53.9045 82.0962 54.0965 82.5276 54.261 82.9499L54.7545 84.2167C55.4217 85.9058 56.0797 87.595 56.7195 89.2932C58.0082 92.6806 59.2328 96.0956 60.4118 99.5289C62.7698 106.386 64.9176 113.317 66.6358 120.386C66.6815 120.56 66.5718 120.735 66.3982 120.78C66.2337 120.826 66.06 120.725 66.0052 120.56V120.551C64.9541 117.099 63.8391 113.657 62.6601 110.242C61.4994 106.818 60.293 103.412 59.0501 100.015L57.1765 94.9297L55.2389 89.8624C54.5991 88.1733 53.932 86.4934 53.2648 84.8134L52.7621 83.5558C52.5976 83.1335 52.4148 82.7388 52.232 82.3349C52.0492 81.9309 51.8939 81.5178 51.6928 81.1231L51.0896 79.9389C49.481 76.781 47.3241 73.9352 44.8839 71.3648C43.6409 70.1072 42.3431 68.8862 40.9448 67.7938L40.4238 67.3716L39.8938 66.9768C39.5373 66.7106 39.19 66.4352 38.8244 66.1782C38.0933 65.6733 37.3621 65.1592 36.6036 64.7002C33.5967 62.7908 30.3522 61.2394 27.0254 59.945C23.6986 58.6506 20.2256 57.6317 16.7161 56.9891H16.6978C16.5516 56.9615 16.4602 56.8238 16.4876 56.6861C16.5424 56.5392 16.6704 56.4383 16.8075 56.4566Z" fill="white"/>
</g>
<g opacity="0.99">
<path opacity="0.99" d="M93.1127 144.382C93.1127 144.382 94.2917 113.354 80.1804 104.844C66.0691 96.3341 39.0802 90.7527 38.6964 46.1658C38.477 20.0673 37.9926 8.64748 37.6362 3.66278C37.4991 1.71663 39.2356 0.174405 41.1366 0.569142C54.5808 3.31394 98.2217 14.44 106.977 44.5961C117.351 80.3427 93.1127 144.382 93.1127 144.382Z" fill="url(#paint2_linear)"/>
<path opacity="0.5" d="M51.3179 13.1823C52.3507 14.137 53.3377 15.1193 54.3065 16.1107C54.8001 16.6064 55.2753 17.1113 55.7506 17.6254C56.2258 18.1303 56.7102 18.6352 57.1763 19.1585C58.1085 20.1866 59.0499 21.2148 59.9547 22.2796L61.3256 23.8586L62.66 25.4651L63.9852 27.0807L65.2739 28.7239L66.5625 30.3671C66.9921 30.9179 67.4034 31.4779 67.8238 32.0379L69.0759 33.7178L69.6974 34.5532L70.3006 35.4069L72.7134 38.831C74.258 41.1535 75.8299 43.4669 77.2648 45.8537L78.3707 47.6346L78.9191 48.525L79.44 49.4338L81.533 53.0599L82.0539 53.9687L82.5474 54.8959L83.5254 56.7502L84.5033 58.6046L84.9968 59.5318L85.4538 60.4773C86.6602 63.0018 87.9397 65.4712 89.0273 68.0874C89.3198 68.73 89.5665 69.391 89.8316 70.0428C90.0875 70.6945 90.3525 71.3463 90.6084 72.0073L91.3213 73.9901L91.6777 74.9816L91.9976 75.9822L92.6465 77.9926L93.2315 80.0213C93.6427 81.3708 93.9443 82.7386 94.3008 84.0972C95.5894 89.5685 96.5217 95.1223 97.0152 100.713C97.5453 106.294 97.6732 111.912 97.4813 117.512C97.3716 120.312 97.1706 123.103 96.8872 125.893C96.6039 128.684 96.2292 131.438 95.6717 134.229C95.5803 134.688 95.1416 134.982 94.6846 134.89C94.2459 134.798 93.9535 134.385 94.0174 133.944L94.0266 133.907C94.8126 128.501 95.1782 122.956 95.233 117.457C95.297 111.949 95.0502 106.441 94.4744 100.97C93.8986 95.4987 92.9664 90.0734 91.6777 84.7398C90.3342 79.4246 88.7074 74.1737 86.5505 69.1431C82.1819 59.0636 76.8079 49.3604 70.8489 40.0887L68.5549 36.6462L67.9791 35.7833L67.3851 34.9387L66.197 33.2405C65.804 32.6805 65.411 32.1021 65.0088 31.5514L63.7933 29.8531L62.5686 28.1823L61.3073 26.5391C57.9714 22.1419 54.4345 17.8733 50.669 13.8616L50.6599 13.8525C50.4771 13.6597 50.4862 13.3567 50.6782 13.1823C50.861 13.0079 51.1443 13.0079 51.3179 13.1823Z" fill="white"/>
</g>
<path d="M13.1974 235.327C13.1974 237.622 15.071 239.504 17.3558 239.504H242.461C244.755 239.504 246.619 237.622 246.619 235.327L248.493 105.395C248.493 103.1 245.797 98.6108 240.861 98.9504L20.8654 93.2313C17.9956 93.1579 15.2172 94.2687 13.1791 96.3066C11.141 98.3445 10.0351 101.126 10.0991 104.009L13.1974 235.327Z" fill="url(#paint3_linear)"/>
<path d="M17.3101 231.325C17.3101 233.501 19.0832 235.281 21.2492 235.281H237.041C239.207 235.281 240.98 233.501 240.98 231.325L242.744 113.372C242.534 106.276 236.337 103.724 232.581 103.871L21.7336 98.1884C19.7138 98.1333 17.7671 98.9136 16.3322 100.346C14.9065 101.778 14.1205 103.733 14.1662 105.762L17.3101 231.325Z" fill="url(#paint4_linear)"/>
<path d="M238.64 175.281C238.64 175.281 238.631 175.281 238.64 175.281C238.311 175.272 238.055 175.015 238.065 174.694L238.202 165.128C238.211 164.807 238.467 164.559 238.777 164.559H238.787C239.106 164.569 239.362 164.826 239.353 165.147L239.216 174.712C239.216 175.034 238.951 175.281 238.64 175.281Z" fill="white"/>
<path d="M238.978 151.845C238.649 151.836 238.394 151.579 238.403 151.258L238.942 114.621C238.933 112.445 238.275 110.71 236.986 109.471C234.582 107.157 230.771 107.277 230.607 107.286L163.212 105.468C162.893 105.459 162.646 105.193 162.655 104.871C162.664 104.55 162.911 104.275 163.249 104.312L230.598 106.129C231.018 106.102 235.076 106.037 237.781 108.635C239.298 110.104 240.084 112.114 240.093 114.63L239.554 151.276C239.554 151.588 239.298 151.845 238.978 151.845Z" fill="white"/>
<path d="M0.840834 249.097H254.488C254.772 249.097 255.009 248.868 255.009 248.574V239.385C255.009 239.1 254.781 238.862 254.488 238.862H0.840834C0.557511 238.862 0.319885 239.091 0.319885 239.385V248.574C0.319885 248.868 0.557511 249.097 0.840834 249.097Z" fill="url(#paint5_linear)"/>
<path d="M202.924 177.494C202.969 197.8 197.339 213.525 185.915 224.697C174.491 235.86 158.067 241.469 136.516 241.515C115.459 241.561 99.2638 236.181 87.9308 225.386C76.607 214.59 70.9131 199.039 70.8674 178.733L70.7303 113.969H112.717L112.845 175.355C112.872 186.325 114.911 194.275 119.005 199.214C123.099 204.162 129.104 206.622 137.065 206.603C145.583 206.585 151.752 204.116 155.581 199.186C159.411 194.266 161.293 186.215 161.266 175.034L161.138 113.969H202.787L202.924 177.494Z" fill="url(#paint6_linear)"/>
<path d="M202.933 176.824C202.978 196.239 197.339 211.34 185.924 222.026C174.5 232.711 158.076 238.1 136.525 238.146C115.468 238.192 99.2729 233.06 87.9492 222.733C76.6254 212.405 70.9315 197.442 70.8949 178.017L70.7578 113.969H112.745L112.872 174.786C112.891 185.279 114.929 192.935 119.023 197.653C123.118 202.381 129.122 204.758 137.083 204.74C145.601 204.722 151.77 202.372 155.599 197.653C159.429 192.944 161.312 185.15 161.284 174.465L161.156 113.96H202.805L202.933 176.824Z" fill="url(#paint7_linear)"/>
<path d="M111.456 84.2993L71.9092 84.3819C71.2329 84.3819 70.6754 84.8685 70.6754 85.5478L70.7394 115.328L112.726 115.236L112.662 85.456C112.662 84.7767 112.132 84.2993 111.456 84.2993Z" fill="white"/>
<path d="M201.58 84.1066L162.271 84.1892C161.595 84.1892 161.083 84.6757 161.083 85.355L161.147 115.135L202.795 115.043L202.731 85.2632C202.731 84.5839 202.256 84.1066 201.58 84.1066Z" fill="white"/>
<path d="M76.6343 181.313C76.3144 181.313 75.958 181.047 75.958 180.725L75.83 121.083C75.83 120.762 76.1773 120.496 76.5063 120.496C76.8262 120.496 77.1827 120.762 77.1827 121.083L77.3106 180.725C77.3106 181.047 76.9633 181.304 76.6343 181.313Z" fill="white"/>
<path d="M175.651 225.67C175.423 225.67 175.203 225.532 175.112 225.312C174.984 225.009 175.13 224.67 175.423 224.541C188.876 218.895 194.405 203.73 196.681 192.007C199.158 179.229 198.418 167.653 198.408 167.534C198.39 167.212 198.628 166.928 198.957 166.909C199.277 166.891 199.56 167.13 199.578 167.46C199.587 167.58 200.346 179.302 197.833 192.237C196.352 199.856 194.049 206.402 190.978 211.698C187.121 218.363 182.03 223.045 175.87 225.633C175.806 225.652 175.724 225.67 175.651 225.67Z" fill="white"/>
<path d="M93.8073 45.4131L85.4265 62.0012H91.7967L89.6215 74.3115L102.654 57.8152L94.0358 57.1267L93.8073 45.4131Z" fill="white"/>
<path d="M117.277 55.0796L105.899 64.8654L110.697 66.8391L105.223 75.5233L120.083 67.1971L113.832 63.9841L117.277 55.0796Z" fill="white"/>
<path d="M63.3364 56.5209L66.2244 71.2822L70.3006 68.06L75.1354 77.1023L75.2268 60.0184L69.3593 63.9107L63.3364 56.5209Z" fill="white"/>
<path d="M184.014 44.4951L175.624 61.0832H182.003L179.819 73.3935L192.852 56.888L184.242 56.1995L184.014 44.4951Z" fill="white"/>
<path d="M207.475 54.1616L196.096 63.9382L200.894 65.9211L195.429 74.5961L210.29 66.2791L204.029 63.057L207.475 54.1616Z" fill="white"/>
<path d="M153.543 55.6029L156.431 70.3642L160.507 67.1329L165.342 76.1843L165.433 59.0913L159.566 62.9836L153.543 55.6029Z" fill="white"/>
<path d="M75.1628 51.9125C84.5261 51.9125 92.1165 44.2885 92.1165 34.8837C92.1165 25.479 84.5261 17.855 75.1628 17.855C65.7995 17.855 58.2091 25.479 58.2091 34.8837C58.2091 44.2885 65.7995 51.9125 75.1628 51.9125Z" fill="url(#paint8_linear)"/>
<path d="M70.9495 29.2473C70.9495 28.8066 70.5931 28.4486 70.1544 28.4486H67.3851C66.9464 28.4486 66.59 28.8066 66.59 29.2473V41.9339C66.59 42.3746 66.9464 42.7326 67.3851 42.7326H70.1544C70.5931 42.7326 70.9495 42.3746 70.9495 41.9339V29.2473Z" fill="white"/>
<path d="M80.7653 28.4578H77.9046V25.0429C77.9046 23.9413 77.3288 23.2161 76.2321 23.2161H76.159C75.0623 23.2161 74.1757 24.0239 74.1757 25.1255L73.2252 28.5221C72.7865 28.5221 72.1011 28.8342 72.1011 29.2748V42.3103C72.1011 42.751 73.1155 43.3201 73.5542 43.3201H74.1666H80.7561C82.4012 43.3201 83.699 41.7687 83.699 40.1255V31.4688C83.7082 29.8164 82.4104 28.4578 80.7653 28.4578Z" fill="white"/>
<path d="M211.195 55.8414C221.128 55.8414 229.181 47.7529 229.181 37.7753C229.181 27.7977 221.128 19.7092 211.195 19.7092C201.261 19.7092 193.208 27.7977 193.208 37.7753C193.208 47.7529 201.261 55.8414 211.195 55.8414Z" fill="url(#paint9_linear)"/>
<path d="M218.908 32.7447C216.953 30.817 213.909 31.3953 211.816 33.167C211.515 33.4241 211.076 33.4241 210.774 33.1762C208.654 31.4504 205.61 30.9179 203.691 32.8824C201.607 35.0122 201.635 38.4363 203.755 40.5201L210.847 47.5244C211.167 47.8457 211.688 47.8365 212.008 47.5152L218.981 40.3916C221.065 38.2527 221.029 34.8378 218.908 32.7447Z" fill="white"/>
<path d="M166.713 39.9234C177.282 39.9234 185.851 31.3171 185.851 20.7007C185.851 10.0842 177.282 1.47791 166.713 1.47791C156.143 1.47791 147.575 10.0842 147.575 20.7007C147.575 31.3171 156.143 39.9234 166.713 39.9234Z" fill="url(#paint10_linear)"/>
<path d="M166.612 10.2356L163.706 15.6058L157.848 16.3127C157.007 16.4137 156.605 17.4693 157.171 18.1119L161.129 22.5367L159.776 28.623C159.575 29.5134 160.443 30.257 161.238 29.8714L166.749 27.2184L172.096 30.4773C172.891 30.9638 173.869 30.3029 173.75 29.3665L172.928 23.0232L177.561 18.7821C178.238 18.1578 177.909 17.0379 177.013 16.8818L170.926 15.817L168.486 10.2815C168.148 9.47363 167.033 9.45527 166.612 10.2356Z" fill="white"/>
<path d="M117.332 38.9963C128.053 38.9963 136.745 30.2667 136.745 19.4982C136.745 8.72962 128.053 0 117.332 0C106.611 0 97.9202 8.72962 97.9202 19.4982C97.9202 30.2667 106.611 38.9963 117.332 38.9963Z" fill="url(#paint11_linear)"/>
<path d="M122.807 13.1364C122.807 16.1566 120.376 19.4155 117.369 19.4155C114.362 19.4155 111.931 16.1566 111.931 13.1364C111.931 10.1162 114.362 7.97729 117.369 7.97729C120.367 7.97729 122.807 10.1162 122.807 13.1364Z" fill="white"/>
<path d="M110.615 31.0281H123.894C125.293 31.0281 126.527 30.1193 126.956 28.779L127.669 26.5391C128.19 24.8959 127.34 23.115 125.731 22.5275C120.33 20.5446 114.737 20.8017 109.015 22.7111C107.416 23.2435 106.52 24.9694 106.968 26.6126L107.517 28.6505C107.891 30.055 109.162 31.0281 110.615 31.0281Z" fill="white"/>
<path d="M46.4742 144.208C46.4742 144.208 58.3372 158.712 62.6967 155.223C67.0562 151.726 55.2846 132.668 55.2846 132.668L46.4742 144.208Z" fill="url(#paint12_linear)"/>
<path d="M46.9586 238.403C46.9586 238.329 46.9586 238.256 46.9403 238.192C45.871 233.923 40.5518 231.27 40.5518 231.27L38.4497 231.435C37.2342 235.19 37.3987 237.503 37.5906 238.522C37.5998 238.55 37.6089 238.577 37.6089 238.605C39.3454 238.761 42.9189 238.862 46.9586 238.403Z" fill="url(#paint13_linear)"/>
<path d="M37.5998 228.277L38.4954 232.592C38.5594 232.904 38.8062 233.143 39.0986 233.17C39.4551 233.207 39.9669 233.225 40.4787 233.152C40.9357 233.088 41.2556 232.61 41.1733 232.114L40.5518 228.286H37.5998V228.277Z" fill="url(#paint14_linear)"/>
<path d="M65.6213 238.219C65.603 238.182 65.5939 238.155 65.5665 238.118C64.4423 236.539 61.5634 233.381 55.8878 232.014L53.1643 231.931C53.1643 231.931 51.9487 234.051 51.9305 237.971C52.5519 238.228 53.7583 238.504 56.0797 238.568C59.6807 238.669 63.9488 238.357 65.6213 238.219Z" fill="url(#paint15_linear)"/>
<path d="M52.6616 227.782C52.689 227.984 53.0638 231.086 53.21 232.289C53.2465 232.574 53.4476 232.794 53.7127 232.831C54.1788 232.886 54.9282 232.941 55.5862 232.803C55.9427 232.73 56.1986 232.39 56.1986 231.995V227.13L52.6616 227.782Z" fill="url(#paint16_linear)"/>
<path d="M50.4773 171.224C50.4773 171.224 57.0485 196.304 56.9297 227.855C56.9297 228.433 56.5276 228.929 55.9609 229.048C55.1384 229.223 53.9228 229.434 52.9175 229.407C52.3783 229.388 51.9304 228.993 51.839 228.461C50.916 223.036 45.6333 192.466 42.6173 187.509C42.6173 187.509 40.6341 214.728 41.2647 228.856C41.283 229.205 41.0271 229.507 40.6798 229.553C40.1497 229.618 39.3088 229.664 38.2395 229.544C37.8283 229.498 37.4992 229.195 37.4444 228.782C36.7864 224.192 33.0118 196.854 33.1763 177.173C33.1854 176.062 36.1009 171.233 36.1009 171.233H50.4773V171.224Z" fill="url(#paint17_linear)"/>
<path d="M55.0013 132.788C45.9624 131.475 36.0278 132.677 31.2113 133.293C29.6484 133.495 28.2227 134.266 27.1991 135.459C23.1229 140.196 14.1753 153.176 24.704 166.258C26.0475 165.505 27.9668 164.302 29.2646 162.907C28.0947 159.611 28.0033 155.389 30.4436 150.22C30.5258 150.633 30.6264 151.037 30.7543 151.432C34.1176 162.145 34.3004 171.059 34.2913 173.115C34.2913 173.39 34.4558 173.647 34.7117 173.748C39.1443 175.529 47.6714 174.474 50.5321 174.042C51.053 173.96 51.4095 173.473 51.3364 172.941C50.331 165.615 53.7492 154.893 56.4636 147.861C57.5512 145.08 55.5679 133.568 55.0013 132.788Z" fill="url(#paint18_linear)"/>
<path d="M40.5975 122.139L39.3454 132.503C39.2906 132.971 39.5739 133.421 40.0309 133.55C41.3835 133.944 44.2899 134.55 46.9403 133.458C47.443 133.247 47.7172 132.705 47.6075 132.173L46.0264 124.875L40.5975 122.139Z" fill="url(#paint19_linear)"/>
<path d="M30.0049 149.413C28.2227 144.501 28.8716 138.58 28.8716 138.516L29.3651 138.571C29.356 138.626 28.7253 144.446 30.471 149.238L30.0049 149.413Z" fill="url(#paint20_linear)"/>
<path d="M42.3797 186.857C42.27 186.857 42.1695 186.784 42.1421 186.674C41.5937 184.562 37.5175 182.24 37.4809 182.222C37.3621 182.157 37.3164 182.001 37.3896 181.882C37.4535 181.763 37.6089 181.717 37.7277 181.79C37.9014 181.891 42.0324 184.241 42.6265 186.555C42.663 186.683 42.5808 186.821 42.4528 186.857C42.4254 186.857 42.4071 186.857 42.3797 186.857Z" fill="url(#paint21_linear)"/>
<path d="M29.2646 162.907C27.9668 164.302 26.0475 165.505 24.704 166.258C26.7147 168.755 29.4382 171.261 33.0483 173.712L33.487 174.694C33.8617 175.539 34.6751 176.099 35.5982 176.135C40.6341 176.374 42.0324 175.3 37.3896 172.05C37.3804 172.05 31.4489 169.085 29.2646 162.907Z" fill="url(#paint22_linear)"/>
<path d="M66.3159 140.94C66.3159 140.94 59.9548 147.577 58.4834 149.991C57.0119 152.396 58.6479 156.784 61.9838 155.765C65.3197 154.746 69.204 143.225 69.204 143.225L66.3159 140.94Z" fill="url(#paint23_linear)"/>
<path d="M55.6776 131.502C55.6776 131.502 61.2618 146.31 63.0349 149.385C65.0821 152.956 71.0685 150.679 70.776 147.687C70.4744 144.694 63.4827 132.329 63.4827 132.329L55.6776 131.502Z" fill="url(#paint24_linear)"/>
<path d="M63.2268 120.725L97.9568 108.626L97.5912 141.362L62.2763 133.449L63.2268 120.725Z" fill="url(#paint25_linear)"/>
<path d="M97.9933 141.913C99.876 141.913 101.402 134.379 101.402 125.086C101.402 115.793 99.876 108.259 97.9933 108.259C96.1105 108.259 94.5843 115.793 94.5843 125.086C94.5843 134.379 96.1105 141.913 97.9933 141.913Z" fill="url(#paint26_linear)"/>
<path d="M98.2492 140.756C97.9384 140.444 97.2712 139.223 96.6954 136.083C96.1379 133.045 95.8363 129.106 95.8363 124.994C95.8363 120.881 96.1471 116.934 96.6954 113.905C97.2712 110.765 97.9476 109.544 98.2492 109.232C98.5599 109.544 99.2271 110.765 99.8029 113.905C100.36 116.943 100.662 120.881 100.662 124.994C100.662 129.106 100.351 133.054 99.8029 136.083C99.2362 139.232 98.5599 140.444 98.2492 140.756Z" fill="url(#paint27_linear)"/>
<path d="M102.627 124.865C102.627 127.72 101.092 130.043 98.0573 130.043C95.023 130.043 92.5645 127.73 92.5645 124.865C92.5645 122.001 95.023 119.688 98.0573 119.688C101.092 119.697 102.627 122.01 102.627 124.865Z" fill="url(#paint28_linear)"/>
<path d="M57.6243 120.018C59.2603 119.826 61.6 119.761 64.1316 120.34C63.2999 124.719 63.4187 129.281 64.3875 134.009H57.2405C56.098 134.009 55.1293 133.173 54.9556 132.044C54.5992 129.777 54.1605 125.967 54.6266 122.91C54.8642 121.386 56.0889 120.202 57.6243 120.018Z" fill="url(#paint29_linear)"/>
<path d="M61.9107 123.452H56.3448C56.1254 123.452 55.9335 123.332 55.8238 123.14C55.7141 122.947 55.7324 122.717 55.8512 122.534C55.9152 122.433 56.0614 122.396 56.162 122.469C56.2625 122.534 56.2991 122.681 56.2259 122.782C56.1894 122.846 56.2077 122.901 56.2168 122.919C56.2259 122.938 56.2625 122.993 56.3356 122.993H61.9016C61.9747 122.993 62.0387 122.928 62.0387 122.855V122.46C62.0387 122.387 61.9747 122.323 61.9016 122.323H56.2991C56.1711 122.323 56.0706 122.222 56.0706 122.093C56.0706 121.965 56.1711 121.864 56.2991 121.864H61.9107C62.2397 121.864 62.5048 122.13 62.5048 122.46V122.855C62.5048 123.185 62.2397 123.452 61.9107 123.452Z" fill="white"/>
<path d="M61.4172 125.93H55.8512C55.6319 125.93 55.44 125.811 55.3303 125.618C55.2297 125.425 55.2389 125.196 55.3486 125.012C55.4125 124.902 55.5588 124.875 55.6593 124.948C55.7598 125.012 55.7964 125.159 55.7233 125.26C55.6867 125.324 55.705 125.38 55.7141 125.398C55.7233 125.416 55.7598 125.471 55.8329 125.471H61.4172C61.4903 125.471 61.5542 125.407 61.5542 125.334V124.939C61.5542 124.865 61.4903 124.801 61.4172 124.801H55.8055C55.6776 124.801 55.577 124.7 55.577 124.572C55.577 124.443 55.6776 124.342 55.8055 124.342H61.4172C61.7462 124.342 62.0112 124.608 62.0112 124.939V125.334C62.0021 125.664 61.737 125.93 61.4172 125.93Z" fill="white"/>
<path d="M68.2718 119.917C68.1804 119.917 68.089 119.853 68.0525 119.761C68.0159 119.642 68.0799 119.514 68.1987 119.477L94.502 111.068C94.6208 111.031 94.7488 111.096 94.7853 111.215C94.8219 111.334 94.7579 111.463 94.6391 111.499L68.3358 119.908C68.3175 119.917 68.2992 119.917 68.2718 119.917Z" fill="white"/>
<path d="M64.7166 121.377C64.6252 121.377 64.5429 121.322 64.5064 121.239C64.4607 121.12 64.5155 120.991 64.6343 120.946L65.9869 120.386C66.1058 120.34 66.2337 120.395 66.2794 120.514C66.3251 120.633 66.2703 120.762 66.1515 120.808L64.7988 121.368C64.7714 121.377 64.744 121.377 64.7166 121.377Z" fill="white"/>
<path d="M61.9107 128.831H56.3448C56.1254 128.831 55.9335 128.712 55.8238 128.519C55.7233 128.326 55.7324 128.097 55.8421 127.913C55.9061 127.803 56.0523 127.775 56.1529 127.849C56.2534 127.913 56.2899 128.06 56.2168 128.161C56.1803 128.225 56.1986 128.28 56.2077 128.299C56.2168 128.317 56.2534 128.372 56.3265 128.372H61.8924C61.9655 128.372 62.0295 128.308 62.0295 128.234V127.84C62.0295 127.766 61.9655 127.702 61.8924 127.702H56.2991C56.1711 127.702 56.0706 127.601 56.0706 127.473C56.0706 127.344 56.1711 127.243 56.2991 127.243H61.9107C62.2397 127.243 62.5048 127.509 62.5048 127.84V128.234C62.5048 128.565 62.2397 128.831 61.9107 128.831Z" fill="white"/>
<path d="M62.4317 132.053H56.8658C56.6464 132.053 56.4545 131.934 56.3448 131.741C56.2443 131.548 56.2534 131.319 56.3631 131.135C56.4271 131.025 56.5733 130.998 56.6738 131.071C56.7744 131.135 56.8109 131.282 56.7378 131.383C56.7012 131.447 56.7195 131.503 56.7287 131.521C56.7378 131.539 56.7744 131.594 56.8475 131.594H62.4134C62.4865 131.594 62.5505 131.53 62.5505 131.457V131.062C62.5505 130.988 62.4865 130.924 62.4134 130.924H56.8018C56.6738 130.924 56.5733 130.823 56.5733 130.695C56.5733 130.566 56.6738 130.465 56.8018 130.465H62.4134C62.7424 130.465 63.0075 130.731 63.0075 131.062V131.457C63.0257 131.787 62.7607 132.053 62.4317 132.053Z" fill="white"/>
<path d="M67.4036 149.559C67.1385 149.559 66.8735 149.532 66.6084 149.477C65.4477 149.22 64.5064 148.458 64.022 147.375L59.5711 137.451C59.5162 137.341 59.5711 137.203 59.6807 137.148C59.7904 137.093 59.9275 137.148 59.9823 137.258L64.4333 147.182C64.8628 148.137 65.6854 148.807 66.6998 149.027C67.696 149.247 68.7105 148.99 69.4691 148.311C69.5148 148.274 69.5513 148.238 69.597 148.201C69.6884 148.118 69.8347 148.118 69.9169 148.219C69.9992 148.311 69.9992 148.458 69.8986 148.54C69.8529 148.577 69.8072 148.623 69.7615 148.66C69.1126 149.247 68.2718 149.559 67.4036 149.559Z" fill="white"/>
<path d="M59.1323 136.111C59.0501 136.111 58.9678 136.065 58.9221 135.973L58.4286 134.862C58.3738 134.752 58.4286 134.615 58.5383 134.559C58.648 134.504 58.7851 134.559 58.8399 134.67L59.3334 135.78C59.3883 135.891 59.3334 136.028 59.2237 136.083C59.1872 136.102 59.1598 136.111 59.1323 136.111Z" fill="white"/>
<path d="M101.814 124.801C101.695 124.801 101.594 124.709 101.585 124.59C101.485 123.213 101.018 122.194 100.187 121.552C98.7427 120.441 96.6681 120.817 96.6407 120.826C96.5218 120.854 96.403 120.771 96.3756 120.643C96.3482 120.523 96.4304 120.404 96.5584 120.376C96.6498 120.358 98.8524 119.954 100.461 121.193C101.402 121.919 101.932 123.057 102.042 124.563C102.051 124.691 101.96 124.792 101.832 124.801C101.823 124.801 101.814 124.801 101.814 124.801Z" fill="white"/>
<path d="M63.9123 137.121C63.9123 137.121 65.7219 135.579 67.1385 137.121C68.5551 138.663 68.8384 141.362 68.5459 141.49C68.2626 141.628 59.5071 139.443 63.9123 137.121Z" fill="url(#paint30_linear)"/>
<path d="M47.3424 114.299C47.3424 114.299 49.4171 119.468 49.4902 122.157C49.5633 124.838 50.0934 126.6 46.986 127.05C43.8877 127.5 41.3287 125.884 39.9943 123.176C39.9943 123.176 37.9014 118.999 38.4406 117.329C38.9798 115.649 47.3424 114.299 47.3424 114.299Z" fill="url(#paint31_linear)"/>
<path d="M41.1002 121.285L41.2738 121.212C41.5023 121.12 41.6029 120.854 41.4932 120.633C41.0819 119.78 40.2868 117.815 41.3927 117.393C42.8184 116.851 48.4483 115.86 49.7096 113.905C50.9251 112.023 49.9655 109.517 48.4392 108.773C48.3386 108.727 48.2107 108.755 48.1559 108.856L48.0188 109.094C47.9274 109.26 47.6806 109.223 47.6349 109.039C47.5892 108.865 47.3607 108.819 47.2602 108.975C46.8763 109.562 45.8436 110.499 43.1474 110.921C39.318 111.518 36.7589 112.996 36.6219 115.64C36.6127 115.805 36.4299 115.897 36.2928 115.805C36.0186 115.621 35.5708 115.529 34.9493 116.025C33.88 116.879 34.2456 119.183 36.4848 121.129C36.5944 121.221 36.5853 121.395 36.4665 121.469C36.0461 121.726 35.4063 122.359 36.9874 123.268C38.6234 124.204 39.8664 124.168 40.3416 124.103C40.4604 124.085 40.5427 123.975 40.5153 123.856L40.0674 121.515C40.04 121.386 40.1497 121.258 40.2776 121.267L41.1002 121.285Z" fill="url(#paint32_linear)"/>
<path d="M41.1824 121.772C41.1824 121.772 40.433 118.485 38.9433 119.357C37.4627 120.23 39.6013 123.039 40.762 123.186L41.1824 121.772Z" fill="url(#paint33_linear)"/>
<path d="M203.234 142.546C203.234 142.546 203.709 163.182 225.306 166.799L229.181 162.953C229.181 162.953 210.482 156.564 205.61 143.216L206.652 136.138L205.921 131.457L203.234 142.546Z" fill="url(#paint34_linear)"/>
<path d="M174.746 97.8397L233.723 94.7827C234.884 94.7185 235.853 95.4253 235.889 96.3433L237.224 132.218C237.26 133.146 236.328 133.926 235.167 133.944C224.493 134.174 177.086 135.174 174.993 135.34C172.928 135.505 172.772 106.643 172.772 99.5196C172.763 98.6383 173.641 97.8947 174.746 97.8397Z" fill="url(#paint35_linear)"/>
<path d="M175.935 134.036L175.898 133.889C175.011 130.612 174.427 117.108 174.408 99.4921C174.408 99.2901 174.591 99.1157 174.82 99.1065L233.797 96.0496C233.943 96.0404 234.034 96.0955 234.098 96.1322C234.19 96.2056 234.254 96.2975 234.254 96.4168L235.588 132.292C235.597 132.503 235.414 132.687 235.177 132.696H235.167C226.677 132.879 183.904 133.779 176.099 134.045L175.935 134.036ZM233.824 96.4352C233.815 96.4352 233.815 96.4352 233.824 96.4352L174.838 99.4921C174.81 99.4921 174.792 99.5012 174.792 99.5104C174.81 116.815 175.377 130.135 176.236 133.632C184.434 133.366 226.704 132.466 235.149 132.292H235.158L233.861 96.426C233.861 96.4352 233.842 96.4352 233.824 96.4352Z" fill="white"/>
<path d="M213.297 101.989C213.333 102.898 213.671 103.614 214.037 103.605L230.433 102.87C230.808 102.852 231.073 102.108 231.027 101.199C230.991 100.291 230.653 99.5746 230.287 99.5838L213.891 100.318C213.525 100.337 213.26 101.08 213.297 101.989Z" fill="white"/>
<path d="M213.37 106.46C213.388 106.909 213.708 107.268 214.073 107.249L230.47 106.515C230.844 106.496 231.128 106.12 231.1 105.661C231.082 105.211 230.762 104.853 230.397 104.872L214 105.606C213.635 105.624 213.351 106.001 213.37 106.46Z" fill="white"/>
<path d="M213.37 109.875C213.388 110.324 213.708 110.682 214.073 110.664L230.47 109.93C230.844 109.911 231.128 109.535 231.1 109.076C231.073 108.617 230.762 108.268 230.397 108.286L214 109.021C213.635 109.039 213.351 109.425 213.37 109.875Z" fill="white"/>
<path d="M190.914 129.777C190.549 129.777 190.32 129.777 190.256 129.777C189.863 129.777 189.525 129.474 189.479 129.079L188.053 116.723C188.026 116.512 188.09 116.3 188.218 116.135C188.346 115.97 188.538 115.869 188.748 115.841C188.757 115.841 189.927 115.704 190.896 115.061C191.216 114.85 191.59 113.849 191.929 112.977C192.44 111.619 193.071 109.939 194.241 108.599C196.124 106.432 195.813 103.173 195.776 102.815C195.685 102.017 196.297 100.842 197.257 100.465C197.842 100.236 199.021 100.116 200.3 101.897C201.9 104.119 201.205 107.121 200.739 109.103C200.593 109.718 200.456 110.297 200.437 110.664C200.437 110.71 200.437 110.728 200.437 110.728C200.757 110.967 202.631 110.682 203.746 110.508C204.331 110.416 204.925 110.324 205.501 110.26C207.53 110.021 209.924 110.113 210.372 112.922C210.555 114.079 210.061 114.951 209.568 115.502C210.463 116.273 210.93 117.117 210.948 118.017C210.966 118.834 210.61 119.504 210.244 119.972C211.03 120.707 211.359 121.707 211.149 122.772C211.003 123.516 210.6 124.186 210.07 124.663C210.473 125.122 210.527 125.618 210.518 125.884C210.482 127.252 208.837 128.62 206.607 129.134C203.901 129.74 193.647 129.777 190.914 129.777ZM189.689 117.264L190.951 128.207C193.702 128.207 203.746 128.161 206.241 127.583C208.014 127.169 208.928 126.233 208.937 125.82C208.937 125.664 208.645 125.471 208.206 125.343C207.84 125.242 207.603 124.884 207.639 124.507C207.676 124.131 207.977 123.828 208.352 123.8C208.891 123.755 209.467 123.13 209.595 122.451C209.696 121.955 209.613 121.267 208.654 120.762C208.416 120.633 208.252 120.395 208.233 120.119C208.215 119.844 208.334 119.587 208.562 119.422C208.562 119.422 209.385 118.788 209.367 118.035C209.348 117.301 208.544 116.631 207.868 116.2C207.639 116.053 207.502 115.796 207.511 115.52C207.52 115.245 207.667 114.997 207.904 114.859C207.941 114.832 208.974 114.207 208.809 113.161C208.681 112.371 208.544 111.481 205.674 111.821C205.117 111.885 204.541 111.977 203.974 112.059C201.881 112.381 200.218 112.647 199.35 111.857C199.103 111.637 198.82 111.242 198.856 110.591C198.884 110.086 199.03 109.471 199.194 108.755C199.615 106.946 200.191 104.477 199.012 102.834C198.555 102.2 198.098 101.851 197.833 101.943C197.549 102.035 197.321 102.503 197.321 102.668C197.367 103.091 197.741 106.983 195.411 109.654C194.433 110.774 193.875 112.252 193.391 113.547C192.897 114.859 192.504 115.897 191.764 116.392C191.033 116.851 190.247 117.117 189.689 117.264Z" fill="white"/>
<path d="M224.118 213.241C224.118 213.241 234.363 235.676 239.746 244.966C239.746 244.966 240.816 250.814 239.746 252.65L238.832 253.054L243.082 252.925C243.082 252.925 243.457 245.058 243.164 244.618C242.872 244.177 242.278 244.204 242.278 244.204C242.278 244.204 240.459 229.709 235.186 226.616L230.077 208.935L224.118 213.241Z" fill="url(#paint36_linear)"/>
<path d="M237.014 254.165C237.004 254.266 240.331 254.22 242.132 254.183C242.799 254.174 243.366 253.696 243.512 253.045L244.874 245.848C245.002 245.168 244.572 244.498 243.896 244.342L243.137 244.168C243.137 244.168 242.049 245.664 242.397 247.069C242.735 248.473 243.046 252.127 242.177 252.549C241.318 252.971 238.832 253.045 238.832 253.045C238.832 253.045 237.068 253.237 237.014 254.165Z" fill="url(#paint37_linear)"/>
<path d="M214.403 254.293C214.064 254.486 214.202 255 214.595 255C217.62 254.972 224.383 254.871 224.986 254.624C225.763 254.302 224.703 251.493 223.588 250.548L217.428 252.567L214.403 254.293Z" fill="url(#paint38_linear)"/>
<path d="M212.493 211.808C212.493 211.808 219.119 243.984 220.992 250.263L216.56 253.054C216.56 253.054 218.78 252.678 220.425 252.558C222.071 252.439 223.588 250.539 223.588 250.539L223.058 249.685C223.058 249.685 221.394 217.684 221.805 214.048L212.493 211.808Z" fill="url(#paint39_linear)"/>
<path d="M196.051 136.753C196.051 136.753 195.137 153.488 210.308 162.044L206.652 170.416C206.652 170.416 192.916 162.072 193.427 139.305C193.446 138.654 193.208 138.02 192.779 137.524L189.863 134.119C188.748 132.824 188.337 131.062 188.748 129.4L189.132 127.858C189.26 127.344 189.845 127.096 190.302 127.362L190.603 127.537C191.572 128.106 192.349 128.96 192.806 129.997L194.241 133.219C194.78 134.422 196.014 135.147 197.321 135.037L198.207 134.963L196.051 136.753Z" fill="url(#paint40_linear)"/>
<path d="M209.787 160.795C212.328 161.502 220.928 163.779 226.293 163.678L222.994 182.359L223.259 185.407C219.74 185.967 216.185 186.206 212.511 185.361C212.511 185.361 209.485 178.302 207.1 174.786C206.415 173.767 206.926 172.555 207.31 171.389L206.771 171.031C206.223 170.664 205.985 169.975 206.195 169.351L208.809 161.31C208.946 160.906 209.376 160.676 209.787 160.795Z" fill="url(#paint41_linear)"/>
<path d="M215.856 162.301C215.819 162.255 218.095 155.379 218.095 155.379L221.367 155.673L222.646 163.467C222.646 163.467 217.519 164.514 215.856 162.301Z" fill="url(#paint42_linear)"/>
<path d="M220.581 144.547C220.361 144.685 213.598 147.494 215.051 154.544C215.134 154.957 215.417 155.315 215.801 155.49C216.797 155.93 218.927 156.692 221.486 156.435C225.032 156.077 227.353 149.862 227.253 148.054C227.161 146.245 222.747 143.198 220.581 144.547Z" fill="url(#paint43_linear)"/>
<path d="M222.646 141.811C222.473 141.839 218.735 143.143 220.59 145.86C222.436 148.577 223.131 150.174 222.263 151.368C221.467 152.451 219.694 151.836 219.85 154.094C219.877 154.544 219.685 154.985 219.311 155.242C217.647 156.371 213.589 159.859 217.611 164.826C217.94 165.229 218.004 165.789 217.757 166.239C215.527 170.26 216.359 176.989 219.292 180.523C220.983 182.561 223.515 183.672 226.019 184.507C228.176 185.232 230.424 185.811 232.7 185.737C234.976 185.664 237.306 184.884 238.869 183.222C239.445 182.607 239.911 181.882 240.158 181.074C240.386 180.312 240.404 179.513 240.34 178.724C240.002 174.887 237.599 171.554 234.884 168.837C233.687 167.644 232.353 166.423 231.941 164.78C231.795 164.192 231.777 163.577 231.795 162.962C231.823 161.631 231.969 160.281 232.471 159.042C232.874 158.042 233.504 157.142 233.925 156.151C234.884 153.883 234.701 151.248 233.833 148.944C232.91 146.502 231.228 144.373 229.09 142.895C227.107 141.536 224.95 141.499 222.646 141.811Z" fill="url(#paint44_linear)"/>
<path d="M223.615 184.893C224.584 185.618 226.604 187.537 228.441 191.089C231.009 199.113 233.093 212.901 235.176 226.634C238.275 228.167 240.084 234.382 241.848 240.762C240.605 241.707 239.399 242.249 238.238 242.276L218.899 203.767L218.058 186.958C220.069 187.243 222.518 185.646 223.615 184.893Z" fill="url(#paint45_linear)"/>
<path d="M220.581 185.104C216.669 185.857 215.262 185.572 212.611 184.911C212.2 184.81 211.816 185.15 211.862 185.572C208.297 200.572 213.617 222.485 219.246 244.462C220.389 245.26 221.614 245.168 222.911 244.462L222.464 205.08C224.392 198.342 222.071 192.861 220.581 185.104Z" fill="url(#paint46_linear)"/>
<path d="M223.067 184.021C220.736 184.838 216.77 184.994 212.191 184.893C212.09 184.893 211.999 184.957 211.981 185.058L211.642 186.591C211.615 186.72 211.706 186.848 211.843 186.848C217.766 187.105 222.509 186.894 224.392 185.554C224.502 185.48 224.511 185.324 224.419 185.233L223.286 184.067C223.231 184.012 223.149 183.993 223.067 184.021Z" fill="url(#paint47_linear)"/>
<defs>
<linearGradient id="paint0_linear" x1="284.355" y1="328.786" x2="58.5409" y2="49.5759" gradientUnits="userSpaceOnUse">
<stop stop-color="#B37CFF"/>
<stop offset="1" stop-color="#F895E7"/>
</linearGradient>
<linearGradient id="paint1_linear" x1="-12.3387" y1="40.2244" x2="118.985" y2="165.741" gradientUnits="userSpaceOnUse">
<stop stop-color="#B37CFF"/>
<stop offset="1" stop-color="#F895E7"/>
</linearGradient>
<linearGradient id="paint2_linear" x1="37.6266" y1="72.4453" x2="109.555" y2="72.4453" gradientUnits="userSpaceOnUse">
<stop stop-color="#A737D5"/>
<stop offset="1" stop-color="#EF497A"/>
</linearGradient>
<linearGradient id="paint3_linear" x1="129.144" y1="66.55" x2="129.79" y2="222.09" gradientUnits="userSpaceOnUse">
<stop stop-color="#2B3582"/>
<stop offset="1" stop-color="#150E42"/>
</linearGradient>
<linearGradient id="paint4_linear" x1="128.454" y1="102.751" x2="128.454" y2="320.432" gradientUnits="userSpaceOnUse">
<stop stop-color="#53D8FF"/>
<stop offset="1" stop-color="#3840F7"/>
</linearGradient>
<linearGradient id="paint5_linear" x1="128.828" y1="232.259" x2="142.88" y2="92.3555" gradientUnits="userSpaceOnUse">
<stop stop-color="#2B3582"/>
<stop offset="1" stop-color="#150E42"/>
</linearGradient>
<linearGradient id="paint6_linear" x1="130.665" y1="96.6049" x2="157.872" y2="326.46" gradientUnits="userSpaceOnUse">
<stop stop-color="#CB236D"/>
<stop offset="1" stop-color="#4C246D"/>
</linearGradient>
<linearGradient id="paint7_linear" x1="136.837" y1="187.755" x2="136.837" y2="-18.8564" gradientUnits="userSpaceOnUse">
<stop stop-color="#CB236D"/>
<stop offset="1" stop-color="#4C246D"/>
</linearGradient>
<linearGradient id="paint8_linear" x1="81.7281" y1="9.371" x2="53.951" y2="116.302" gradientUnits="userSpaceOnUse">
<stop stop-color="#53D8FF"/>
<stop offset="1" stop-color="#3840F7"/>
</linearGradient>
<linearGradient id="paint9_linear" x1="-255.54" y1="-460.378" x2="741.552" y2="594.467" gradientUnits="userSpaceOnUse">
<stop stop-color="#A737D5"/>
<stop offset="1" stop-color="#EF497A"/>
</linearGradient>
<linearGradient id="paint10_linear" x1="175.011" y1="-3.66677" x2="151.958" y2="63.4534" gradientUnits="userSpaceOnUse">
<stop stop-color="#53D8FF"/>
<stop offset="1" stop-color="#3840F7"/>
</linearGradient>
<linearGradient id="paint11_linear" x1="116.667" y1="-8.56437" x2="119.755" y2="119.953" gradientUnits="userSpaceOnUse">
<stop stop-color="#FDF53F"/>
<stop offset="1" stop-color="#D93C65"/>
</linearGradient>
<linearGradient id="paint12_linear" x1="61.2756" y1="140.584" x2="24.9556" y2="190.066" gradientUnits="userSpaceOnUse">
<stop stop-color="#CE1567"/>
<stop offset="1" stop-color="#7A1DBC"/>
</linearGradient>
<linearGradient id="paint13_linear" x1="42.2074" y1="215.777" x2="42.2074" y2="266.044" gradientUnits="userSpaceOnUse">
<stop stop-color="#CB236D"/>
<stop offset="1" stop-color="#4C246D"/>
</linearGradient>
<linearGradient id="paint14_linear" x1="40.0972" y1="224.129" x2="38.2648" y2="240.05" gradientUnits="userSpaceOnUse">
<stop stop-color="#F9B776"/>
<stop offset="1" stop-color="#F47960"/>
</linearGradient>
<linearGradient id="paint15_linear" x1="58.7771" y1="215.778" x2="58.7771" y2="266.044" gradientUnits="userSpaceOnUse">
<stop stop-color="#CB236D"/>
<stop offset="1" stop-color="#4C246D"/>
</linearGradient>
<linearGradient id="paint16_linear" x1="54.8934" y1="225.832" x2="53.0611" y2="241.753" gradientUnits="userSpaceOnUse">
<stop stop-color="#F9B776"/>
<stop offset="1" stop-color="#F47960"/>
</linearGradient>
<linearGradient id="paint17_linear" x1="59.3789" y1="179.667" x2="0.919157" y2="269.981" gradientUnits="userSpaceOnUse">
<stop stop-color="#2B3582"/>
<stop offset="1" stop-color="#150E42"/>
</linearGradient>
<linearGradient id="paint18_linear" x1="53.4531" y1="134.842" x2="17.1331" y2="184.324" gradientUnits="userSpaceOnUse">
<stop stop-color="#CE1567"/>
<stop offset="1" stop-color="#7A1DBC"/>
</linearGradient>
<linearGradient id="paint19_linear" x1="58.8887" y1="82.4519" x2="40.8394" y2="136.822" gradientUnits="userSpaceOnUse">
<stop stop-color="#F9B776"/>
<stop offset="1" stop-color="#F47960"/>
</linearGradient>
<linearGradient id="paint20_linear" x1="54.5809" y1="99.1835" x2="13.7534" y2="171.793" gradientUnits="userSpaceOnUse">
<stop stop-color="#CE1567"/>
<stop offset="1" stop-color="#7A1DBC"/>
</linearGradient>
<linearGradient id="paint21_linear" x1="43.894" y1="177.333" x2="38.9898" y2="186.023" gradientUnits="userSpaceOnUse">
<stop stop-color="#2B3582"/>
<stop offset="1" stop-color="#150E42"/>
</linearGradient>
<linearGradient id="paint22_linear" x1="24.7015" y1="169.536" x2="40.2126" y2="169.536" gradientUnits="userSpaceOnUse">
<stop stop-color="#F9B776"/>
<stop offset="1" stop-color="#F47960"/>
</linearGradient>
<linearGradient id="paint23_linear" x1="61.0112" y1="144.582" x2="66.6025" y2="152.724" gradientUnits="userSpaceOnUse">
<stop stop-color="#F9B776"/>
<stop offset="1" stop-color="#F47960"/>
</linearGradient>
<linearGradient id="paint24_linear" x1="54.521" y1="151.824" x2="66.8019" y2="135.423" gradientUnits="userSpaceOnUse">
<stop stop-color="#2B3582"/>
<stop offset="1" stop-color="#150E42"/>
</linearGradient>
<linearGradient id="paint25_linear" x1="75.0863" y1="112.034" x2="97.4635" y2="151.713" gradientUnits="userSpaceOnUse">
<stop stop-color="#FDF53F"/>
<stop offset="1" stop-color="#D93C65"/>
</linearGradient>
<linearGradient id="paint26_linear" x1="77.8841" y1="165.076" x2="30.5115" y2="258.451" gradientUnits="userSpaceOnUse">
<stop stop-color="#FDF53F"/>
<stop offset="1" stop-color="#D93C65"/>
</linearGradient>
<linearGradient id="paint27_linear" x1="130.508" y1="80.8135" x2="83.1966" y2="145.044" gradientUnits="userSpaceOnUse">
<stop stop-color="#FDF53F"/>
<stop offset="1" stop-color="#D93C65"/>
</linearGradient>
<linearGradient id="paint28_linear" x1="105.553" y1="124.436" x2="81.327" y2="125.82" gradientUnits="userSpaceOnUse">
<stop stop-color="#2B3582"/>
<stop offset="1" stop-color="#150E42"/>
</linearGradient>
<linearGradient id="paint29_linear" x1="59.6634" y1="133.081" x2="58.7619" y2="110.495" gradientUnits="userSpaceOnUse">
<stop stop-color="#2B3582"/>
<stop offset="1" stop-color="#150E42"/>
</linearGradient>
<linearGradient id="paint30_linear" x1="62.6735" y1="138.966" x2="68.6487" y2="138.966" gradientUnits="userSpaceOnUse">
<stop stop-color="#F9B776"/>
<stop offset="1" stop-color="#F47960"/>
</linearGradient>
<linearGradient id="paint31_linear" x1="47.6784" y1="118.806" x2="34.7129" y2="128.122" gradientUnits="userSpaceOnUse">
<stop stop-color="#F9B776"/>
<stop offset="1" stop-color="#F47960"/>
</linearGradient>
<linearGradient id="paint32_linear" x1="38.9847" y1="110.855" x2="50.4109" y2="126.38" gradientUnits="userSpaceOnUse">
<stop stop-color="#2B3582"/>
<stop offset="1" stop-color="#150E42"/>
</linearGradient>
<linearGradient id="paint33_linear" x1="46.1662" y1="116.701" x2="33.2006" y2="126.017" gradientUnits="userSpaceOnUse">
<stop stop-color="#F9B776"/>
<stop offset="1" stop-color="#F47960"/>
</linearGradient>
<linearGradient id="paint34_linear" x1="206.942" y1="130.577" x2="219.181" y2="161.927" gradientUnits="userSpaceOnUse">
<stop stop-color="#F9B776"/>
<stop offset="1" stop-color="#F47960"/>
</linearGradient>
<linearGradient id="paint35_linear" x1="207.149" y1="140.448" x2="197.267" y2="27.3106" gradientUnits="userSpaceOnUse">
<stop stop-color="#FDF53F"/>
<stop offset="0.4989" stop-color="#EB9952"/>
<stop offset="1" stop-color="#D93C65"/>
</linearGradient>
<linearGradient id="paint36_linear" x1="224.115" y1="231.005" x2="243.271" y2="231.005" gradientUnits="userSpaceOnUse">
<stop stop-color="#F9B776"/>
<stop offset="1" stop-color="#F47960"/>
</linearGradient>
<linearGradient id="paint37_linear" x1="250.446" y1="187.976" x2="240.877" y2="249.901" gradientUnits="userSpaceOnUse">
<stop stop-color="#CB236D"/>
<stop offset="0.9001" stop-color="#59246D"/>
<stop offset="1" stop-color="#4C246D"/>
</linearGradient>
<linearGradient id="paint38_linear" x1="230.372" y1="184.874" x2="220.803" y2="246.799" gradientUnits="userSpaceOnUse">
<stop stop-color="#CB236D"/>
<stop offset="0.9001" stop-color="#59246D"/>
<stop offset="1" stop-color="#4C246D"/>
</linearGradient>
<linearGradient id="paint39_linear" x1="212.491" y1="232.436" x2="223.584" y2="232.436" gradientUnits="userSpaceOnUse">
<stop stop-color="#F9B776"/>
<stop offset="1" stop-color="#F47960"/>
</linearGradient>
<linearGradient id="paint40_linear" x1="188.594" y1="148.839" x2="210.311" y2="148.839" gradientUnits="userSpaceOnUse">
<stop stop-color="#F9B776"/>
<stop offset="1" stop-color="#F47960"/>
</linearGradient>
<linearGradient id="paint41_linear" x1="212.392" y1="160.697" x2="253.394" y2="241.547" gradientUnits="userSpaceOnUse">
<stop stop-color="#FDF53F"/>
<stop offset="1" stop-color="#D93C65"/>
</linearGradient>
<linearGradient id="paint42_linear" x1="215.853" y1="159.548" x2="222.642" y2="159.548" gradientUnits="userSpaceOnUse">
<stop stop-color="#F9B776"/>
<stop offset="1" stop-color="#F47960"/>
</linearGradient>
<linearGradient id="paint43_linear" x1="226.642" y1="150.737" x2="276.056" y2="154.082" gradientUnits="userSpaceOnUse">
<stop stop-color="#F9B776"/>
<stop offset="1" stop-color="#F47960"/>
</linearGradient>
<linearGradient id="paint44_linear" x1="236.82" y1="149.111" x2="216.952" y2="188.673" gradientUnits="userSpaceOnUse">
<stop stop-color="#2B3582"/>
<stop offset="1" stop-color="#150E42"/>
</linearGradient>
<linearGradient id="paint45_linear" x1="233.613" y1="191.581" x2="223.116" y2="254.902" gradientUnits="userSpaceOnUse">
<stop stop-color="#CE1567"/>
<stop offset="1" stop-color="#7A1DBC"/>
</linearGradient>
<linearGradient id="paint46_linear" x1="221.522" y1="189.576" x2="211.024" y2="252.898" gradientUnits="userSpaceOnUse">
<stop stop-color="#CE1567"/>
<stop offset="1" stop-color="#7A1DBC"/>
</linearGradient>
<linearGradient id="paint47_linear" x1="218.482" y1="155.971" x2="218.15" y2="179.421" gradientUnits="userSpaceOnUse">
<stop stop-color="#CE1567"/>
<stop offset="1" stop-color="#7A1DBC"/>
</linearGradient>
</defs>
</svg>
