<svg width="30" height="28" viewBox="0 0 30 28" fill="none" xmlns="http://www.w3.org/2000/svg">
<path d="M24.1508 27.4171C23.9165 27.4171 23.6837 27.3478 23.4841 27.2124L15.9409 22.0957L11.8951 25.0068C11.5778 25.235 11.1689 25.2924 10.8004 25.1607C10.4325 25.0287 10.153 24.7239 10.0532 24.3459L8.02183 16.6474L0.763325 13.872C0.306373 13.6972 0.00332212 13.26 -2.88716e-06 12.7708C-0.0033279 12.2815 0.293707 11.8402 0.748441 11.6593L28.3479 0.677224C28.4732 0.624024 28.6057 0.593307 28.7393 0.585074C28.7872 0.582224 28.8351 0.582224 28.8828 0.584916C29.1596 0.601382 29.4314 0.714116 29.6436 0.922167C29.6656 0.9437 29.6865 0.965709 29.7063 0.988667C29.882 1.18943 29.9786 1.43422 29.9968 1.68359C30.0013 1.74629 30.0009 1.80979 29.9954 1.87328C29.9916 1.91856 29.9851 1.96369 29.9759 2.0085L25.3173 26.4519C25.2424 26.8446 24.9751 27.1733 24.6059 27.3264C24.4594 27.3872 24.3047 27.4171 24.1508 27.4171ZM16.6032 19.6751L23.3224 24.2327L26.9473 5.21302L13.8552 17.811L16.5715 19.6537C16.5825 19.6605 16.5929 19.6678 16.6032 19.6751ZM11.0097 18.6616L11.9094 22.0705L13.8477 20.6757L11.3096 18.954C11.1917 18.8742 11.0907 18.7748 11.0097 18.6616ZM4.45488 12.7405L9.43891 14.6461C9.79596 14.7826 10.0654 15.0828 10.163 15.4523L10.795 17.8477C10.824 17.5715 10.9493 17.3115 11.1527 17.1156L23.6277 5.11168L4.45488 12.7405Z" fill="white"/>
</svg>
